#usda 1.0
(
    defaultPrim = "Root"
    metersPerUnit = 1
    upAxis = "Z"
)

def Xform "Root" (
    prepend references = @https://omniverse-content-production.s3-us-west-2.amazonaws.com/Assets/Isaac/5.1/Isaac/IsaacLab/Factory/factory_hole_8mm.usd@
)
{
    over "forge_hole_8mm"
    {
        over "forge_hole_8mm"
        {
            over "mesh"
            {
                uchar[] physxCookedData:convexHull:buffer = None
                uchar[] physxCookedData:triangleMesh:buffer = None
                point3f[] points = [(-0.0125, 0.007, 0), (-0.0125, 0.007, 0.025), (-0.0122601, 0.00700523, 0), (-0.0122601, 0.00700523, 0.025), (-0.0120206, 0.00702093, 0), (-0.0120206, 0.00702093, 0.025), (-0.0117821, 0.00704705, 0), (-0.0117821, 0.00704705, 0.025), (-0.0115449, 0.00708356, 0), (-0.0115449, 0.00708356, 0.025), (-0.0113096, 0.00713037, 0), (-0.0113096, 0.00713037, 0.025), (-0.0110765, 0.00718741, 0), (-0.0110765, 0.00718741, 0.025), (-0.0108461, 0.00725456, 0), (-0.0108461, 0.00725456, 0.025), (-0.0106189, 0.00733169, 0), (-0.0106189, 0.00733169, 0.025), (-0.0103952, 0.00741866, 0), (-0.0103952, 0.00741866, 0.025), (-0.0101756, 0.00751531, 0), (-0.0101756, 0.00751531, 0.025), (-0.00996038, 0.00762144, 0), (-0.00996038, 0.00762144, 0.025), (-0.00975, 0.00773686, 0), (-0.00975, 0.00773686, 0.025), (-0.00954485, 0.00786135, 0), (-0.00954485, 0.00786135, 0.025), (-0.00934533, 0.00799466, 0), (-0.00934533, 0.00799466, 0.025), (-0.00915181, 0.00813656, 0), (-0.00915181, 0.00813656, 0.025), (-0.00896467, 0.00828676, 0), (-0.00896467, 0.00828676, 0.025), (-0.00878425, 0.00844497, 0), (-0.00878425, 0.00844497, 0.025), (-0.00861091, 0.00861091, 0), (-0.00861091, 0.00861091, 0.025), (-0.00844497, 0.00878425, 0), (-0.00844497, 0.00878425, 0.025), (-0.00828676, 0.00896467, 0), (-0.00828676, 0.00896467, 0.025), (-0.00813656, 0.00915181, 0), (-0.00813656, 0.00915181, 0.025), (-0.00799466, 0.00934533, 0), (-0.00799466, 0.00934533, 0.025), (-0.00786135, 0.00954485, 0), (-0.00786135, 0.00954485, 0.025), (-0.00773686, 0.00975, 0), (-0.00773686, 0.00975, 0.025), (-0.00762144, 0.00996038, 0), (-0.00762144, 0.00996038, 0.025), (-0.00751531, 0.0101756, 0), (-0.00751531, 0.0101756, 0.025), (-0.00741866, 0.0103952, 0), (-0.00741866, 0.0103952, 0.025), (-0.00733169, 0.0106189, 0), (-0.00733169, 0.0106189, 0.025), (-0.00725456, 0.0108461, 0), (-0.00725456, 0.0108461, 0.025), (-0.00718741, 0.0110765, 0), (-0.00718741, 0.0110765, 0.025), (-0.00713037, 0.0113096, 0), (-0.00713037, 0.0113096, 0.025), (-0.00708356, 0.0115449, 0), (-0.00708356, 0.0115449, 0.025), (-0.00704705, 0.0117821, 0), (-0.00704705, 0.0117821, 0.025), (-0.00702093, 0.0120206, 0), (-0.00702093, 0.0120206, 0.025), (-0.00700523, 0.0122601, 0), (-0.00700523, 0.0122601, 0.025), (-0.007, 0.0125, 0), (-0.007, 0.0125, 0.025), (0.0125, -0.007, 0), (0.0125, -0.007, 0.025), (0.0122601, -0.00700523, 0), (0.0122601, -0.00700523, 0.025), (0.0120206, -0.00702093, 0), (0.0120206, -0.00702093, 0.025), (0.0117821, -0.00704705, 0), (0.0117821, -0.00704705, 0.025), (0.0115449, -0.00708356, 0), (0.0115449, -0.00708356, 0.025), (0.0113096, -0.00713037, 0), (0.0113096, -0.00713037, 0.025), (0.0110765, -0.00718741, 0), (0.0110765, -0.00718741, 0.025), (0.0108461, -0.00725456, 0), (0.0108461, -0.00725456, 0.025), (0.0106189, -0.00733169, 0), (0.0106189, -0.00733169, 0.025), (0.0103952, -0.00741866, 0), (0.0103952, -0.00741866, 0.025), (0.0101756, -0.00751531, 0), (0.0101756, -0.00751531, 0.025), (0.00996038, -0.00762144, 0), (0.00996038, -0.00762144, 0.025), (0.00975, -0.00773686, 0), (0.00975, -0.00773686, 0.025), (0.00954485, -0.00786135, 0), (0.00954485, -0.00786135, 0.025), (0.00934533, -0.00799466, 0), (0.00934533, -0.00799466, 0.025), (0.00915181, -0.00813656, 0), (0.00915181, -0.00813656, 0.025), (0.00896467, -0.00828676, 0), (0.00896467, -0.00828676, 0.025), (0.00878425, -0.00844497, 0), (0.00878425, -0.00844497, 0.025), (0.00861091, -0.00861091, 0), (0.00861091, -0.00861091, 0.025), (0.00844497, -0.00878425, 0), (0.00844497, -0.00878425, 0.025), (0.00828676, -0.00896467, 0), (0.00828676, -0.00896467, 0.025), (0.00813656, -0.00915181, 0), (0.00813656, -0.00915181, 0.025), (0.00799466, -0.00934533, 0), (0.00799466, -0.00934533, 0.025), (0.00786135, -0.00954485, 0), (0.00786135, -0.00954485, 0.025), (0.00773686, -0.00975, 0), (0.00773686, -0.00975, 0.025), (0.00762144, -0.00996038, 0), (0.00762144, -0.00996038, 0.025), (0.00751531, -0.0101756, 0), (0.00751531, -0.0101756, 0.025), (0.00741866, -0.0103952, 0), (0.00741866, -0.0103952, 0.025), (0.00733169, -0.0106189, 0), (0.00733169, -0.0106189, 0.025), (0.00725456, -0.0108461, 0), (0.00725456, -0.0108461, 0.025), (0.00718741, -0.0110765, 0), (0.00718741, -0.0110765, 0.025), (0.00713037, -0.0113096, 0), (0.00713037, -0.0113096, 0.025), (0.00708356, -0.0115449, 0), (0.00708356, -0.0115449, 0.025), (0.00704705, -0.0117821, 0), (0.00704705, -0.0117821, 0.025), (0.00702093, -0.0120206, 0), (0.00702093, -0.0120206, 0.025), (0.00700523, -0.0122601, 0), (0.00700523, -0.0122601, 0.025), (0.007, -0.0125, 0), (0.007, -0.0125, 0.025), (-0.007, -0.0125, 0), (-0.007, -0.0125, 0.025), (-0.00700523, -0.0122601, 0), (-0.00700523, -0.0122601, 0.025), (-0.00702093, -0.0120206, 0), (-0.00702093, -0.0120206, 0.025), (-0.00704705, -0.0117821, 0), (-0.00704705, -0.0117821, 0.025), (-0.00708356, -0.0115449, 0), (-0.00708356, -0.0115449, 0.025), (-0.00713037, -0.0113096, 0), (-0.00713037, -0.0113096, 0.025), (-0.00718741, -0.0110765, 0), (-0.00718741, -0.0110765, 0.025), (-0.00725456, -0.0108461, 0), (-0.00725456, -0.0108461, 0.025), (-0.00733169, -0.0106189, 0), (-0.00733169, -0.0106189, 0.025), (-0.00741866, -0.0103952, 0), (-0.00741866, -0.0103952, 0.025), (-0.00751531, -0.0101756, 0), (-0.00751531, -0.0101756, 0.025), (-0.00762144, -0.00996038, 0), (-0.00762144, -0.00996038, 0.025), (-0.00773686, -0.00975, 0), (-0.00773686, -0.00975, 0.025), (-0.00786135, -0.00954485, 0), (-0.00786135, -0.00954485, 0.025), (-0.00799466, -0.00934533, 0), (-0.00799466, -0.00934533, 0.025), (-0.00813656, -0.00915181, 0), (-0.00813656, -0.00915181, 0.025), (-0.00828676, -0.00896467, 0), (-0.00828676, -0.00896467, 0.025), (-0.00844497, -0.00878425, 0), (-0.00844497, -0.00878425, 0.025), (-0.00861091, -0.00861091, 0), (-0.00861091, -0.00861091, 0.025), (-0.00878425, -0.00844497, 0), (-0.00878425, -0.00844497, 0.025), (-0.00896467, -0.00828676, 0), (-0.00896467, -0.00828676, 0.025), (-0.00915181, -0.00813656, 0), (-0.00915181, -0.00813656, 0.025), (-0.00934533, -0.00799466, 0), (-0.00934533, -0.00799466, 0.025), (-0.00954485, -0.00786135, 0), (-0.00954485, -0.00786135, 0.025), (-0.00975, -0.00773686, 0), (-0.00975, -0.00773686, 0.025), (-0.00996038, -0.00762144, 0), (-0.00996038, -0.00762144, 0.025), (-0.0101756, -0.00751531, 0), (-0.0101756, -0.00751531, 0.025), (-0.0103952, -0.00741866, 0), (-0.0103952, -0.00741866, 0.025), (-0.0106189, -0.00733169, 0), (-0.0106189, -0.00733169, 0.025), (-0.0108461, -0.00725456, 0), (-0.0108461, -0.00725456, 0.025), (-0.0110765, -0.00718741, 0), (-0.0110765, -0.00718741, 0.025), (-0.0113096, -0.00713037, 0), (-0.0113096, -0.00713037, 0.025), (-0.0115449, -0.00708356, 0), (-0.0115449, -0.00708356, 0.025), (-0.0117821, -0.00704705, 0), (-0.0117821, -0.00704705, 0.025), (-0.0120206, -0.00702093, 0), (-0.0120206, -0.00702093, 0.025), (-0.0122601, -0.00700523, 0), (-0.0122601, -0.00700523, 0.025), (-0.0125, -0.007, 0), (-0.0125, -0.007, 0.025), (0.007, 0.0125, 0), (0.007, 0.0125, 0.025), (0.00700523, 0.0122601, 0), (0.00700523, 0.0122601, 0.025), (0.00702093, 0.0120206, 0), (0.00702093, 0.0120206, 0.025), (0.00704705, 0.0117821, 0), (0.00704705, 0.0117821, 0.025), (0.00708356, 0.0115449, 0), (0.00708356, 0.0115449, 0.025), (0.00713037, 0.0113096, 0), (0.00713037, 0.0113096, 0.025), (0.00718741, 0.0110765, 0), (0.00718741, 0.0110765, 0.025), (0.00725456, 0.0108461, 0), (0.00725456, 0.0108461, 0.025), (0.00733169, 0.0106189, 0), (0.00733169, 0.0106189, 0.025), (0.00741866, 0.0103952, 0), (0.00741866, 0.0103952, 0.025), (0.00751531, 0.0101756, 0), (0.00751531, 0.0101756, 0.025), (0.00762144, 0.00996038, 0), (0.00762144, 0.00996038, 0.025), (0.00773686, 0.00975, 0), (0.00773686, 0.00975, 0.025), (0.00786135, 0.00954485, 0), (0.00786135, 0.00954485, 0.025), (0.00799466, 0.00934533, 0), (0.00799466, 0.00934533, 0.025), (0.00813656, 0.00915181, 0), (0.00813656, 0.00915181, 0.025), (0.00828676, 0.00896467, 0), (0.00828676, 0.00896467, 0.025), (0.00844497, 0.00878425, 0), (0.00844497, 0.00878425, 0.025), (0.00861091, 0.00861091, 0), (0.00861091, 0.00861091, 0.025), (0.00878425, 0.00844497, 0), (0.00878425, 0.00844497, 0.025), (0.00896467, 0.00828676, 0), (0.00896467, 0.00828676, 0.025), (0.00915181, 0.00813656, 0), (0.00915181, 0.00813656, 0.025), (0.00934533, 0.00799466, 0), (0.00934533, 0.00799466, 0.025), (0.00954485, 0.00786135, 0), (0.00954485, 0.00786135, 0.025), (0.00975, 0.00773686, 0), (0.00975, 0.00773686, 0.025), (0.00996038, 0.00762144, 0), (0.00996038, 0.00762144, 0.025), (0.0101756, 0.00751531, 0), (0.0101756, 0.00751531, 0.025), (0.0103952, 0.00741866, 0), (0.0103952, 0.00741866, 0.025), (0.0106189, 0.00733169, 0), (0.0106189, 0.00733169, 0.025), (0.0108461, 0.00725456, 0), (0.0108461, 0.00725456, 0.025), (0.0110765, 0.00718741, 0), (0.0110765, 0.00718741, 0.025), (0.0113096, 0.00713037, 0), (0.0113096, 0.00713037, 0.025), (0.0115449, 0.00708356, 0), (0.0115449, 0.00708356, 0.025), (0.0117821, 0.00704705, 0), (0.0117821, 0.00704705, 0.025), (0.0120206, 0.00702093, 0), (0.0120206, 0.00702093, 0.025), (0.0122601, 0.00700523, 0), (0.0122601, 0.00700523, 0.025), (0.0125, 0.007, 0), (0.0125, 0.007, 0.025), (0.0157, 0.0125, -0.003), (0.0157, 0.0125, 0), (0.015697, 0.0126396, -0.003), (0.015697, 0.0126396, 0), (0.0156878, 0.0127789, -0.003), (0.0156878, 0.0127789, 0), (0.0156726, 0.0129177, -0.003), (0.0156726, 0.0129177, 0), (0.0156514, 0.0130557, -0.003), (0.0156514, 0.0130557, 0), (0.0156241, 0.0131926, -0.003), (0.0156241, 0.0131926, 0), (0.015591, 0.0133282, -0.003), (0.015591, 0.0133282, 0), (0.0155519, 0.0134623, -0.003), (0.0155519, 0.0134623, 0), (0.015507, 0.0135945, -0.003), (0.015507, 0.0135945, 0), (0.0154564, 0.0137246, -0.003), (0.0154564, 0.0137246, 0), (0.0154002, 0.0138524, -0.003), (0.0154002, 0.0138524, 0), (0.0153384, 0.0139776, -0.003), (0.0153384, 0.0139776, 0), (0.0152713, 0.0141, -0.003), (0.0152713, 0.0141, 0), (0.0151989, 0.0142194, -0.003), (0.0151989, 0.0142194, 0), (0.0151213, 0.0143354, -0.003), (0.0151213, 0.0143354, 0), (0.0150387, 0.014448, -0.003), (0.0150387, 0.014448, 0), (0.0149513, 0.0145569, -0.003), (0.0149513, 0.0145569, 0), (0.0148593, 0.0146619, -0.003), (0.0148593, 0.0146619, 0), (0.0147627, 0.0147627, -0.003), (0.0147627, 0.0147627, 0), (0.0146619, 0.0148593, -0.003), (0.0146619, 0.0148593, 0), (0.0145569, 0.0149513, -0.003), (0.0145569, 0.0149513, 0), (0.014448, 0.0150387, -0.003), (0.014448, 0.0150387, 0), (0.0143354, 0.0151213, -0.003), (0.0143354, 0.0151213, 0), (0.0142194, 0.0151989, -0.003), (0.0142194, 0.0151989, 0), (0.0141, 0.0152713, -0.003), (0.0141, 0.0152713, 0), (0.0139776, 0.0153384, -0.003), (0.0139776, 0.0153384, 0), (0.0138524, 0.0154002, -0.003), (0.0138524, 0.0154002, 0), (0.0137246, 0.0154564, -0.003), (0.0137246, 0.0154564, 0), (0.0135945, 0.015507, -0.003), (0.0135945, 0.015507, 0), (0.0134623, 0.0155519, -0.003), (0.0134623, 0.0155519, 0), (0.0133282, 0.015591, -0.003), (0.0133282, 0.015591, 0), (0.0131926, 0.0156241, -0.003), (0.0131926, 0.0156241, 0), (0.0130557, 0.0156514, -0.003), (0.0130557, 0.0156514, 0), (0.0129177, 0.0156726, -0.003), (0.0129177, 0.0156726, 0), (0.0127789, 0.0156878, -0.003), (0.0127789, 0.0156878, 0), (0.0126396, 0.015697, -0.003), (0.0126396, 0.015697, 0), (0.0125, 0.0157, -0.003), (0.0125, 0.0157, 0), (0.0123604, 0.015697, -0.003), (0.0123604, 0.015697, 0), (0.0122211, 0.0156878, -0.003), (0.0122211, 0.0156878, 0), (0.0120823, 0.0156726, -0.003), (0.0120823, 0.0156726, 0), (0.0119443, 0.0156514, -0.003), (0.0119443, 0.0156514, 0), (0.0118074, 0.0156241, -0.003), (0.0118074, 0.0156241, 0), (0.0116718, 0.015591, -0.003), (0.0116718, 0.015591, 0), (0.0115377, 0.0155519, -0.003), (0.0115377, 0.0155519, 0), (0.0114055, 0.015507, -0.003), (0.0114055, 0.015507, 0), (0.0112754, 0.0154564, -0.003), (0.0112754, 0.0154564, 0), (0.0111476, 0.0154002, -0.003), (0.0111476, 0.0154002, 0), (0.0110224, 0.0153384, -0.003), (0.0110224, 0.0153384, 0), (0.0109, 0.0152713, -0.003), (0.0109, 0.0152713, 0), (0.0107806, 0.0151989, -0.003), (0.0107806, 0.0151989, 0), (0.0106646, 0.0151213, -0.003), (0.0106646, 0.0151213, 0), (0.010552, 0.0150387, -0.003), (0.010552, 0.0150387, 0), (0.0104431, 0.0149513, -0.003), (0.0104431, 0.0149513, 0), (0.0103381, 0.0148593, -0.003), (0.0103381, 0.0148593, 0), (0.0102373, 0.0147627, -0.003), (0.0102373, 0.0147627, 0), (0.0101407, 0.0146619, -0.003), (0.0101407, 0.0146619, 0), (0.0100487, 0.0145569, -0.003), (0.0100487, 0.0145569, 0), (0.00996127, 0.014448, -0.003), (0.00996127, 0.014448, 0), (0.00987871, 0.0143354, -0.003), (0.00987871, 0.0143354, 0), (0.00980115, 0.0142194, -0.003), (0.00980115, 0.0142194, 0), (0.00972872, 0.0141, -0.003), (0.00972872, 0.0141, 0), (0.00966157, 0.0139776, -0.003), (0.00966157, 0.0139776, 0), (0.00959982, 0.0138524, -0.003), (0.00959982, 0.0138524, 0), (0.00954359, 0.0137246, -0.003), (0.00954359, 0.0137246, 0), (0.00949298, 0.0135945, -0.003), (0.00949298, 0.0135945, 0), (0.00944811, 0.0134623, -0.003), (0.00944811, 0.0134623, 0), (0.00940904, 0.0133282, -0.003), (0.00940904, 0.0133282, 0), (0.00937585, 0.0131926, -0.003), (0.00937585, 0.0131926, 0), (0.00934862, 0.0130557, -0.003), (0.00934862, 0.0130557, 0), (0.00932738, 0.0129177, -0.003), (0.00932738, 0.0129177, 0), (0.00931218, 0.0127789, -0.003), (0.00931218, 0.0127789, 0), (0.00930305, 0.0126396, -0.003), (0.00930305, 0.0126396, 0), (0.0093, 0.0125, -0.003), (0.0093, 0.0125, 0), (0.00930305, 0.0123604, -0.003), (0.00930305, 0.0123604, 0), (0.00931218, 0.0122211, -0.003), (0.00931218, 0.0122211, 0), (0.00932738, 0.0120823, -0.003), (0.00932738, 0.0120823, 0), (0.00934862, 0.0119443, -0.003), (0.00934862, 0.0119443, 0), (0.00937585, 0.0118074, -0.003), (0.00937585, 0.0118074, 0), (0.00940904, 0.0116718, -0.003), (0.00940904, 0.0116718, 0), (0.00944811, 0.0115377, -0.003), (0.00944811, 0.0115377, 0), (0.00949298, 0.0114055, -0.003), (0.00949298, 0.0114055, 0), (0.00954359, 0.0112754, -0.003), (0.00954359, 0.0112754, 0), (0.00959982, 0.0111476, -0.003), (0.00959982, 0.0111476, 0), (0.00966157, 0.0110224, -0.003), (0.00966157, 0.0110224, 0), (0.00972872, 0.0109, -0.003), (0.00972872, 0.0109, 0), (0.00980115, 0.0107806, -0.003), (0.00980115, 0.0107806, 0), (0.00987871, 0.0106646, -0.003), (0.00987871, 0.0106646, 0), (0.00996127, 0.010552, -0.003), (0.00996127, 0.010552, 0), (0.0100487, 0.0104431, -0.003), (0.0100487, 0.0104431, 0), (0.0101407, 0.0103381, -0.003), (0.0101407, 0.0103381, 0), (0.0102373, 0.0102373, -0.003), (0.0102373, 0.0102373, 0), (0.0103381, 0.0101407, -0.003), (0.0103381, 0.0101407, 0), (0.0104431, 0.0100487, -0.003), (0.0104431, 0.0100487, 0), (0.010552, 0.00996127, -0.003), (0.010552, 0.00996127, 0), (0.0106646, 0.00987871, -0.003), (0.0106646, 0.00987871, 0), (0.0107806, 0.00980115, -0.003), (0.0107806, 0.00980115, 0), (0.0109, 0.00972872, -0.003), (0.0109, 0.00972872, 0), (0.0110224, 0.00966157, -0.003), (0.0110224, 0.00966157, 0), (0.0111476, 0.00959982, -0.003), (0.0111476, 0.00959982, 0), (0.0112754, 0.00954359, -0.003), (0.0112754, 0.00954359, 0), (0.0114055, 0.00949298, -0.003), (0.0114055, 0.00949298, 0), (0.0115377, 0.00944811, -0.003), (0.0115377, 0.00944811, 0), (0.0116718, 0.00940904, -0.003), (0.0116718, 0.00940904, 0), (0.0118074, 0.00937585, -0.003), (0.0118074, 0.00937585, 0), (0.0119443, 0.00934862, -0.003), (0.0119443, 0.00934862, 0), (0.0120823, 0.00932738, -0.003), (0.0120823, 0.00932738, 0), (0.0122211, 0.00931218, -0.003), (0.0122211, 0.00931218, 0), (0.0123604, 0.00930305, -0.003), (0.0123604, 0.00930305, 0), (0.0125, 0.0093, -0.003), (0.0125, 0.0093, 0), (0.0126396, 0.00930305, -0.003), (0.0126396, 0.00930305, 0), (0.0127789, 0.00931218, -0.003), (0.0127789, 0.00931218, 0), (0.0129177, 0.00932738, -0.003), (0.0129177, 0.00932738, 0), (0.0130557, 0.00934862, -0.003), (0.0130557, 0.00934862, 0), (0.0131926, 0.00937585, -0.003), (0.0131926, 0.00937585, 0), (0.0133282, 0.00940904, -0.003), (0.0133282, 0.00940904, 0), (0.0134623, 0.00944811, -0.003), (0.0134623, 0.00944811, 0), (0.0135945, 0.00949298, -0.003), (0.0135945, 0.00949298, 0), (0.0137246, 0.00954359, -0.003), (0.0137246, 0.00954359, 0), (0.0138524, 0.00959982, -0.003), (0.0138524, 0.00959982, 0), (0.0139776, 0.00966157, -0.003), (0.0139776, 0.00966157, 0), (0.0141, 0.00972872, -0.003), (0.0141, 0.00972872, 0), (0.0142194, 0.00980115, -0.003), (0.0142194, 0.00980115, 0), (0.0143354, 0.00987871, -0.003), (0.0143354, 0.00987871, 0), (0.014448, 0.00996127, -0.003), (0.014448, 0.00996127, 0), (0.0145569, 0.0100487, -0.003), (0.0145569, 0.0100487, 0), (0.0146619, 0.0101407, -0.003), (0.0146619, 0.0101407, 0), (0.0147627, 0.0102373, -0.003), (0.0147627, 0.0102373, 0), (0.0148593, 0.0103381, -0.003), (0.0148593, 0.0103381, 0), (0.0149513, 0.0104431, -0.003), (0.0149513, 0.0104431, 0), (0.0150387, 0.010552, -0.003), (0.0150387, 0.010552, 0), (0.0151213, 0.0106646, -0.003), (0.0151213, 0.0106646, 0), (0.0151989, 0.0107806, -0.003), (0.0151989, 0.0107806, 0), (0.0152713, 0.0109, -0.003), (0.0152713, 0.0109, 0), (0.0153384, 0.0110224, -0.003), (0.0153384, 0.0110224, 0), (0.0154002, 0.0111476, -0.003), (0.0154002, 0.0111476, 0), (0.0154564, 0.0112754, -0.003), (0.0154564, 0.0112754, 0), (0.015507, 0.0114055, -0.003), (0.015507, 0.0114055, 0), (0.0155519, 0.0115377, -0.003), (0.0155519, 0.0115377, 0), (0.015591, 0.0116718, -0.003), (0.015591, 0.0116718, 0), (0.0156241, 0.0118074, -0.003), (0.0156241, 0.0118074, 0), (0.0156514, 0.0119443, -0.003), (0.0156514, 0.0119443, 0), (0.0156726, 0.0120823, -0.003), (0.0156726, 0.0120823, 0), (0.0156878, 0.0122211, -0.003), (0.0156878, 0.0122211, 0), (0.015697, 0.0123604, -0.003), (0.015697, 0.0123604, 0), (-0.0093, -0.0125, -0.003), (-0.0093, -0.0125, 0), (-0.00930305, -0.0123604, -0.003), (-0.00930305, -0.0123604, 0), (-0.00931218, -0.0122211, -0.003), (-0.00931218, -0.0122211, 0), (-0.00932738, -0.0120823, -0.003), (-0.00932738, -0.0120823, 0), (-0.00934862, -0.0119443, -0.003), (-0.00934862, -0.0119443, 0), (-0.00937585, -0.0118074, -0.003), (-0.00937585, -0.0118074, 0), (-0.00940904, -0.0116718, -0.003), (-0.00940904, -0.0116718, 0), (-0.00944811, -0.0115377, -0.003), (-0.00944811, -0.0115377, 0), (-0.00949298, -0.0114055, -0.003), (-0.00949298, -0.0114055, 0), (-0.00954359, -0.0112754, -0.003), (-0.00954359, -0.0112754, 0), (-0.00959982, -0.0111476, -0.003), (-0.00959982, -0.0111476, 0), (-0.00966157, -0.0110224, -0.003), (-0.00966157, -0.0110224, 0), (-0.00972872, -0.0109, -0.003), (-0.00972872, -0.0109, 0), (-0.00980115, -0.0107806, -0.003), (-0.00980115, -0.0107806, 0), (-0.00987871, -0.0106646, -0.003), (-0.00987871, -0.0106646, 0), (-0.00996127, -0.010552, -0.003), (-0.00996127, -0.010552, 0), (-0.0100487, -0.0104431, -0.003), (-0.0100487, -0.0104431, 0), (-0.0101407, -0.0103381, -0.003), (-0.0101407, -0.0103381, 0), (-0.0102373, -0.0102373, -0.003), (-0.0102373, -0.0102373, 0), (-0.0103381, -0.0101407, -0.003), (-0.0103381, -0.0101407, 0), (-0.0104431, -0.0100487, -0.003), (-0.0104431, -0.0100487, 0), (-0.010552, -0.00996127, -0.003), (-0.010552, -0.00996127, 0), (-0.0106646, -0.00987871, -0.003), (-0.0106646, -0.00987871, 0), (-0.0107806, -0.00980115, -0.003), (-0.0107806, -0.00980115, 0), (-0.0109, -0.00972872, -0.003), (-0.0109, -0.00972872, 0), (-0.0110224, -0.00966157, -0.003), (-0.0110224, -0.00966157, 0), (-0.0111476, -0.00959982, -0.003), (-0.0111476, -0.00959982, 0), (-0.0112754, -0.00954359, -0.003), (-0.0112754, -0.00954359, 0), (-0.0114055, -0.00949298, -0.003), (-0.0114055, -0.00949298, 0), (-0.0115377, -0.00944811, -0.003), (-0.0115377, -0.00944811, 0), (-0.0116718, -0.00940904, -0.003), (-0.0116718, -0.00940904, 0), (-0.0118074, -0.00937585, -0.003), (-0.0118074, -0.00937585, 0), (-0.0119443, -0.00934862, -0.003), (-0.0119443, -0.00934862, 0), (-0.0120823, -0.00932738, -0.003), (-0.0120823, -0.00932738, 0), (-0.0122211, -0.00931218, -0.003), (-0.0122211, -0.00931218, 0), (-0.0123604, -0.00930305, -0.003), (-0.0123604, -0.00930305, 0), (-0.0125, -0.0093, -0.003), (-0.0125, -0.0093, 0), (-0.0126396, -0.00930305, -0.003), (-0.0126396, -0.00930305, 0), (-0.0127789, -0.00931218, -0.003), (-0.0127789, -0.00931218, 0), (-0.0129177, -0.00932738, -0.003), (-0.0129177, -0.00932738, 0), (-0.0130557, -0.00934862, -0.003), (-0.0130557, -0.00934862, 0), (-0.0131926, -0.00937585, -0.003), (-0.0131926, -0.00937585, 0), (-0.0133282, -0.00940904, -0.003), (-0.0133282, -0.00940904, 0), (-0.0134623, -0.00944811, -0.003), (-0.0134623, -0.00944811, 0), (-0.0135945, -0.00949298, -0.003), (-0.0135945, -0.00949298, 0), (-0.0137246, -0.00954359, -0.003), (-0.0137246, -0.00954359, 0), (-0.0138524, -0.00959982, -0.003), (-0.0138524, -0.00959982, 0), (-0.0139776, -0.00966157, -0.003), (-0.0139776, -0.00966157, 0), (-0.0141, -0.00972872, -0.003), (-0.0141, -0.00972872, 0), (-0.0142194, -0.00980115, -0.003), (-0.0142194, -0.00980115, 0), (-0.0143354, -0.00987871, -0.003), (-0.0143354, -0.00987871, 0), (-0.014448, -0.00996127, -0.003), (-0.014448, -0.00996127, 0), (-0.0145569, -0.0100487, -0.003), (-0.0145569, -0.0100487, 0), (-0.0146619, -0.0101407, -0.003), (-0.0146619, -0.0101407, 0), (-0.0147627, -0.0102373, -0.003), (-0.0147627, -0.0102373, 0), (-0.0148593, -0.0103381, -0.003), (-0.0148593, -0.0103381, 0), (-0.0149513, -0.0104431, -0.003), (-0.0149513, -0.0104431, 0), (-0.0150387, -0.010552, -0.003), (-0.0150387, -0.010552, 0), (-0.0151213, -0.0106646, -0.003), (-0.0151213, -0.0106646, 0), (-0.0151989, -0.0107806, -0.003), (-0.0151989, -0.0107806, 0), (-0.0152713, -0.0109, -0.003), (-0.0152713, -0.0109, 0), (-0.0153384, -0.0110224, -0.003), (-0.0153384, -0.0110224, 0), (-0.0154002, -0.0111476, -0.003), (-0.0154002, -0.0111476, 0), (-0.0154564, -0.0112754, -0.003), (-0.0154564, -0.0112754, 0), (-0.015507, -0.0114055, -0.003), (-0.015507, -0.0114055, 0), (-0.0155519, -0.0115377, -0.003), (-0.0155519, -0.0115377, 0), (-0.015591, -0.0116718, -0.003), (-0.015591, -0.0116718, 0), (-0.0156241, -0.0118074, -0.003), (-0.0156241, -0.0118074, 0), (-0.0156514, -0.0119443, -0.003), (-0.0156514, -0.0119443, 0), (-0.0156726, -0.0120823, -0.003), (-0.0156726, -0.0120823, 0), (-0.0156878, -0.0122211, -0.003), (-0.0156878, -0.0122211, 0), (-0.015697, -0.0123604, -0.003), (-0.015697, -0.0123604, 0), (-0.0157, -0.0125, -0.003), (-0.0157, -0.0125, 0), (-0.015697, -0.0126396, -0.003), (-0.015697, -0.0126396, 0), (-0.0156878, -0.0127789, -0.003), (-0.0156878, -0.0127789, 0), (-0.0156726, -0.0129177, -0.003), (-0.0156726, -0.0129177, 0), (-0.0156514, -0.0130557, -0.003), (-0.0156514, -0.0130557, 0), (-0.0156241, -0.0131926, -0.003), (-0.0156241, -0.0131926, 0), (-0.015591, -0.0133282, -0.003), (-0.015591, -0.0133282, 0), (-0.0155519, -0.0134623, -0.003), (-0.0155519, -0.0134623, 0), (-0.015507, -0.0135945, -0.003), (-0.015507, -0.0135945, 0), (-0.0154564, -0.0137246, -0.003), (-0.0154564, -0.0137246, 0), (-0.0154002, -0.0138524, -0.003), (-0.0154002, -0.0138524, 0), (-0.0153384, -0.0139776, -0.003), (-0.0153384, -0.0139776, 0), (-0.0152713, -0.0141, -0.003), (-0.0152713, -0.0141, 0), (-0.0151989, -0.0142194, -0.003), (-0.0151989, -0.0142194, 0), (-0.0151213, -0.0143354, -0.003), (-0.0151213, -0.0143354, 0), (-0.0150387, -0.014448, -0.003), (-0.0150387, -0.014448, 0), (-0.0149513, -0.0145569, -0.003), (-0.0149513, -0.0145569, 0), (-0.0148593, -0.0146619, -0.003), (-0.0148593, -0.0146619, 0), (-0.0147627, -0.0147627, -0.003), (-0.0147627, -0.0147627, 0), (-0.0146619, -0.0148593, -0.003), (-0.0146619, -0.0148593, 0), (-0.0145569, -0.0149513, -0.003), (-0.0145569, -0.0149513, 0), (-0.014448, -0.0150387, -0.003), (-0.014448, -0.0150387, 0), (-0.0143354, -0.0151213, -0.003), (-0.0143354, -0.0151213, 0), (-0.0142194, -0.0151989, -0.003), (-0.0142194, -0.0151989, 0), (-0.0141, -0.0152713, -0.003), (-0.0141, -0.0152713, 0), (-0.0139776, -0.0153384, -0.003), (-0.0139776, -0.0153384, 0), (-0.0138524, -0.0154002, -0.003), (-0.0138524, -0.0154002, 0), (-0.0137246, -0.0154564, -0.003), (-0.0137246, -0.0154564, 0), (-0.0135945, -0.015507, -0.003), (-0.0135945, -0.015507, 0), (-0.0134623, -0.0155519, -0.003), (-0.0134623, -0.0155519, 0), (-0.0133282, -0.015591, -0.003), (-0.0133282, -0.015591, 0), (-0.0131926, -0.0156241, -0.003), (-0.0131926, -0.0156241, 0), (-0.0130557, -0.0156514, -0.003), (-0.0130557, -0.0156514, 0), (-0.0129177, -0.0156726, -0.003), (-0.0129177, -0.0156726, 0), (-0.0127789, -0.0156878, -0.003), (-0.0127789, -0.0156878, 0), (-0.0126396, -0.015697, -0.003), (-0.0126396, -0.015697, 0), (-0.0125, -0.0157, -0.003), (-0.0125, -0.0157, 0), (-0.0123604, -0.015697, -0.003), (-0.0123604, -0.015697, 0), (-0.0122211, -0.0156878, -0.003), (-0.0122211, -0.0156878, 0), (-0.0120823, -0.0156726, -0.003), (-0.0120823, -0.0156726, 0), (-0.0119443, -0.0156514, -0.003), (-0.0119443, -0.0156514, 0), (-0.0118074, -0.0156241, -0.003), (-0.0118074, -0.0156241, 0), (-0.0116718, -0.015591, -0.003), (-0.0116718, -0.015591, 0), (-0.0115377, -0.0155519, -0.003), (-0.0115377, -0.0155519, 0), (-0.0114055, -0.015507, -0.003), (-0.0114055, -0.015507, 0), (-0.0112754, -0.0154564, -0.003), (-0.0112754, -0.0154564, 0), (-0.0111476, -0.0154002, -0.003), (-0.0111476, -0.0154002, 0), (-0.0110224, -0.0153384, -0.003), (-0.0110224, -0.0153384, 0), (-0.0109, -0.0152713, -0.003), (-0.0109, -0.0152713, 0), (-0.0107806, -0.0151989, -0.003), (-0.0107806, -0.0151989, 0), (-0.0106646, -0.0151213, -0.003), (-0.0106646, -0.0151213, 0), (-0.010552, -0.0150387, -0.003), (-0.010552, -0.0150387, 0), (-0.0104431, -0.0149513, -0.003), (-0.0104431, -0.0149513, 0), (-0.0103381, -0.0148593, -0.003), (-0.0103381, -0.0148593, 0), (-0.0102373, -0.0147627, -0.003), (-0.0102373, -0.0147627, 0), (-0.0101407, -0.0146619, -0.003), (-0.0101407, -0.0146619, 0), (-0.0100487, -0.0145569, -0.003), (-0.0100487, -0.0145569, 0), (-0.00996127, -0.014448, -0.003), (-0.00996127, -0.014448, 0), (-0.00987871, -0.0143354, -0.003), (-0.00987871, -0.0143354, 0), (-0.00980115, -0.0142194, -0.003), (-0.00980115, -0.0142194, 0), (-0.00972872, -0.0141, -0.003), (-0.00972872, -0.0141, 0), (-0.00966157, -0.0139776, -0.003), (-0.00966157, -0.0139776, 0), (-0.00959982, -0.0138524, -0.003), (-0.00959982, -0.0138524, 0), (-0.00954359, -0.0137246, -0.003), (-0.00954359, -0.0137246, 0), (-0.00949298, -0.0135945, -0.003), (-0.00949298, -0.0135945, 0), (-0.00944811, -0.0134623, -0.003), (-0.00944811, -0.0134623, 0), (-0.00940904, -0.0133282, -0.003), (-0.00940904, -0.0133282, 0), (-0.00937585, -0.0131926, -0.003), (-0.00937585, -0.0131926, 0), (-0.00934862, -0.0130557, -0.003), (-0.00934862, -0.0130557, 0), (-0.00932738, -0.0129177, -0.003), (-0.00932738, -0.0129177, 0), (-0.00931218, -0.0127789, -0.003), (-0.00931218, -0.0127789, 0), (-0.00930305, -0.0126396, -0.003), (-0.00930305, -0.0126396, 0), (-0.00066476985, 0.005049432, 0.025), (-0.00088439015, 0.0050156233, 0.025), (-0.001102329, 0.0049722777, 0.025), (-0.00044388458, 0.0050736186, 0.025), (-0.0002221539, 0.0050881575, 0.025), (5.966218e-18, 0.005093, 0.025), (-0.004705321, -0.0019490077, 0.025), (0.005093, -9.922738e-19, 0.025), (0.0002221539, 0.0050881575, 0.025), (0.00044388458, 0.0050736186, 0.025), (0.00066476985, 0.005049432, 0.025), (0.004171945, 0.0029212243, 0.025), (-0.0013181609, 0.004919458, 0.025), (0.0050156233, 0.00088439015, 0.025), (0.005049432, 0.00066476985, 0.025), (0.0050881575, 0.0002221539, 0.025), (0.0050736186, 0.00044388458, 0.025), (-0.0015314928, 0.0048572775, 0.025), (-0.0017419079, 0.004785855, 0.025), (-0.0019490077, 0.004705321, 0.025), (0.0050881575, -0.0002221539, 0.025), (0.0050736186, -0.00044388458, 0.025), (0.0013181609, 0.004919458, 0.025), (0.0015314928, 0.0048572775, 0.025), (0.0017419079, 0.004785855, 0.025), (0.0019490077, 0.004705321, 0.025), (0.004919458, 0.0013181609, 0.025), (0.0049722777, 0.001102329, 0.025), (-0.0021523943, 0.004615823, 0.025), (0.0050156233, -0.00088439015, 0.025), (0.005049432, -0.00066476985, 0.025), (0.00088439015, 0.0050156233, 0.025), (0.001102329, 0.0049722777, 0.025), (0.0021523943, 0.004615823, 0.025), (0.0023516882, 0.004517547, 0.025), (0.0025465, 0.0044106673, 0.025), (0.002736469, 0.0042953896, 0.025), (0.0029212243, 0.004171945, 0.025), (0.003100424, 0.0040405453, 0.025), (0.0032737155, 0.00390146, 0.025), (0.0034407848, 0.0037549583, 0.025), (0.0036012975, 0.0036012975, 0.025), (0.0048572775, 0.0015314928, 0.025), (0.004785855, 0.0017419079, 0.025), (-0.004785855, -0.0017419079, 0.025), (-0.0048572775, -0.0015314928, 0.025), (-0.004919458, -0.0013181609, 0.025), (0.0037549583, 0.0034407848, 0.025), (0.00390146, 0.0032737155, 0.025), (0.0040405453, 0.003100424, 0.025), (0.0042953896, 0.002736469, 0.025), (0.0044106673, 0.0025465, 0.025), (0.004517547, 0.0023516882, 0.025), (0.004615823, 0.0021523943, 0.025), (0.004705321, 0.0019490077, 0.025), (-0.0049722777, -0.001102329, 0.025), (-0.0050156233, -0.00088439015, 0.025), (-0.005049432, -0.00066476985, 0.025), (-0.0050736186, -0.00044388458, 0.025), (-0.0050881575, -0.0002221539, 0.025), (-0.005093, 1.4449303e-17, 0.025), (-0.0044106673, -0.0025465, 0.025), (-0.0042953896, -0.002736469, 0.025), (-0.004171945, -0.0029212243, 0.025), (-0.004517547, -0.0023516882, 0.025), (-0.004615823, -0.0021523943, 0.025), (-0.0034407848, -0.0037549583, 0.025), (-0.0036012975, -0.0036012975, 0.025), (-0.0050881575, 0.0002221539, 0.025), (-0.0050736186, 0.00044388458, 0.025), (-0.005049432, 0.00066476985, 0.025), (-0.004705321, 0.0019490077, 0.025), (-0.004615823, 0.0021523943, 0.025), (-0.004517547, 0.0023516882, 0.025), (-0.0037549583, -0.0034407848, 0.025), (-0.00390146, -0.0032737155, 0.025), (-0.0040405453, -0.003100424, 0.025), (-0.0025465, -0.0044106673, 0.025), (-0.002736469, -0.0042953896, 0.025), (-0.0029212243, -0.004171945, 0.025), (0.0049722777, -0.001102329, 0.025), (0.004919458, -0.0013181609, 0.025), (0.0048572775, -0.0015314928, 0.025), (0.004785855, -0.0017419079, 0.025), (0.004705321, -0.0019490077, 0.025), (0.004615823, -0.0021523943, 0.025), (-0.0050156233, 0.00088439015, 0.025), (-0.0049722777, 0.001102329, 0.025), (-0.004919458, 0.0013181609, 0.025), (-0.0044106673, 0.0025465, 0.025), (-0.0042953896, 0.002736469, 0.025), (-0.004171945, 0.0029212243, 0.025), (-0.0040405453, 0.003100424, 0.025), (-0.00390146, 0.0032737155, 0.025), (-0.0037549583, 0.0034407848, 0.025), (-0.0023516882, 0.004517547, 0.025), (-0.0025465, 0.0044106673, 0.025), (-0.0032737155, -0.00390146, 0.025), (-0.003100424, -0.0040405453, 0.025), (-0.0048572775, 0.0015314928, 0.025), (-0.004785855, 0.0017419079, 0.025), (-0.003100424, 0.0040405453, 0.025), (0.0023516882, -0.004517547, 0.025), (0.0021523943, -0.004615823, 0.025), (0.0042953896, -0.002736469, 0.025), (0.004171945, -0.0029212243, 0.025), (0.001102329, -0.0049722777, 0.025), (0.00088439015, -0.0050156233, 0.025), (0.00066476985, -0.005049432, 0.025), (0.0044106673, -0.0025465, 0.025), (0.004517547, -0.0023516882, 0.025), (-0.0036012975, 0.0036012975, 0.025), (-0.0034407848, 0.0037549583, 0.025), (-0.0032737155, 0.00390146, 0.025), (-0.0029212243, 0.004171945, 0.025), (-0.002736469, 0.0042953896, 0.025), (0.0015314928, -0.0048572775, 0.025), (0.0013181609, -0.004919458, 0.025), (0.0034407848, -0.0037549583, 0.025), (0.0040405453, -0.003100424, 0.025), (0.00390146, -0.0032737155, 0.025), (0.0037549583, -0.0034407848, 0.025), (-0.0002221539, -0.0050881575, 0.025), (-0.00044388458, -0.0050736186, 0.025), (-0.00066476985, -0.005049432, 0.025), (-0.00088439015, -0.0050156233, 0.025), (-0.001102329, -0.0049722777, 0.025), (-0.0013181609, -0.004919458, 0.025), (-0.0015314928, -0.0048572775, 0.025), (-0.0017419079, -0.004785855, 0.025), (-0.0019490077, -0.004705321, 0.025), (-0.0021523943, -0.004615823, 0.025), (0.0029212243, -0.004171945, 0.025), (0.002736469, -0.0042953896, 0.025), (0.0025465, -0.0044106673, 0.025), (0.00044388458, -0.0050736186, 0.025), (0.0002221539, -0.0050881575, 0.025), (-2.3552995e-17, -0.005093, 0.025), (-0.0023516882, -0.004517547, 0.025), (0.0036012975, -0.0036012975, 0.025), (0.0019490077, -0.004705321, 0.025), (0.0017419079, -0.004785855, 0.025), (0.0032737155, -0.00390146, 0.025), (0.003100424, -0.0040405453, 0.025), (0.0040929997, 2.506244e-19, 0), (0.0040929997, 2.506244e-19, 0.024), (0.0040891073, 0.00017853394, 0), (0.0040891073, 0.00017853394, 0.024), (0.0040774285, 0.00035672865, 0), (0.0040774285, 0.00035672865, 0.024), (0.004057982, 0.00053424377, 0), (0.004057982, 0.00053424377, 0.024), (0.0040308135, 0.0007107421, 0), (0.0040308135, 0.0007107421, 0.024), (0.0039959773, 0.0008858871, 0), (0.0039959773, 0.0008858871, 0.024), (0.0039535384, 0.0010593503, 0), (0.0039535384, 0.0010593503, 0.024), (0.0039035673, 0.0012307925, 0), (0.0039035673, 0.0012307925, 0.024), (0.003846165, 0.0013998878, 0), (0.003846165, 0.0013998878, 0.024), (0.003781441, 0.0015663276, 0), (0.003781441, 0.0015663276, 0.024), (0.0037095125, 0.0017297744, 0), (0.0037095125, 0.0017297744, 0.024), (0.0036305364, 0.0018899384, 0), (0.0036305364, 0.0018899384, 0.024), (0.0035446377, 0.0020464996, 0), (0.0035446377, 0.0020464996, 0.024), (0.003452, 0.002199169, 0), (0.003452, 0.002199169, 0.024), (0.0033527853, 0.0023476444, 0), (0.0033527853, 0.0023476444, 0.024), (0.0032471954, 0.002491664, 0), (0.0032471954, 0.002491664, 0.024), (0.0031354197, 0.0026309257, 0), (0.0031354197, 0.0026309257, 0.024), (0.0030176784, 0.0027651947, 0), (0.0030176784, 0.0027651947, 0.024), (0.0028941876, 0.0028941876, 0), (0.0028941876, 0.0028941876, 0.024), (0.0027651947, 0.0030176784, 0), (0.0027651947, 0.0030176784, 0.024), (0.0026309257, 0.0031354197, 0), (0.0026309257, 0.0031354197, 0.024), (0.002491664, 0.0032471954, 0), (0.002491664, 0.0032471954, 0.024), (0.0023476444, 0.0033527853, 0), (0.0023476444, 0.0033527853, 0.024), (0.002199169, 0.003452, 0), (0.002199169, 0.003452, 0.024), (0.0020464996, 0.0035446377, 0), (0.0020464996, 0.0035446377, 0.024), (0.0018899384, 0.0036305364, 0), (0.0018899384, 0.0036305364, 0.024), (0.0017297744, 0.0037095125, 0), (0.0017297744, 0.0037095125, 0.024), (0.0015663276, 0.003781441, 0), (0.0015663276, 0.003781441, 0.024), (0.0013998878, 0.003846165, 0), (0.0013998878, 0.003846165, 0.024), (0.0012307925, 0.0039035673, 0), (0.0012307925, 0.0039035673, 0.024), (0.0010593503, 0.0039535384, 0), (0.0010593503, 0.0039535384, 0.024), (0.0008858871, 0.0039959773, 0), (0.0008858871, 0.0039959773, 0.024), (0.0007107421, 0.0040308135, 0), (0.0007107421, 0.0040308135, 0.024), (0.00053424377, 0.004057982, 0), (0.00053424377, 0.004057982, 0.024), (0.00035672865, 0.0040774285, 0), (0.00035672865, 0.0040774285, 0.024), (0.00017853394, 0.0040891073, 0), (0.00017853394, 0.0040891073, 0.024), (2.506244e-19, 0.0040929997, 0), (4.7947677e-18, 0.0040929997, 0.024), (-0.00017853394, 0.0040891073, 0), (-0.00017853394, 0.0040891073, 0.024), (-0.00035672865, 0.0040774285, 0), (-0.00035672865, 0.0040774285, 0.024), (-0.00053424377, 0.004057982, 0), (-0.00053424377, 0.004057982, 0.024), (-0.0007107421, 0.0040308135, 0), (-0.0007107421, 0.0040308135, 0.024), (-0.0008858871, 0.0039959773, 0), (-0.0008858871, 0.0039959773, 0.024), (-0.0010593503, 0.0039535384, 0), (-0.0010593503, 0.0039535384, 0.024), (-0.0012307925, 0.0039035673, 0), (-0.0012307925, 0.0039035673, 0.024), (-0.0013998878, 0.003846165, 0), (-0.0013998878, 0.003846165, 0.024), (-0.0015663276, 0.003781441, 0), (-0.0015663276, 0.003781441, 0.024), (-0.0017297744, 0.0037095125, 0), (-0.0017297744, 0.0037095125, 0.024), (-0.0018899384, 0.0036305364, 0), (-0.0018899384, 0.0036305364, 0.024), (-0.0020464996, 0.0035446377, 0), (-0.0020464996, 0.0035446377, 0.024), (-0.002199169, 0.003452, 0), (-0.002199169, 0.003452, 0.024), (-0.0023476444, 0.0033527853, 0), (-0.0023476444, 0.0033527853, 0.024), (-0.002491664, 0.0032471954, 0), (-0.002491664, 0.0032471954, 0.024), (-0.0026309257, 0.0031354197, 0), (-0.0026309257, 0.0031354197, 0.024), (-0.0027651947, 0.0030176784, 0), (-0.0027651947, 0.0030176784, 0.024), (-0.0028941876, 0.0028941876, 0), (-0.0028941876, 0.0028941876, 0.024), (-0.0030176784, 0.0027651947, 0), (-0.0030176784, 0.0027651947, 0.024), (-0.0031354197, 0.0026309257, 0), (-0.0031354197, 0.0026309257, 0.024), (-0.0032471954, 0.002491664, 0), (-0.0032471954, 0.002491664, 0.024), (-0.0033527853, 0.0023476444, 0), (-0.0033527853, 0.0023476444, 0.024), (-0.003452, 0.002199169, 0), (-0.003452, 0.002199169, 0.024), (-0.0035446377, 0.0020464996, 0), (-0.0035446377, 0.0020464996, 0.024), (-0.0036305364, 0.0018899384, 0), (-0.0036305364, 0.0018899384, 0.024), (-0.0037095125, 0.0017297744, 0), (-0.0037095125, 0.0017297744, 0.024), (-0.003781441, 0.0015663276, 0), (-0.003781441, 0.0015663276, 0.024), (-0.003846165, 0.0013998878, 0), (-0.003846165, 0.0013998878, 0.024), (-0.0039035673, 0.0012307925, 0), (-0.0039035673, 0.0012307925, 0.024), (-0.0039535384, 0.0010593503, 0), (-0.0039535384, 0.0010593503, 0.024), (-0.0039959773, 0.0008858871, 0), (-0.0039959773, 0.0008858871, 0.024), (-0.0040308135, 0.0007107421, 0), (-0.0040308135, 0.0007107421, 0.024), (-0.004057982, 0.00053424377, 0), (-0.004057982, 0.00053424377, 0.024), (-0.0040774285, 0.00035672865, 0), (-0.0040774285, 0.00035672865, 0.024), (-0.0040891073, 0.00017853394, 0), (-0.0040891073, 0.00017853394, 0.024), (-0.0040929997, 7.518723e-19, 0), (-0.0040929997, 1.1657773e-17, 0.024), (-0.0040891073, -0.00017853394, 0), (-0.0040891073, -0.00017853394, 0.024), (-0.0040774285, -0.00035672865, 0), (-0.0040774285, -0.00035672865, 0.024), (-0.004057982, -0.00053424377, 0), (-0.004057982, -0.00053424377, 0.024), (-0.0040308135, -0.0007107421, 0), (-0.0040308135, -0.0007107421, 0.024), (-0.0039959773, -0.0008858871, 0), (-0.0039959773, -0.0008858871, 0.024), (-0.0039535384, -0.0010593503, 0), (-0.0039535384, -0.0010593503, 0.024), (-0.0039035673, -0.0012307925, 0), (-0.0039035673, -0.0012307925, 0.024), (-0.003846165, -0.0013998878, 0), (-0.003846165, -0.0013998878, 0.024), (-0.003781441, -0.0015663276, 0), (-0.003781441, -0.0015663276, 0.024), (-0.0037095125, -0.0017297744, 0), (-0.0037095125, -0.0017297744, 0.024), (-0.0036305364, -0.0018899384, 0), (-0.0036305364, -0.0018899384, 0.024), (-0.0035446377, -0.0020464996, 0), (-0.0035446377, -0.0020464996, 0.024), (-0.003452, -0.002199169, 0), (-0.003452, -0.002199169, 0.024), (-0.0033527853, -0.0023476444, 0), (-0.0033527853, -0.0023476444, 0.024), (-0.0032471954, -0.002491664, 0), (-0.0032471954, -0.002491664, 0.024), (-0.0031354197, -0.0026309257, 0), (-0.0031354197, -0.0026309257, 0.024), (-0.0030176784, -0.0027651947, 0), (-0.0030176784, -0.0027651947, 0.024), (-0.0028941876, -0.0028941876, 0), (-0.0028941876, -0.0028941876, 0.024), (-0.0027651947, -0.0030176784, 0), (-0.0027651947, -0.0030176784, 0.024), (-0.0026309257, -0.0031354197, 0), (-0.0026309257, -0.0031354197, 0.024), (-0.002491664, -0.0032471954, 0), (-0.002491664, -0.0032471954, 0.024), (-0.0023476444, -0.0033527853, 0), (-0.0023476444, -0.0033527853, 0.024), (-0.002199169, -0.003452, 0), (-0.002199169, -0.003452, 0.024), (-0.0020464996, -0.0035446377, 0), (-0.0020464996, -0.0035446377, 0.024), (-0.0018899384, -0.0036305364, 0), (-0.0018899384, -0.0036305364, 0.024), (-0.0017297744, -0.0037095125, 0), (-0.0017297744, -0.0037095125, 0.024), (-0.0015663276, -0.003781441, 0), (-0.0015663276, -0.003781441, 0.024), (-0.0013998878, -0.003846165, 0), (-0.0013998878, -0.003846165, 0.024), (-0.0012307925, -0.0039035673, 0), (-0.0012307925, -0.0039035673, 0.024), (-0.0010593503, -0.0039535384, 0), (-0.0010593503, -0.0039535384, 0.024), (-0.0008858871, -0.0039959773, 0), (-0.0008858871, -0.0039959773, 0.024), (-0.0007107421, -0.0040308135, 0), (-0.0007107421, -0.0040308135, 0.024), (-0.00053424377, -0.004057982, 0), (-0.00053424377, -0.004057982, 0.024), (-0.00035672865, -0.0040774285, 0), (-0.00035672865, -0.0040774285, 0.024), (-0.00017853394, -0.0040891073, 0), (-0.00017853394, -0.0040891073, 0.024), (-7.518723e-19, -0.0040929997, 0), (-1.8928488e-17, -0.0040929997, 0.024), (0.00017853394, -0.0040891073, 0), (0.00017853394, -0.0040891073, 0.024), (0.00035672865, -0.0040774285, 0), (0.00035672865, -0.0040774285, 0.024), (0.00053424377, -0.004057982, 0), (0.00053424377, -0.004057982, 0.024), (0.0007107421, -0.0040308135, 0), (0.0007107421, -0.0040308135, 0.024), (0.0008858871, -0.0039959773, 0), (0.0008858871, -0.0039959773, 0.024), (0.0010593503, -0.0039535384, 0), (0.0010593503, -0.0039535384, 0.024), (0.0012307925, -0.0039035673, 0), (0.0012307925, -0.0039035673, 0.024), (0.0013998878, -0.003846165, 0), (0.0013998878, -0.003846165, 0.024), (0.0015663276, -0.003781441, 0), (0.0015663276, -0.003781441, 0.024), (0.0017297744, -0.0037095125, 0), (0.0017297744, -0.0037095125, 0.024), (0.0018899384, -0.0036305364, 0), (0.0018899384, -0.0036305364, 0.024), (0.0020464996, -0.0035446377, 0), (0.0020464996, -0.0035446377, 0.024), (0.002199169, -0.003452, 0), (0.002199169, -0.003452, 0.024), (0.0023476444, -0.0033527853, 0), (0.0023476444, -0.0033527853, 0.024), (0.002491664, -0.0032471954, 0), (0.002491664, -0.0032471954, 0.024), (0.0026309257, -0.0031354197, 0), (0.0026309257, -0.0031354197, 0.024), (0.0027651947, -0.0030176784, 0), (0.0027651947, -0.0030176784, 0.024), (0.0028941876, -0.0028941876, 0), (0.0028941876, -0.0028941876, 0.024), (0.0030176784, -0.0027651947, 0), (0.0030176784, -0.0027651947, 0.024), (0.0031354197, -0.0026309257, 0), (0.0031354197, -0.0026309257, 0.024), (0.0032471954, -0.002491664, 0), (0.0032471954, -0.002491664, 0.024), (0.0033527853, -0.0023476444, 0), (0.0033527853, -0.0023476444, 0.024), (0.003452, -0.002199169, 0), (0.003452, -0.002199169, 0.024), (0.0035446377, -0.0020464996, 0), (0.0035446377, -0.0020464996, 0.024), (0.0036305364, -0.0018899384, 0), (0.0036305364, -0.0018899384, 0.024), (0.0037095125, -0.0017297744, 0), (0.0037095125, -0.0017297744, 0.024), (0.003781441, -0.0015663276, 0), (0.003781441, -0.0015663276, 0.024), (0.003846165, -0.0013998878, 0), (0.003846165, -0.0013998878, 0.024), (0.0039035673, -0.0012307925, 0), (0.0039035673, -0.0012307925, 0.024), (0.0039535384, -0.0010593503, 0), (0.0039535384, -0.0010593503, 0.024), (0.0039959773, -0.0008858871, 0), (0.0039959773, -0.0008858871, 0.024), (0.0040308135, -0.0007107421, 0), (0.0040308135, -0.0007107421, 0.024), (0.004057982, -0.00053424377, 0), (0.004057982, -0.00053424377, 0.024), (0.0040774285, -0.00035672865, 0), (0.0040774285, -0.00035672865, 0.024), (0.0040891073, -0.00017853394, 0), (0.0040891073, -0.00017853394, 0.024), (0, -0.0125, 0), (-0.0125, -3.46945e-18, 0), (0, 0.0125, 0), (0.02, 0.02, 0), (0.02, -3.46945e-18, 0), (0, 0.02, 0), (-0.0133282, 0.00940904, 0), (-0.0134623, 0.00944811, 0), (-0.0148593, 0.0103381, 0), (-0.0149513, 0.0104431, 0), (-0.0150387, 0.010552, 0), (-0.015507, 0.0114055, 0), (-0.0155519, 0.0115377, 0), (-0.02, -3.46945e-18, 0), (-0.0157, 0.0125, 0), (-0.015697, 0.0126396, 0), (-0.02, 0.02, 0), (-0.0156878, 0.0127789, 0), (-0.0156726, 0.0129177, 0), (-0.0156514, 0.0130557, 0), (-0.0156241, 0.0131926, 0), (-0.015591, 0.0133282, 0), (-0.0127789, 0.0156878, 0), (-0.0126396, 0.015697, 0), (-0.015591, 0.0116718, 0), (-0.0156241, 0.0118074, 0), (-0.0156514, 0.0119443, 0), (-0.0156726, 0.0120823, 0), (-0.0156878, 0.0122211, 0), (-0.015697, 0.0123604, 0), (-0.0106646, 0.0151213, 0), (-0.010552, 0.0150387, 0), (-0.0104431, 0.0149513, 0), (-0.0103381, 0.0148593, 0), (-0.0151213, 0.0106646, 0), (-0.0151989, 0.0107806, 0), (-0.0152713, 0.0109, 0), (-0.0153384, 0.0110224, 0), (-0.0155519, 0.0134623, 0), (-0.015507, 0.0135945, 0), (-0.0154564, 0.0137246, 0), (-0.0145569, 0.0100487, 0), (-0.0146619, 0.0101407, 0), (-0.0147627, 0.0102373, 0), (-0.0154002, 0.0111476, 0), (-0.0154564, 0.0112754, 0), (-0.0135945, 0.015507, 0), (-0.0137246, 0.0154564, 0), (-0.0138524, 0.0154002, 0), (-0.0134623, 0.0155519, 0), (-0.0133282, 0.015591, 0), (-0.0131926, 0.0156241, 0), (-0.0102373, 0.0147627, 0), (-0.0101407, 0.0146619, 0), (-0.0100487, 0.0145569, 0), (-0.00959982, 0.0138524, 0), (-0.00954359, 0.0137246, 0), (-0.00949298, 0.0135945, 0), (-0.0093, 0.0125, 0), (-0.00930305, 0.0126396, 0), (-0.00931218, 0.0127789, 0), (-0.0125, 0.0093, 0), (-0.0126396, 0.00930305, 0), (-0.0127789, 0.00931218, 0), (-0.0129177, 0.00932738, 0), (-0.0130557, 0.00934862, 0), (-0.0131926, 0.00937585, 0), (-0.0135945, 0.00949298, 0), (-0.0137246, 0.00954359, 0), (-0.0138524, 0.00959982, 0), (-0.0154002, 0.0138524, 0), (-0.0153384, 0.0139776, 0), (-0.0152713, 0.0141, 0), (-0.0148593, 0.0146619, 0), (-0.0149513, 0.0145569, 0), (-0.0150387, 0.014448, 0), (-0.0147627, 0.0147627, 0), (-0.0146619, 0.0148593, 0), (-0.0145569, 0.0149513, 0), (-0.0130557, 0.0156514, 0), (-0.0129177, 0.0156726, 0), (-0.0116718, 0.015591, 0), (-0.0115377, 0.0155519, 0), (-0.0114055, 0.015507, 0), (-0.00996127, 0.014448, 0), (-0.00987871, 0.0143354, 0), (-0.00980115, 0.0142194, 0), (-0.00944811, 0.0134623, 0), (-0.00940904, 0.0133282, 0), (-0.00937585, 0.0131926, 0), (-0.00934862, 0.0130557, 0), (-0.00932738, 0.0129177, 0), (-0.0139776, 0.00966157, 0), (-0.0141, 0.00972872, 0), (-0.0142194, 0.00980115, 0), (-0.0143354, 0.00987871, 0), (-0.014448, 0.00996127, 0), (-0.014448, 0.0150387, 0), (-0.0143354, 0.0151213, 0), (-0.0142194, 0.0151989, 0), (-0.0120823, 0.0156726, 0), (-0.0119443, 0.0156514, 0), (-0.0118074, 0.0156241, 0), (-0.0112754, 0.0154564, 0), (-0.0111476, 0.0154002, 0), (-0.0110224, 0.0153384, 0), (-0.0109, 0.0152713, 0), (-0.0107806, 0.0151989, 0), (-0.00972872, 0.0141, 0), (-0.00966157, 0.0139776, 0), (-0.0151989, 0.0142194, 0), (-0.0151213, 0.0143354, 0), (-0.0141, 0.0152713, 0), (-0.0139776, 0.0153384, 0), (-0.0125, 0.0157, 0), (-0.0123604, 0.015697, 0), (-0.0122211, 0.0156878, 0), (-0.0123604, 0.00930305, 0), (-0.0122211, 0.00931218, 0), (-0.0120823, 0.00932738, 0), (-0.0119443, 0.00934862, 0), (-0.0118074, 0.00937585, 0), (-0.0116718, 0.00940904, 0), (-0.0115377, 0.00944811, 0), (-0.0114055, 0.00949298, 0), (-0.0112754, 0.00954359, 0), (-0.0111476, 0.00959982, 0), (-0.0110224, 0.00966157, 0), (-0.0109, 0.00972872, 0), (-0.0107806, 0.00980115, 0), (-0.0106646, 0.00987871, 0), (-0.010552, 0.00996127, 0), (-0.0104431, 0.0100487, 0), (-0.0103381, 0.0101407, 0), (-0.0102373, 0.0102373, 0), (-0.0101407, 0.0103381, 0), (-0.0100487, 0.0104431, 0), (-0.00996127, 0.010552, 0), (-0.00987871, 0.0106646, 0), (-0.00980115, 0.0107806, 0), (-0.00972872, 0.0109, 0), (-0.00966157, 0.0110224, 0), (-0.00959982, 0.0111476, 0), (-0.00954359, 0.0112754, 0), (-0.00949298, 0.0114055, 0), (-0.00944811, 0.0115377, 0), (-0.00940904, 0.0116718, 0), (-0.00937585, 0.0118074, 0), (-0.00934862, 0.0119443, 0), (-0.00932738, 0.0120823, 0), (-0.00931218, 0.0122211, 0), (-0.00930305, 0.0123604, 0), (0, -0.02, 0), (-0.02, -0.02, 0), (0.0156241, -0.0118074, 0), (0.0156514, -0.0119443, 0), (0.0151213, -0.0106646, 0), (0.0151989, -0.0107806, 0), (0.0152713, -0.0109, 0), (0.0153384, -0.0110224, 0), (0.0156726, -0.0120823, 0), (0.0156878, -0.0122211, 0), (0.02, -0.02, 0), (0.015697, -0.0123604, 0), (0.0157, -0.0125, 0), (0.0152713, -0.0141, 0), (0.0151989, -0.0142194, 0), (0.0116718, -0.015591, 0), (0.0115377, -0.0155519, 0), (0.0114055, -0.015507, 0), (0.0125, -3.46945e-18, 0), (0.0154002, -0.0111476, 0), (0.0154564, -0.0112754, 0), (0.015507, -0.0114055, 0), (0.0143354, -0.00987871, 0), (0.014448, -0.00996127, 0), (0.0145569, -0.0100487, 0), (0.0127789, -0.0156878, 0), (0.0126396, -0.015697, 0), (0.0112754, -0.0154564, 0), (0.0111476, -0.0154002, 0), (0.0110224, -0.0153384, 0), (0.0155519, -0.0115377, 0), (0.015591, -0.0116718, 0), (0.0146619, -0.0101407, 0), (0.0147627, -0.0102373, 0), (0.0148593, -0.0103381, 0), (0.0145569, -0.0149513, 0), (0.014448, -0.0150387, 0), (0.0109, -0.0152713, 0), (0.0107806, -0.0151989, 0), (0.0106646, -0.0151213, 0), (0.0104431, -0.0149513, 0), (0.0103381, -0.0148593, 0), (0.0102373, -0.0147627, 0), (0.0101407, -0.0146619, 0), (0.0100487, -0.0145569, 0), (0.00996127, -0.014448, 0), (0.00987871, -0.0143354, 0), (0.0149513, -0.0104431, 0), (0.0150387, -0.010552, 0), (0.0156726, -0.0129177, 0), (0.0156514, -0.0130557, 0), (0.0156241, -0.0131926, 0), (0.015591, -0.0133282, 0), (0.0149513, -0.0145569, 0), (0.0148593, -0.0146619, 0), (0.0143354, -0.0151213, 0), (0.0142194, -0.0151989, 0), (0.0141, -0.0152713, 0), (0.0120823, -0.0156726, 0), (0.0119443, -0.0156514, 0), (0.0118074, -0.0156241, 0), (0.010552, -0.0150387, 0), (0.00949298, -0.0135945, 0), (0.00944811, -0.0134623, 0), (0.00940904, -0.0133282, 0), (0.00937585, -0.0131926, 0), (0.00934862, -0.0130557, 0), (0.00932738, -0.0129177, 0), (0.00931218, -0.0127789, 0), (0.015697, -0.0126396, 0), (0.0156878, -0.0127789, 0), (0.0151213, -0.0143354, 0), (0.0150387, -0.014448, 0), (0.0125, -0.0157, 0), (0.0123604, -0.015697, 0), (0.0122211, -0.0156878, 0), (0.0155519, -0.0134623, 0), (0.015507, -0.0135945, 0), (0.0154564, -0.0137246, 0), (0.0154002, -0.0138524, 0), (0.0153384, -0.0139776, 0), (0.0147627, -0.0147627, 0), (0.0146619, -0.0148593, 0), (0.0137246, -0.0154564, 0), (0.0135945, -0.015507, 0), (0.00980115, -0.0142194, 0), (0.00972872, -0.0141, 0), (0.00966157, -0.0139776, 0), (0.0133282, -0.00940904, 0), (0.0134623, -0.00944811, 0), (0.0135945, -0.00949298, 0), (0.0139776, -0.0153384, 0), (0.0138524, -0.0154002, 0), (0.00959982, -0.0138524, 0), (0.00954359, -0.0137246, 0), (0.0126396, -0.00930305, 0), (0.0127789, -0.00931218, 0), (0.0129177, -0.00932738, 0), (0.0137246, -0.00954359, 0), (0.0138524, -0.00959982, 0), (0.0139776, -0.00966157, 0), (0.0141, -0.00972872, 0), (0.0142194, -0.00980115, 0), (0.0134623, -0.0155519, 0), (0.0133282, -0.015591, 0), (0.0131926, -0.0156241, 0), (0.0130557, -0.00934862, 0), (0.0131926, -0.00937585, 0), (0.0130557, -0.0156514, 0), (0.0129177, -0.0156726, 0), (0.00930305, -0.0126396, 0), (0.0093, -0.0125, 0), (0.00930305, -0.0123604, 0), (0.00931218, -0.0122211, 0), (0.00932738, -0.0120823, 0), (0.00934862, -0.0119443, 0), (0.00937585, -0.0118074, 0), (0.00940904, -0.0116718, 0), (0.00944811, -0.0115377, 0), (0.00949298, -0.0114055, 0), (0.00954359, -0.0112754, 0), (0.00959982, -0.0111476, 0), (0.00966157, -0.0110224, 0), (0.00972872, -0.0109, 0), (0.00980115, -0.0107806, 0), (0.00987871, -0.0106646, 0), (0.00996127, -0.010552, 0), (0.0100487, -0.0104431, 0), (0.0101407, -0.0103381, 0), (0.0102373, -0.0102373, 0), (0.0103381, -0.0101407, 0), (0.0104431, -0.0100487, 0), (0.010552, -0.00996127, 0), (0.0106646, -0.00987871, 0), (0.0107806, -0.00980115, 0), (0.0109, -0.00972872, 0), (0.0110224, -0.00966157, 0), (0.0111476, -0.00959982, 0), (0.0112754, -0.00954359, 0), (0.0114055, -0.00949298, 0), (0.0115377, -0.00944811, 0), (0.0116718, -0.00940904, 0), (0.0118074, -0.00937585, 0), (0.0119443, -0.00934862, 0), (0.0120823, -0.00932738, 0), (0.0122211, -0.00931218, 0), (0.0123604, -0.00930305, 0), (0.0125, -0.0093, 0), (-0.0156241, 0.0131926, -0.003), (-0.0156514, 0.0130557, -0.003), (-0.02, 0.02, -0.003), (-0.0156726, 0.0129177, -0.003), (-0.0156878, 0.0127789, -0.003), (-0.015697, 0.0126396, -0.003), (-0.0157, 0.0125, -0.003), (-0.02, -0.02, -0.003), (-0.0122211, 0.00931218, -0.003), (-0.0120823, 0.00932738, -0.003), (0.02, 0.02, -0.003), (-0.00932738, 0.0120823, -0.003), (-0.00931218, 0.0122211, -0.003), (-0.010552, 0.0150387, -0.003), (-0.0106646, 0.0151213, -0.003), (0.015697, -0.0123604, -0.003), (0.0156878, -0.0122211, -0.003), (0.02, -0.02, -0.003), (0.00972872, -0.0109, -0.003), (0.00966157, -0.0110224, -0.003), (0.00940904, -0.0116718, -0.003), (0.0126396, -0.00930305, -0.003), (-0.0123604, 0.015697, -0.003), (-0.0125, 0.0157, -0.003), (-0.015507, 0.0135945, -0.003), (-0.0155519, 0.0134623, -0.003), (-0.015591, 0.0133282, -0.003), (0.0142194, -0.0151989, -0.003), (0.0143354, -0.0151213, -0.003), (0.00954359, -0.0112754, -0.003), (0.00949298, -0.0114055, -0.003), (0.0127789, -0.00931218, -0.003), (-0.015697, 0.0123604, -0.003), (-0.0156878, 0.0122211, -0.003), (-0.0156726, 0.0120823, -0.003), (-0.0111476, 0.00959982, -0.003), (-0.0110224, 0.00966157, -0.003), (-0.0109, 0.00972872, -0.003), (-0.0107806, 0.00980115, -0.003), (-0.0106646, 0.00987871, -0.003), (-0.010552, 0.00996127, -0.003), (-0.0104431, 0.0100487, -0.003), (-0.00966157, 0.0139776, -0.003), (-0.00959982, 0.0138524, -0.003), (-0.00954359, 0.0137246, -0.003), (-0.0137246, 0.0154564, -0.003), (-0.0138524, 0.0154002, -0.003), (-0.0139776, 0.0153384, -0.003), (-0.0153384, 0.0139776, -0.003), (-0.0154002, 0.0138524, -0.003), (-0.0154564, 0.0137246, -0.003), (0.00931218, -0.0127789, -0.003), (0.00996127, -0.014448, -0.003), (0.0100487, -0.0145569, -0.003), (0.0101407, -0.0146619, -0.003), (0.0153384, -0.0110224, -0.003), (0.0154002, -0.0111476, -0.003), (0.0154564, -0.0112754, -0.003), (0.0151213, -0.0106646, -0.003), (0.0150387, -0.010552, -0.003), (-0.0101407, 0.0103381, -0.003), (-0.0100487, 0.0104431, -0.003), (-0.00996127, 0.010552, -0.003), (-0.00940904, 0.0116718, -0.003), (-0.00937585, 0.0118074, -0.003), (-0.00934862, 0.0119443, -0.003), (-0.00987871, 0.0143354, -0.003), (-0.00996127, 0.014448, -0.003), (-0.0100487, 0.0145569, -0.003), (-0.0101407, 0.0146619, -0.003), (-0.0102373, 0.0147627, -0.003), (-0.0103381, 0.0148593, -0.003), (-0.0104431, 0.0149513, -0.003), (-0.0107806, 0.0151989, -0.003), (-0.0109, 0.0152713, -0.003), (-0.0110224, 0.0153384, -0.003), (-0.0111476, 0.0154002, -0.003), (-0.0112754, 0.0154564, -0.003), (-0.0114055, 0.015507, -0.003), (-0.0119443, 0.0156514, -0.003), (-0.0120823, 0.0156726, -0.003), (-0.0122211, 0.0156878, -0.003), (-0.0126396, 0.015697, -0.003), (-0.0127789, 0.0156878, -0.003), (-0.0129177, 0.0156726, -0.003), (-0.0148593, 0.0146619, -0.003), (-0.0147627, 0.0147627, -0.003), (-0.0146619, 0.0148593, -0.003), (0.00937585, -0.0131926, -0.003), (0.00940904, -0.0133282, -0.003), (0.015591, -0.0133282, -0.003), (0.0156241, -0.0131926, -0.003), (0.0149513, -0.0104431, -0.003), (0.0148593, -0.0103381, -0.003), (0.0147627, -0.0102373, -0.003), (0.0146619, -0.0101407, -0.003), (0.0145569, -0.0100487, -0.003), (0.014448, -0.00996127, -0.003), (0.00937585, -0.0118074, -0.003), (0.00934862, -0.0119443, -0.003), (-0.0149513, 0.0104431, -0.003), (-0.0150387, 0.010552, -0.003), (-0.0119443, 0.00934862, -0.003), (-0.0118074, 0.00937585, -0.003), (-0.0116718, 0.00940904, -0.003), (-0.0115377, 0.00944811, -0.003), (-0.0114055, 0.00949298, -0.003), (-0.0112754, 0.00954359, -0.003), (-0.00987871, 0.0106646, -0.003), (-0.00980115, 0.0107806, -0.003), (-0.00972872, 0.0109, -0.003), (-0.00931218, 0.0127789, -0.003), (-0.0115377, 0.0155519, -0.003), (-0.0116718, 0.015591, -0.003), (-0.0118074, 0.0156241, -0.003), (-0.0130557, 0.0156514, -0.003), (-0.0131926, 0.0156241, -0.003), (-0.0133282, 0.015591, -0.003), (-0.0134623, 0.0155519, -0.003), (-0.0135945, 0.015507, -0.003), (-0.0143354, 0.0151213, -0.003), (-0.014448, 0.0150387, -0.003), (-0.0145569, 0.0149513, -0.003), (-0.0149513, 0.0145569, -0.003), (-0.0150387, 0.014448, -0.003), (-0.0151213, 0.0143354, -0.003), (0.00944811, -0.0134623, -0.003), (0.00949298, -0.0135945, -0.003), (0.00954359, -0.0137246, -0.003), (0.0102373, -0.0147627, -0.003), (0.0103381, -0.0148593, -0.003), (0.0104431, -0.0149513, -0.003), (0.0111476, -0.0154002, -0.003), (0.0112754, -0.0154564, -0.003), (0.0114055, -0.015507, -0.003), (0.0119443, -0.0156514, -0.003), (0.0120823, -0.0156726, -0.003), (0.0156726, -0.0120823, -0.003), (0.0156514, -0.0119443, -0.003), (0.0156241, -0.0118074, -0.003), (0.015591, -0.0116718, -0.003), (0.0155519, -0.0115377, -0.003), (0.015507, -0.0114055, -0.003), (0.0114055, -0.00949298, -0.003), (0.0112754, -0.00954359, -0.003), (0.0111476, -0.00959982, -0.003), (0.0103381, -0.0101407, -0.003), (0.0102373, -0.0102373, -0.003), (0.00959982, -0.0111476, -0.003), (0.00931218, -0.0122211, -0.003), (0.00944811, -0.0115377, -0.003), (0.0141, -0.00972872, -0.003), (0.0139776, -0.00966157, -0.003), (0.0135945, -0.00949298, -0.003), (0.0134623, -0.00944811, -0.003), (0.0133282, -0.00940904, -0.003), (0.0131926, -0.00937585, -0.003), (0.0142194, -0.00980115, -0.003), (-0.0156514, 0.0119443, -0.003), (-0.0156241, 0.0118074, -0.003), (-0.015591, 0.0116718, -0.003), (-0.0148593, 0.0103381, -0.003), (-0.0103381, 0.0101407, -0.003), (-0.0102373, 0.0102373, -0.003), (-0.00966157, 0.0110224, -0.003), (-0.00959982, 0.0111476, -0.003), (-0.00954359, 0.0112754, -0.003), (-0.00949298, 0.0114055, -0.003), (-0.00944811, 0.0115377, -0.003), (-0.00934862, 0.0130557, -0.003), (-0.00937585, 0.0131926, -0.003), (-0.00940904, 0.0133282, -0.003), (-0.00972872, 0.0141, -0.003), (-0.00980115, 0.0142194, -0.003), (-0.0141, 0.0152713, -0.003), (-0.0142194, 0.0151989, -0.003), (-0.0151989, 0.0142194, -0.003), (-0.0152713, 0.0141, -0.003), (0.00932738, -0.0129177, -0.003), (0.00934862, -0.0130557, -0.003), (0.00972872, -0.0141, -0.003), (0.00980115, -0.0142194, -0.003), (0.00987871, -0.0143354, -0.003), (0.0115377, -0.0155519, -0.003), (0.0116718, -0.015591, -0.003), (0.0118074, -0.0156241, -0.003), (0.0122211, -0.0156878, -0.003), (0.0123604, -0.015697, -0.003), (0.0125, -0.0157, -0.003), (0.0133282, -0.015591, -0.003), (0.0134623, -0.0155519, -0.003), (0.0149513, -0.0145569, -0.003), (0.0150387, -0.014448, -0.003), (0.0156514, -0.0130557, -0.003), (0.0156726, -0.0129177, -0.003), (0.0156878, -0.0127789, -0.003), (0.0152713, -0.0109, -0.003), (0.0151989, -0.0107806, -0.003), (0.0125, -0.0093, -0.003), (0.0123604, -0.00930305, -0.003), (0.0122211, -0.00931218, -0.003), (0.0120823, -0.00932738, -0.003), (0.0101407, -0.0103381, -0.003), (0.0100487, -0.0104431, -0.003), (0.00996127, -0.010552, -0.003), (0.00932738, -0.0120823, -0.003), (0.0138524, -0.00959982, -0.003), (0.0137246, -0.00954359, -0.003), (-0.0155519, 0.0115377, -0.003), (-0.015507, 0.0114055, -0.003), (-0.0154564, 0.0112754, -0.003), (-0.0154002, 0.0111476, -0.003), (-0.0153384, 0.0110224, -0.003), (-0.0152713, 0.0109, -0.003), (-0.0151989, 0.0107806, -0.003), (-0.0151213, 0.0106646, -0.003), (-0.0138524, 0.00959982, -0.003), (-0.0137246, 0.00954359, -0.003), (-0.0123604, 0.00930305, -0.003), (-0.0125, 0.0093, -0.003), (-0.0126396, 0.00930305, -0.003), (-0.00930305, 0.0123604, -0.003), (-0.0093, 0.0125, -0.003), (-0.00932738, 0.0129177, -0.003), (0.00930305, -0.0123604, -0.003), (0.0093, -0.0125, -0.003), (0.00930305, -0.0126396, -0.003), (0.00959982, -0.0138524, -0.003), (0.00966157, -0.0139776, -0.003), (0.010552, -0.0150387, -0.003), (0.0106646, -0.0151213, -0.003), (0.0107806, -0.0151989, -0.003), (0.0109, -0.0152713, -0.003), (0.0110224, -0.0153384, -0.003), (0.014448, -0.0150387, -0.003), (0.0145569, -0.0149513, -0.003), (0.0146619, -0.0148593, -0.003), (0.0151213, -0.0143354, -0.003), (0.0151989, -0.0142194, -0.003), (0.0152713, -0.0141, -0.003), (0.015697, -0.0126396, -0.003), (0.0157, -0.0125, -0.003), (0.0119443, -0.00934862, -0.003), (0.0118074, -0.00937585, -0.003), (0.0116718, -0.00940904, -0.003), (0.0115377, -0.00944811, -0.003), (0.0106646, -0.00987871, -0.003), (0.010552, -0.00996127, -0.003), (0.0104431, -0.0100487, -0.003), (0.0130557, -0.00934862, -0.003), (0.0129177, -0.00932738, -0.003), (0.0143354, -0.00987871, -0.003), (-0.0147627, 0.0102373, -0.003), (-0.0146619, 0.0101407, -0.003), (-0.0145569, 0.0100487, -0.003), (-0.0134623, 0.00944811, -0.003), (-0.0135945, 0.00949298, -0.003), (-0.0133282, 0.00940904, -0.003), (-0.00944811, 0.0134623, -0.003), (-0.00949298, 0.0135945, -0.003), (0.0135945, -0.015507, -0.003), (0.0137246, -0.0154564, -0.003), (0.0138524, -0.0154002, -0.003), (0.0147627, -0.0147627, -0.003), (0.0148593, -0.0146619, -0.003), (0.0153384, -0.0139776, -0.003), (0.0154002, -0.0138524, -0.003), (0.0154564, -0.0137246, -0.003), (0.015507, -0.0135945, -0.003), (0.0155519, -0.0134623, -0.003), (0.00987871, -0.0106646, -0.003), (0.00980115, -0.0107806, -0.003), (-0.0131926, 0.00937585, -0.003), (-0.0130557, 0.00934862, -0.003), (-0.0129177, 0.00932738, -0.003), (-0.0127789, 0.00931218, -0.003), (0.0126396, -0.015697, -0.003), (0.0127789, -0.0156878, -0.003), (0.0129177, -0.0156726, -0.003), (0.0139776, -0.0153384, -0.003), (0.0141, -0.0152713, -0.003), (-0.014448, 0.00996127, -0.003), (-0.0143354, 0.00987871, -0.003), (-0.0142194, 0.00980115, -0.003), (-0.0141, 0.00972872, -0.003), (-0.0139776, 0.00966157, -0.003), (-0.00930305, 0.0126396, -0.003), (0.0110224, -0.00966157, -0.003), (0.0109, -0.00972872, -0.003), (0.0107806, -0.00980115, -0.003), (0.0130557, -0.0156514, -0.003), (0.0131926, -0.0156241, -0.003), (0, 2.75546e-19, 0)]
            }
        }
    }
}

