#usda 1.0
(
    defaultPrim = "Root"
    metersPerUnit = 1
    upAxis = "Z"
)

def Xform "Root" (
    prepend references = @https://omniverse-content-production.s3-us-west-2.amazonaws.com/Assets/Isaac/5.1/Isaac/IsaacLab/Factory/factory_hole_8mm.usd@
)
{
    over "forge_hole_8mm"
    {
        over "forge_hole_8mm"
        {
            over "mesh"
            {
                uchar[] physxCookedData:convexHull:buffer = None
                uchar[] physxCookedData:triangleMesh:buffer = None
                point3f[] points = [(-0.0125, 0.007, 0), (-0.0125, 0.007, 0.025), (-0.0122601, 0.00700523, 0), (-0.0122601, 0.00700523, 0.025), (-0.0120206, 0.00702093, 0), (-0.0120206, 0.00702093, 0.025), (-0.0117821, 0.00704705, 0), (-0.0117821, 0.00704705, 0.025), (-0.0115449, 0.00708356, 0), (-0.0115449, 0.00708356, 0.025), (-0.0113096, 0.00713037, 0), (-0.0113096, 0.00713037, 0.025), (-0.0110765, 0.00718741, 0), (-0.0110765, 0.00718741, 0.025), (-0.0108461, 0.00725456, 0), (-0.0108461, 0.00725456, 0.025), (-0.0106189, 0.00733169, 0), (-0.0106189, 0.00733169, 0.025), (-0.0103952, 0.00741866, 0), (-0.0103952, 0.00741866, 0.025), (-0.0101756, 0.00751531, 0), (-0.0101756, 0.00751531, 0.025), (-0.00996038, 0.00762144, 0), (-0.00996038, 0.00762144, 0.025), (-0.00975, 0.00773686, 0), (-0.00975, 0.00773686, 0.025), (-0.00954485, 0.00786135, 0), (-0.00954485, 0.00786135, 0.025), (-0.00934533, 0.00799466, 0), (-0.00934533, 0.00799466, 0.025), (-0.00915181, 0.00813656, 0), (-0.00915181, 0.00813656, 0.025), (-0.00896467, 0.00828676, 0), (-0.00896467, 0.00828676, 0.025), (-0.00878425, 0.00844497, 0), (-0.00878425, 0.00844497, 0.025), (-0.00861091, 0.00861091, 0), (-0.00861091, 0.00861091, 0.025), (-0.00844497, 0.00878425, 0), (-0.00844497, 0.00878425, 0.025), (-0.00828676, 0.00896467, 0), (-0.00828676, 0.00896467, 0.025), (-0.00813656, 0.00915181, 0), (-0.00813656, 0.00915181, 0.025), (-0.00799466, 0.00934533, 0), (-0.00799466, 0.00934533, 0.025), (-0.00786135, 0.00954485, 0), (-0.00786135, 0.00954485, 0.025), (-0.00773686, 0.00975, 0), (-0.00773686, 0.00975, 0.025), (-0.00762144, 0.00996038, 0), (-0.00762144, 0.00996038, 0.025), (-0.00751531, 0.0101756, 0), (-0.00751531, 0.0101756, 0.025), (-0.00741866, 0.0103952, 0), (-0.00741866, 0.0103952, 0.025), (-0.00733169, 0.0106189, 0), (-0.00733169, 0.0106189, 0.025), (-0.00725456, 0.0108461, 0), (-0.00725456, 0.0108461, 0.025), (-0.00718741, 0.0110765, 0), (-0.00718741, 0.0110765, 0.025), (-0.00713037, 0.0113096, 0), (-0.00713037, 0.0113096, 0.025), (-0.00708356, 0.0115449, 0), (-0.00708356, 0.0115449, 0.025), (-0.00704705, 0.0117821, 0), (-0.00704705, 0.0117821, 0.025), (-0.00702093, 0.0120206, 0), (-0.00702093, 0.0120206, 0.025), (-0.00700523, 0.0122601, 0), (-0.00700523, 0.0122601, 0.025), (-0.007, 0.0125, 0), (-0.007, 0.0125, 0.025), (0.0125, -0.007, 0), (0.0125, -0.007, 0.025), (0.0122601, -0.00700523, 0), (0.0122601, -0.00700523, 0.025), (0.0120206, -0.00702093, 0), (0.0120206, -0.00702093, 0.025), (0.0117821, -0.00704705, 0), (0.0117821, -0.00704705, 0.025), (0.0115449, -0.00708356, 0), (0.0115449, -0.00708356, 0.025), (0.0113096, -0.00713037, 0), (0.0113096, -0.00713037, 0.025), (0.0110765, -0.00718741, 0), (0.0110765, -0.00718741, 0.025), (0.0108461, -0.00725456, 0), (0.0108461, -0.00725456, 0.025), (0.0106189, -0.00733169, 0), (0.0106189, -0.00733169, 0.025), (0.0103952, -0.00741866, 0), (0.0103952, -0.00741866, 0.025), (0.0101756, -0.00751531, 0), (0.0101756, -0.00751531, 0.025), (0.00996038, -0.00762144, 0), (0.00996038, -0.00762144, 0.025), (0.00975, -0.00773686, 0), (0.00975, -0.00773686, 0.025), (0.00954485, -0.00786135, 0), (0.00954485, -0.00786135, 0.025), (0.00934533, -0.00799466, 0), (0.00934533, -0.00799466, 0.025), (0.00915181, -0.00813656, 0), (0.00915181, -0.00813656, 0.025), (0.00896467, -0.00828676, 0), (0.00896467, -0.00828676, 0.025), (0.00878425, -0.00844497, 0), (0.00878425, -0.00844497, 0.025), (0.00861091, -0.00861091, 0), (0.00861091, -0.00861091, 0.025), (0.00844497, -0.00878425, 0), (0.00844497, -0.00878425, 0.025), (0.00828676, -0.00896467, 0), (0.00828676, -0.00896467, 0.025), (0.00813656, -0.00915181, 0), (0.00813656, -0.00915181, 0.025), (0.00799466, -0.00934533, 0), (0.00799466, -0.00934533, 0.025), (0.00786135, -0.00954485, 0), (0.00786135, -0.00954485, 0.025), (0.00773686, -0.00975, 0), (0.00773686, -0.00975, 0.025), (0.00762144, -0.00996038, 0), (0.00762144, -0.00996038, 0.025), (0.00751531, -0.0101756, 0), (0.00751531, -0.0101756, 0.025), (0.00741866, -0.0103952, 0), (0.00741866, -0.0103952, 0.025), (0.00733169, -0.0106189, 0), (0.00733169, -0.0106189, 0.025), (0.00725456, -0.0108461, 0), (0.00725456, -0.0108461, 0.025), (0.00718741, -0.0110765, 0), (0.00718741, -0.0110765, 0.025), (0.00713037, -0.0113096, 0), (0.00713037, -0.0113096, 0.025), (0.00708356, -0.0115449, 0), (0.00708356, -0.0115449, 0.025), (0.00704705, -0.0117821, 0), (0.00704705, -0.0117821, 0.025), (0.00702093, -0.0120206, 0), (0.00702093, -0.0120206, 0.025), (0.00700523, -0.0122601, 0), (0.00700523, -0.0122601, 0.025), (0.007, -0.0125, 0), (0.007, -0.0125, 0.025), (-0.007, -0.0125, 0), (-0.007, -0.0125, 0.025), (-0.00700523, -0.0122601, 0), (-0.00700523, -0.0122601, 0.025), (-0.00702093, -0.0120206, 0), (-0.00702093, -0.0120206, 0.025), (-0.00704705, -0.0117821, 0), (-0.00704705, -0.0117821, 0.025), (-0.00708356, -0.0115449, 0), (-0.00708356, -0.0115449, 0.025), (-0.00713037, -0.0113096, 0), (-0.00713037, -0.0113096, 0.025), (-0.00718741, -0.0110765, 0), (-0.00718741, -0.0110765, 0.025), (-0.00725456, -0.0108461, 0), (-0.00725456, -0.0108461, 0.025), (-0.00733169, -0.0106189, 0), (-0.00733169, -0.0106189, 0.025), (-0.00741866, -0.0103952, 0), (-0.00741866, -0.0103952, 0.025), (-0.00751531, -0.0101756, 0), (-0.00751531, -0.0101756, 0.025), (-0.00762144, -0.00996038, 0), (-0.00762144, -0.00996038, 0.025), (-0.00773686, -0.00975, 0), (-0.00773686, -0.00975, 0.025), (-0.00786135, -0.00954485, 0), (-0.00786135, -0.00954485, 0.025), (-0.00799466, -0.00934533, 0), (-0.00799466, -0.00934533, 0.025), (-0.00813656, -0.00915181, 0), (-0.00813656, -0.00915181, 0.025), (-0.00828676, -0.00896467, 0), (-0.00828676, -0.00896467, 0.025), (-0.00844497, -0.00878425, 0), (-0.00844497, -0.00878425, 0.025), (-0.00861091, -0.00861091, 0), (-0.00861091, -0.00861091, 0.025), (-0.00878425, -0.00844497, 0), (-0.00878425, -0.00844497, 0.025), (-0.00896467, -0.00828676, 0), (-0.00896467, -0.00828676, 0.025), (-0.00915181, -0.00813656, 0), (-0.00915181, -0.00813656, 0.025), (-0.00934533, -0.00799466, 0), (-0.00934533, -0.00799466, 0.025), (-0.00954485, -0.00786135, 0), (-0.00954485, -0.00786135, 0.025), (-0.00975, -0.00773686, 0), (-0.00975, -0.00773686, 0.025), (-0.00996038, -0.00762144, 0), (-0.00996038, -0.00762144, 0.025), (-0.0101756, -0.00751531, 0), (-0.0101756, -0.00751531, 0.025), (-0.0103952, -0.00741866, 0), (-0.0103952, -0.00741866, 0.025), (-0.0106189, -0.00733169, 0), (-0.0106189, -0.00733169, 0.025), (-0.0108461, -0.00725456, 0), (-0.0108461, -0.00725456, 0.025), (-0.0110765, -0.00718741, 0), (-0.0110765, -0.00718741, 0.025), (-0.0113096, -0.00713037, 0), (-0.0113096, -0.00713037, 0.025), (-0.0115449, -0.00708356, 0), (-0.0115449, -0.00708356, 0.025), (-0.0117821, -0.00704705, 0), (-0.0117821, -0.00704705, 0.025), (-0.0120206, -0.00702093, 0), (-0.0120206, -0.00702093, 0.025), (-0.0122601, -0.00700523, 0), (-0.0122601, -0.00700523, 0.025), (-0.0125, -0.007, 0), (-0.0125, -0.007, 0.025), (0.007, 0.0125, 0), (0.007, 0.0125, 0.025), (0.00700523, 0.0122601, 0), (0.00700523, 0.0122601, 0.025), (0.00702093, 0.0120206, 0), (0.00702093, 0.0120206, 0.025), (0.00704705, 0.0117821, 0), (0.00704705, 0.0117821, 0.025), (0.00708356, 0.0115449, 0), (0.00708356, 0.0115449, 0.025), (0.00713037, 0.0113096, 0), (0.00713037, 0.0113096, 0.025), (0.00718741, 0.0110765, 0), (0.00718741, 0.0110765, 0.025), (0.00725456, 0.0108461, 0), (0.00725456, 0.0108461, 0.025), (0.00733169, 0.0106189, 0), (0.00733169, 0.0106189, 0.025), (0.00741866, 0.0103952, 0), (0.00741866, 0.0103952, 0.025), (0.00751531, 0.0101756, 0), (0.00751531, 0.0101756, 0.025), (0.00762144, 0.00996038, 0), (0.00762144, 0.00996038, 0.025), (0.00773686, 0.00975, 0), (0.00773686, 0.00975, 0.025), (0.00786135, 0.00954485, 0), (0.00786135, 0.00954485, 0.025), (0.00799466, 0.00934533, 0), (0.00799466, 0.00934533, 0.025), (0.00813656, 0.00915181, 0), (0.00813656, 0.00915181, 0.025), (0.00828676, 0.00896467, 0), (0.00828676, 0.00896467, 0.025), (0.00844497, 0.00878425, 0), (0.00844497, 0.00878425, 0.025), (0.00861091, 0.00861091, 0), (0.00861091, 0.00861091, 0.025), (0.00878425, 0.00844497, 0), (0.00878425, 0.00844497, 0.025), (0.00896467, 0.00828676, 0), (0.00896467, 0.00828676, 0.025), (0.00915181, 0.00813656, 0), (0.00915181, 0.00813656, 0.025), (0.00934533, 0.00799466, 0), (0.00934533, 0.00799466, 0.025), (0.00954485, 0.00786135, 0), (0.00954485, 0.00786135, 0.025), (0.00975, 0.00773686, 0), (0.00975, 0.00773686, 0.025), (0.00996038, 0.00762144, 0), (0.00996038, 0.00762144, 0.025), (0.0101756, 0.00751531, 0), (0.0101756, 0.00751531, 0.025), (0.0103952, 0.00741866, 0), (0.0103952, 0.00741866, 0.025), (0.0106189, 0.00733169, 0), (0.0106189, 0.00733169, 0.025), (0.0108461, 0.00725456, 0), (0.0108461, 0.00725456, 0.025), (0.0110765, 0.00718741, 0), (0.0110765, 0.00718741, 0.025), (0.0113096, 0.00713037, 0), (0.0113096, 0.00713037, 0.025), (0.0115449, 0.00708356, 0), (0.0115449, 0.00708356, 0.025), (0.0117821, 0.00704705, 0), (0.0117821, 0.00704705, 0.025), (0.0120206, 0.00702093, 0), (0.0120206, 0.00702093, 0.025), (0.0122601, 0.00700523, 0), (0.0122601, 0.00700523, 0.025), (0.0125, 0.007, 0), (0.0125, 0.007, 0.025), (0.0157, 0.0125, -0.003), (0.0157, 0.0125, 0), (0.015697, 0.0126396, -0.003), (0.015697, 0.0126396, 0), (0.0156878, 0.0127789, -0.003), (0.0156878, 0.0127789, 0), (0.0156726, 0.0129177, -0.003), (0.0156726, 0.0129177, 0), (0.0156514, 0.0130557, -0.003), (0.0156514, 0.0130557, 0), (0.0156241, 0.0131926, -0.003), (0.0156241, 0.0131926, 0), (0.015591, 0.0133282, -0.003), (0.015591, 0.0133282, 0), (0.0155519, 0.0134623, -0.003), (0.0155519, 0.0134623, 0), (0.015507, 0.0135945, -0.003), (0.015507, 0.0135945, 0), (0.0154564, 0.0137246, -0.003), (0.0154564, 0.0137246, 0), (0.0154002, 0.0138524, -0.003), (0.0154002, 0.0138524, 0), (0.0153384, 0.0139776, -0.003), (0.0153384, 0.0139776, 0), (0.0152713, 0.0141, -0.003), (0.0152713, 0.0141, 0), (0.0151989, 0.0142194, -0.003), (0.0151989, 0.0142194, 0), (0.0151213, 0.0143354, -0.003), (0.0151213, 0.0143354, 0), (0.0150387, 0.014448, -0.003), (0.0150387, 0.014448, 0), (0.0149513, 0.0145569, -0.003), (0.0149513, 0.0145569, 0), (0.0148593, 0.0146619, -0.003), (0.0148593, 0.0146619, 0), (0.0147627, 0.0147627, -0.003), (0.0147627, 0.0147627, 0), (0.0146619, 0.0148593, -0.003), (0.0146619, 0.0148593, 0), (0.0145569, 0.0149513, -0.003), (0.0145569, 0.0149513, 0), (0.014448, 0.0150387, -0.003), (0.014448, 0.0150387, 0), (0.0143354, 0.0151213, -0.003), (0.0143354, 0.0151213, 0), (0.0142194, 0.0151989, -0.003), (0.0142194, 0.0151989, 0), (0.0141, 0.0152713, -0.003), (0.0141, 0.0152713, 0), (0.0139776, 0.0153384, -0.003), (0.0139776, 0.0153384, 0), (0.0138524, 0.0154002, -0.003), (0.0138524, 0.0154002, 0), (0.0137246, 0.0154564, -0.003), (0.0137246, 0.0154564, 0), (0.0135945, 0.015507, -0.003), (0.0135945, 0.015507, 0), (0.0134623, 0.0155519, -0.003), (0.0134623, 0.0155519, 0), (0.0133282, 0.015591, -0.003), (0.0133282, 0.015591, 0), (0.0131926, 0.0156241, -0.003), (0.0131926, 0.0156241, 0), (0.0130557, 0.0156514, -0.003), (0.0130557, 0.0156514, 0), (0.0129177, 0.0156726, -0.003), (0.0129177, 0.0156726, 0), (0.0127789, 0.0156878, -0.003), (0.0127789, 0.0156878, 0), (0.0126396, 0.015697, -0.003), (0.0126396, 0.015697, 0), (0.0125, 0.0157, -0.003), (0.0125, 0.0157, 0), (0.0123604, 0.015697, -0.003), (0.0123604, 0.015697, 0), (0.0122211, 0.0156878, -0.003), (0.0122211, 0.0156878, 0), (0.0120823, 0.0156726, -0.003), (0.0120823, 0.0156726, 0), (0.0119443, 0.0156514, -0.003), (0.0119443, 0.0156514, 0), (0.0118074, 0.0156241, -0.003), (0.0118074, 0.0156241, 0), (0.0116718, 0.015591, -0.003), (0.0116718, 0.015591, 0), (0.0115377, 0.0155519, -0.003), (0.0115377, 0.0155519, 0), (0.0114055, 0.015507, -0.003), (0.0114055, 0.015507, 0), (0.0112754, 0.0154564, -0.003), (0.0112754, 0.0154564, 0), (0.0111476, 0.0154002, -0.003), (0.0111476, 0.0154002, 0), (0.0110224, 0.0153384, -0.003), (0.0110224, 0.0153384, 0), (0.0109, 0.0152713, -0.003), (0.0109, 0.0152713, 0), (0.0107806, 0.0151989, -0.003), (0.0107806, 0.0151989, 0), (0.0106646, 0.0151213, -0.003), (0.0106646, 0.0151213, 0), (0.010552, 0.0150387, -0.003), (0.010552, 0.0150387, 0), (0.0104431, 0.0149513, -0.003), (0.0104431, 0.0149513, 0), (0.0103381, 0.0148593, -0.003), (0.0103381, 0.0148593, 0), (0.0102373, 0.0147627, -0.003), (0.0102373, 0.0147627, 0), (0.0101407, 0.0146619, -0.003), (0.0101407, 0.0146619, 0), (0.0100487, 0.0145569, -0.003), (0.0100487, 0.0145569, 0), (0.00996127, 0.014448, -0.003), (0.00996127, 0.014448, 0), (0.00987871, 0.0143354, -0.003), (0.00987871, 0.0143354, 0), (0.00980115, 0.0142194, -0.003), (0.00980115, 0.0142194, 0), (0.00972872, 0.0141, -0.003), (0.00972872, 0.0141, 0), (0.00966157, 0.0139776, -0.003), (0.00966157, 0.0139776, 0), (0.00959982, 0.0138524, -0.003), (0.00959982, 0.0138524, 0), (0.00954359, 0.0137246, -0.003), (0.00954359, 0.0137246, 0), (0.00949298, 0.0135945, -0.003), (0.00949298, 0.0135945, 0), (0.00944811, 0.0134623, -0.003), (0.00944811, 0.0134623, 0), (0.00940904, 0.0133282, -0.003), (0.00940904, 0.0133282, 0), (0.00937585, 0.0131926, -0.003), (0.00937585, 0.0131926, 0), (0.00934862, 0.0130557, -0.003), (0.00934862, 0.0130557, 0), (0.00932738, 0.0129177, -0.003), (0.00932738, 0.0129177, 0), (0.00931218, 0.0127789, -0.003), (0.00931218, 0.0127789, 0), (0.00930305, 0.0126396, -0.003), (0.00930305, 0.0126396, 0), (0.0093, 0.0125, -0.003), (0.0093, 0.0125, 0), (0.00930305, 0.0123604, -0.003), (0.00930305, 0.0123604, 0), (0.00931218, 0.0122211, -0.003), (0.00931218, 0.0122211, 0), (0.00932738, 0.0120823, -0.003), (0.00932738, 0.0120823, 0), (0.00934862, 0.0119443, -0.003), (0.00934862, 0.0119443, 0), (0.00937585, 0.0118074, -0.003), (0.00937585, 0.0118074, 0), (0.00940904, 0.0116718, -0.003), (0.00940904, 0.0116718, 0), (0.00944811, 0.0115377, -0.003), (0.00944811, 0.0115377, 0), (0.00949298, 0.0114055, -0.003), (0.00949298, 0.0114055, 0), (0.00954359, 0.0112754, -0.003), (0.00954359, 0.0112754, 0), (0.00959982, 0.0111476, -0.003), (0.00959982, 0.0111476, 0), (0.00966157, 0.0110224, -0.003), (0.00966157, 0.0110224, 0), (0.00972872, 0.0109, -0.003), (0.00972872, 0.0109, 0), (0.00980115, 0.0107806, -0.003), (0.00980115, 0.0107806, 0), (0.00987871, 0.0106646, -0.003), (0.00987871, 0.0106646, 0), (0.00996127, 0.010552, -0.003), (0.00996127, 0.010552, 0), (0.0100487, 0.0104431, -0.003), (0.0100487, 0.0104431, 0), (0.0101407, 0.0103381, -0.003), (0.0101407, 0.0103381, 0), (0.0102373, 0.0102373, -0.003), (0.0102373, 0.0102373, 0), (0.0103381, 0.0101407, -0.003), (0.0103381, 0.0101407, 0), (0.0104431, 0.0100487, -0.003), (0.0104431, 0.0100487, 0), (0.010552, 0.00996127, -0.003), (0.010552, 0.00996127, 0), (0.0106646, 0.00987871, -0.003), (0.0106646, 0.00987871, 0), (0.0107806, 0.00980115, -0.003), (0.0107806, 0.00980115, 0), (0.0109, 0.00972872, -0.003), (0.0109, 0.00972872, 0), (0.0110224, 0.00966157, -0.003), (0.0110224, 0.00966157, 0), (0.0111476, 0.00959982, -0.003), (0.0111476, 0.00959982, 0), (0.0112754, 0.00954359, -0.003), (0.0112754, 0.00954359, 0), (0.0114055, 0.00949298, -0.003), (0.0114055, 0.00949298, 0), (0.0115377, 0.00944811, -0.003), (0.0115377, 0.00944811, 0), (0.0116718, 0.00940904, -0.003), (0.0116718, 0.00940904, 0), (0.0118074, 0.00937585, -0.003), (0.0118074, 0.00937585, 0), (0.0119443, 0.00934862, -0.003), (0.0119443, 0.00934862, 0), (0.0120823, 0.00932738, -0.003), (0.0120823, 0.00932738, 0), (0.0122211, 0.00931218, -0.003), (0.0122211, 0.00931218, 0), (0.0123604, 0.00930305, -0.003), (0.0123604, 0.00930305, 0), (0.0125, 0.0093, -0.003), (0.0125, 0.0093, 0), (0.0126396, 0.00930305, -0.003), (0.0126396, 0.00930305, 0), (0.0127789, 0.00931218, -0.003), (0.0127789, 0.00931218, 0), (0.0129177, 0.00932738, -0.003), (0.0129177, 0.00932738, 0), (0.0130557, 0.00934862, -0.003), (0.0130557, 0.00934862, 0), (0.0131926, 0.00937585, -0.003), (0.0131926, 0.00937585, 0), (0.0133282, 0.00940904, -0.003), (0.0133282, 0.00940904, 0), (0.0134623, 0.00944811, -0.003), (0.0134623, 0.00944811, 0), (0.0135945, 0.00949298, -0.003), (0.0135945, 0.00949298, 0), (0.0137246, 0.00954359, -0.003), (0.0137246, 0.00954359, 0), (0.0138524, 0.00959982, -0.003), (0.0138524, 0.00959982, 0), (0.0139776, 0.00966157, -0.003), (0.0139776, 0.00966157, 0), (0.0141, 0.00972872, -0.003), (0.0141, 0.00972872, 0), (0.0142194, 0.00980115, -0.003), (0.0142194, 0.00980115, 0), (0.0143354, 0.00987871, -0.003), (0.0143354, 0.00987871, 0), (0.014448, 0.00996127, -0.003), (0.014448, 0.00996127, 0), (0.0145569, 0.0100487, -0.003), (0.0145569, 0.0100487, 0), (0.0146619, 0.0101407, -0.003), (0.0146619, 0.0101407, 0), (0.0147627, 0.0102373, -0.003), (0.0147627, 0.0102373, 0), (0.0148593, 0.0103381, -0.003), (0.0148593, 0.0103381, 0), (0.0149513, 0.0104431, -0.003), (0.0149513, 0.0104431, 0), (0.0150387, 0.010552, -0.003), (0.0150387, 0.010552, 0), (0.0151213, 0.0106646, -0.003), (0.0151213, 0.0106646, 0), (0.0151989, 0.0107806, -0.003), (0.0151989, 0.0107806, 0), (0.0152713, 0.0109, -0.003), (0.0152713, 0.0109, 0), (0.0153384, 0.0110224, -0.003), (0.0153384, 0.0110224, 0), (0.0154002, 0.0111476, -0.003), (0.0154002, 0.0111476, 0), (0.0154564, 0.0112754, -0.003), (0.0154564, 0.0112754, 0), (0.015507, 0.0114055, -0.003), (0.015507, 0.0114055, 0), (0.0155519, 0.0115377, -0.003), (0.0155519, 0.0115377, 0), (0.015591, 0.0116718, -0.003), (0.015591, 0.0116718, 0), (0.0156241, 0.0118074, -0.003), (0.0156241, 0.0118074, 0), (0.0156514, 0.0119443, -0.003), (0.0156514, 0.0119443, 0), (0.0156726, 0.0120823, -0.003), (0.0156726, 0.0120823, 0), (0.0156878, 0.0122211, -0.003), (0.0156878, 0.0122211, 0), (0.015697, 0.0123604, -0.003), (0.015697, 0.0123604, 0), (-0.0093, -0.0125, -0.003), (-0.0093, -0.0125, 0), (-0.00930305, -0.0123604, -0.003), (-0.00930305, -0.0123604, 0), (-0.00931218, -0.0122211, -0.003), (-0.00931218, -0.0122211, 0), (-0.00932738, -0.0120823, -0.003), (-0.00932738, -0.0120823, 0), (-0.00934862, -0.0119443, -0.003), (-0.00934862, -0.0119443, 0), (-0.00937585, -0.0118074, -0.003), (-0.00937585, -0.0118074, 0), (-0.00940904, -0.0116718, -0.003), (-0.00940904, -0.0116718, 0), (-0.00944811, -0.0115377, -0.003), (-0.00944811, -0.0115377, 0), (-0.00949298, -0.0114055, -0.003), (-0.00949298, -0.0114055, 0), (-0.00954359, -0.0112754, -0.003), (-0.00954359, -0.0112754, 0), (-0.00959982, -0.0111476, -0.003), (-0.00959982, -0.0111476, 0), (-0.00966157, -0.0110224, -0.003), (-0.00966157, -0.0110224, 0), (-0.00972872, -0.0109, -0.003), (-0.00972872, -0.0109, 0), (-0.00980115, -0.0107806, -0.003), (-0.00980115, -0.0107806, 0), (-0.00987871, -0.0106646, -0.003), (-0.00987871, -0.0106646, 0), (-0.00996127, -0.010552, -0.003), (-0.00996127, -0.010552, 0), (-0.0100487, -0.0104431, -0.003), (-0.0100487, -0.0104431, 0), (-0.0101407, -0.0103381, -0.003), (-0.0101407, -0.0103381, 0), (-0.0102373, -0.0102373, -0.003), (-0.0102373, -0.0102373, 0), (-0.0103381, -0.0101407, -0.003), (-0.0103381, -0.0101407, 0), (-0.0104431, -0.0100487, -0.003), (-0.0104431, -0.0100487, 0), (-0.010552, -0.00996127, -0.003), (-0.010552, -0.00996127, 0), (-0.0106646, -0.00987871, -0.003), (-0.0106646, -0.00987871, 0), (-0.0107806, -0.00980115, -0.003), (-0.0107806, -0.00980115, 0), (-0.0109, -0.00972872, -0.003), (-0.0109, -0.00972872, 0), (-0.0110224, -0.00966157, -0.003), (-0.0110224, -0.00966157, 0), (-0.0111476, -0.00959982, -0.003), (-0.0111476, -0.00959982, 0), (-0.0112754, -0.00954359, -0.003), (-0.0112754, -0.00954359, 0), (-0.0114055, -0.00949298, -0.003), (-0.0114055, -0.00949298, 0), (-0.0115377, -0.00944811, -0.003), (-0.0115377, -0.00944811, 0), (-0.0116718, -0.00940904, -0.003), (-0.0116718, -0.00940904, 0), (-0.0118074, -0.00937585, -0.003), (-0.0118074, -0.00937585, 0), (-0.0119443, -0.00934862, -0.003), (-0.0119443, -0.00934862, 0), (-0.0120823, -0.00932738, -0.003), (-0.0120823, -0.00932738, 0), (-0.0122211, -0.00931218, -0.003), (-0.0122211, -0.00931218, 0), (-0.0123604, -0.00930305, -0.003), (-0.0123604, -0.00930305, 0), (-0.0125, -0.0093, -0.003), (-0.0125, -0.0093, 0), (-0.0126396, -0.00930305, -0.003), (-0.0126396, -0.00930305, 0), (-0.0127789, -0.00931218, -0.003), (-0.0127789, -0.00931218, 0), (-0.0129177, -0.00932738, -0.003), (-0.0129177, -0.00932738, 0), (-0.0130557, -0.00934862, -0.003), (-0.0130557, -0.00934862, 0), (-0.0131926, -0.00937585, -0.003), (-0.0131926, -0.00937585, 0), (-0.0133282, -0.00940904, -0.003), (-0.0133282, -0.00940904, 0), (-0.0134623, -0.00944811, -0.003), (-0.0134623, -0.00944811, 0), (-0.0135945, -0.00949298, -0.003), (-0.0135945, -0.00949298, 0), (-0.0137246, -0.00954359, -0.003), (-0.0137246, -0.00954359, 0), (-0.0138524, -0.00959982, -0.003), (-0.0138524, -0.00959982, 0), (-0.0139776, -0.00966157, -0.003), (-0.0139776, -0.00966157, 0), (-0.0141, -0.00972872, -0.003), (-0.0141, -0.00972872, 0), (-0.0142194, -0.00980115, -0.003), (-0.0142194, -0.00980115, 0), (-0.0143354, -0.00987871, -0.003), (-0.0143354, -0.00987871, 0), (-0.014448, -0.00996127, -0.003), (-0.014448, -0.00996127, 0), (-0.0145569, -0.0100487, -0.003), (-0.0145569, -0.0100487, 0), (-0.0146619, -0.0101407, -0.003), (-0.0146619, -0.0101407, 0), (-0.0147627, -0.0102373, -0.003), (-0.0147627, -0.0102373, 0), (-0.0148593, -0.0103381, -0.003), (-0.0148593, -0.0103381, 0), (-0.0149513, -0.0104431, -0.003), (-0.0149513, -0.0104431, 0), (-0.0150387, -0.010552, -0.003), (-0.0150387, -0.010552, 0), (-0.0151213, -0.0106646, -0.003), (-0.0151213, -0.0106646, 0), (-0.0151989, -0.0107806, -0.003), (-0.0151989, -0.0107806, 0), (-0.0152713, -0.0109, -0.003), (-0.0152713, -0.0109, 0), (-0.0153384, -0.0110224, -0.003), (-0.0153384, -0.0110224, 0), (-0.0154002, -0.0111476, -0.003), (-0.0154002, -0.0111476, 0), (-0.0154564, -0.0112754, -0.003), (-0.0154564, -0.0112754, 0), (-0.015507, -0.0114055, -0.003), (-0.015507, -0.0114055, 0), (-0.0155519, -0.0115377, -0.003), (-0.0155519, -0.0115377, 0), (-0.015591, -0.0116718, -0.003), (-0.015591, -0.0116718, 0), (-0.0156241, -0.0118074, -0.003), (-0.0156241, -0.0118074, 0), (-0.0156514, -0.0119443, -0.003), (-0.0156514, -0.0119443, 0), (-0.0156726, -0.0120823, -0.003), (-0.0156726, -0.0120823, 0), (-0.0156878, -0.0122211, -0.003), (-0.0156878, -0.0122211, 0), (-0.015697, -0.0123604, -0.003), (-0.015697, -0.0123604, 0), (-0.0157, -0.0125, -0.003), (-0.0157, -0.0125, 0), (-0.015697, -0.0126396, -0.003), (-0.015697, -0.0126396, 0), (-0.0156878, -0.0127789, -0.003), (-0.0156878, -0.0127789, 0), (-0.0156726, -0.0129177, -0.003), (-0.0156726, -0.0129177, 0), (-0.0156514, -0.0130557, -0.003), (-0.0156514, -0.0130557, 0), (-0.0156241, -0.0131926, -0.003), (-0.0156241, -0.0131926, 0), (-0.015591, -0.0133282, -0.003), (-0.015591, -0.0133282, 0), (-0.0155519, -0.0134623, -0.003), (-0.0155519, -0.0134623, 0), (-0.015507, -0.0135945, -0.003), (-0.015507, -0.0135945, 0), (-0.0154564, -0.0137246, -0.003), (-0.0154564, -0.0137246, 0), (-0.0154002, -0.0138524, -0.003), (-0.0154002, -0.0138524, 0), (-0.0153384, -0.0139776, -0.003), (-0.0153384, -0.0139776, 0), (-0.0152713, -0.0141, -0.003), (-0.0152713, -0.0141, 0), (-0.0151989, -0.0142194, -0.003), (-0.0151989, -0.0142194, 0), (-0.0151213, -0.0143354, -0.003), (-0.0151213, -0.0143354, 0), (-0.0150387, -0.014448, -0.003), (-0.0150387, -0.014448, 0), (-0.0149513, -0.0145569, -0.003), (-0.0149513, -0.0145569, 0), (-0.0148593, -0.0146619, -0.003), (-0.0148593, -0.0146619, 0), (-0.0147627, -0.0147627, -0.003), (-0.0147627, -0.0147627, 0), (-0.0146619, -0.0148593, -0.003), (-0.0146619, -0.0148593, 0), (-0.0145569, -0.0149513, -0.003), (-0.0145569, -0.0149513, 0), (-0.014448, -0.0150387, -0.003), (-0.014448, -0.0150387, 0), (-0.0143354, -0.0151213, -0.003), (-0.0143354, -0.0151213, 0), (-0.0142194, -0.0151989, -0.003), (-0.0142194, -0.0151989, 0), (-0.0141, -0.0152713, -0.003), (-0.0141, -0.0152713, 0), (-0.0139776, -0.0153384, -0.003), (-0.0139776, -0.0153384, 0), (-0.0138524, -0.0154002, -0.003), (-0.0138524, -0.0154002, 0), (-0.0137246, -0.0154564, -0.003), (-0.0137246, -0.0154564, 0), (-0.0135945, -0.015507, -0.003), (-0.0135945, -0.015507, 0), (-0.0134623, -0.0155519, -0.003), (-0.0134623, -0.0155519, 0), (-0.0133282, -0.015591, -0.003), (-0.0133282, -0.015591, 0), (-0.0131926, -0.0156241, -0.003), (-0.0131926, -0.0156241, 0), (-0.0130557, -0.0156514, -0.003), (-0.0130557, -0.0156514, 0), (-0.0129177, -0.0156726, -0.003), (-0.0129177, -0.0156726, 0), (-0.0127789, -0.0156878, -0.003), (-0.0127789, -0.0156878, 0), (-0.0126396, -0.015697, -0.003), (-0.0126396, -0.015697, 0), (-0.0125, -0.0157, -0.003), (-0.0125, -0.0157, 0), (-0.0123604, -0.015697, -0.003), (-0.0123604, -0.015697, 0), (-0.0122211, -0.0156878, -0.003), (-0.0122211, -0.0156878, 0), (-0.0120823, -0.0156726, -0.003), (-0.0120823, -0.0156726, 0), (-0.0119443, -0.0156514, -0.003), (-0.0119443, -0.0156514, 0), (-0.0118074, -0.0156241, -0.003), (-0.0118074, -0.0156241, 0), (-0.0116718, -0.015591, -0.003), (-0.0116718, -0.015591, 0), (-0.0115377, -0.0155519, -0.003), (-0.0115377, -0.0155519, 0), (-0.0114055, -0.015507, -0.003), (-0.0114055, -0.015507, 0), (-0.0112754, -0.0154564, -0.003), (-0.0112754, -0.0154564, 0), (-0.0111476, -0.0154002, -0.003), (-0.0111476, -0.0154002, 0), (-0.0110224, -0.0153384, -0.003), (-0.0110224, -0.0153384, 0), (-0.0109, -0.0152713, -0.003), (-0.0109, -0.0152713, 0), (-0.0107806, -0.0151989, -0.003), (-0.0107806, -0.0151989, 0), (-0.0106646, -0.0151213, -0.003), (-0.0106646, -0.0151213, 0), (-0.010552, -0.0150387, -0.003), (-0.010552, -0.0150387, 0), (-0.0104431, -0.0149513, -0.003), (-0.0104431, -0.0149513, 0), (-0.0103381, -0.0148593, -0.003), (-0.0103381, -0.0148593, 0), (-0.0102373, -0.0147627, -0.003), (-0.0102373, -0.0147627, 0), (-0.0101407, -0.0146619, -0.003), (-0.0101407, -0.0146619, 0), (-0.0100487, -0.0145569, -0.003), (-0.0100487, -0.0145569, 0), (-0.00996127, -0.014448, -0.003), (-0.00996127, -0.014448, 0), (-0.00987871, -0.0143354, -0.003), (-0.00987871, -0.0143354, 0), (-0.00980115, -0.0142194, -0.003), (-0.00980115, -0.0142194, 0), (-0.00972872, -0.0141, -0.003), (-0.00972872, -0.0141, 0), (-0.00966157, -0.0139776, -0.003), (-0.00966157, -0.0139776, 0), (-0.00959982, -0.0138524, -0.003), (-0.00959982, -0.0138524, 0), (-0.00954359, -0.0137246, -0.003), (-0.00954359, -0.0137246, 0), (-0.00949298, -0.0135945, -0.003), (-0.00949298, -0.0135945, 0), (-0.00944811, -0.0134623, -0.003), (-0.00944811, -0.0134623, 0), (-0.00940904, -0.0133282, -0.003), (-0.00940904, -0.0133282, 0), (-0.00937585, -0.0131926, -0.003), (-0.00937585, -0.0131926, 0), (-0.00934862, -0.0130557, -0.003), (-0.00934862, -0.0130557, 0), (-0.00932738, -0.0129177, -0.003), (-0.00932738, -0.0129177, 0), (-0.00931218, -0.0127789, -0.003), (-0.00931218, -0.0127789, 0), (-0.00930305, -0.0126396, -0.003), (-0.00930305, -0.0126396, 0), (-0.0007039277, 0.0053468654, 0.025), (-0.00093648466, 0.0053110654, 0.025), (-0.0011672609, 0.0052651665, 0.025), (-0.00047003131, 0.005372477, 0.025), (-0.00023523973, 0.005387872, 0.025), (6.3176544e-18, 0.005393, 0.025), (-0.004982485, -0.0020638127, 0.025), (0.005393, -1.0507231e-18, 0.025), (0.00023523973, 0.005387872, 0.025), (0.00047003131, 0.005372477, 0.025), (0.0007039277, 0.0053468654, 0.025), (0.004417691, 0.0030932974, 0.025), (-0.0013958064, 0.005209236, 0.025), (0.0053110654, 0.00093648466, 0.025), (0.0053468654, 0.0007039277, 0.025), (0.005387872, 0.00023523973, 0.025), (0.005372477, 0.00047003131, 0.025), (-0.0016217045, 0.0051433924, 0.025), (-0.0018445139, 0.005067763, 0.025), (-0.0020638127, 0.004982485, 0.025), (0.005387872, -0.00023523973, 0.025), (0.005372477, -0.00047003131, 0.025), (0.0013958064, 0.005209236, 0.025), (0.0016217045, 0.0051433924, 0.025), (0.0018445139, 0.005067763, 0.025), (0.0020638127, 0.004982485, 0.025), (0.005209236, 0.0013958064, 0.025), (0.0052651665, 0.0011672609, 0.025), (-0.0022791799, 0.004887715, 0.025), (0.0053110654, -0.00093648466, 0.025), (0.0053468654, -0.0007039277, 0.025), (0.00093648466, 0.0053110654, 0.025), (0.0011672609, 0.0052651665, 0.025), (0.0022791799, 0.004887715, 0.025), (0.002490213, 0.00478365, 0.025), (0.0026965, 0.004670475, 0.025), (0.002897659, 0.004548407, 0.025), (0.0030932974, 0.004417691, 0.025), (0.0032830525, 0.0042785513, 0.025), (0.0034665517, 0.0041312734, 0.025), (0.003643462, 0.0039761416, 0.025), (0.0038134295, 0.0038134295, 0.025), (0.0051433924, 0.0016217045, 0.025), (0.005067763, 0.0018445139, 0.025), (-0.005067763, -0.0018445139, 0.025), (-0.0051433924, -0.0016217045, 0.025), (-0.005209236, -0.0013958064, 0.025), (0.0039761416, 0.003643462, 0.025), (0.0041312734, 0.0034665517, 0.025), (0.0042785513, 0.0032830525, 0.025), (0.004548407, 0.002897659, 0.025), (0.004670475, 0.0026965, 0.025), (0.00478365, 0.002490213, 0.025), (0.004887715, 0.0022791799, 0.025), (0.004982485, 0.0020638127, 0.025), (-0.0052651665, -0.0011672609, 0.025), (-0.0053110654, -0.00093648466, 0.025), (-0.0053468654, -0.0007039277, 0.025), (-0.005372477, -0.00047003131, 0.025), (-0.005387872, -0.00023523973, 0.025), (-0.005393, 1.5300431e-17, 0.025), (-0.004670475, -0.0026965, 0.025), (-0.004548407, -0.002897659, 0.025), (-0.004417691, -0.0030932974, 0.025), (-0.00478365, -0.002490213, 0.025), (-0.004887715, -0.0022791799, 0.025), (-0.003643462, -0.0039761416, 0.025), (-0.0038134295, -0.0038134295, 0.025), (-0.005387872, 0.00023523973, 0.025), (-0.005372477, 0.00047003131, 0.025), (-0.0053468654, 0.0007039277, 0.025), (-0.004982485, 0.0020638127, 0.025), (-0.004887715, 0.0022791799, 0.025), (-0.00478365, 0.002490213, 0.025), (-0.0039761416, -0.003643462, 0.025), (-0.0041312734, -0.0034665517, 0.025), (-0.0042785513, -0.0032830525, 0.025), (-0.0026965, -0.004670475, 0.025), (-0.002897659, -0.004548407, 0.025), (-0.0030932974, -0.004417691, 0.025), (0.0052651665, -0.0011672609, 0.025), (0.005209236, -0.0013958064, 0.025), (0.0051433924, -0.0016217045, 0.025), (0.005067763, -0.0018445139, 0.025), (0.004982485, -0.0020638127, 0.025), (0.004887715, -0.0022791799, 0.025), (-0.0053110654, 0.00093648466, 0.025), (-0.0052651665, 0.0011672609, 0.025), (-0.005209236, 0.0013958064, 0.025), (-0.004670475, 0.0026965, 0.025), (-0.004548407, 0.002897659, 0.025), (-0.004417691, 0.0030932974, 0.025), (-0.0042785513, 0.0032830525, 0.025), (-0.0041312734, 0.0034665517, 0.025), (-0.0039761416, 0.003643462, 0.025), (-0.002490213, 0.00478365, 0.025), (-0.0026965, 0.004670475, 0.025), (-0.0034665517, -0.0041312734, 0.025), (-0.0032830525, -0.0042785513, 0.025), (-0.0051433924, 0.0016217045, 0.025), (-0.005067763, 0.0018445139, 0.025), (-0.0032830525, 0.0042785513, 0.025), (0.002490213, -0.00478365, 0.025), (0.0022791799, -0.004887715, 0.025), (0.004548407, -0.002897659, 0.025), (0.004417691, -0.0030932974, 0.025), (0.0011672609, -0.0052651665, 0.025), (0.00093648466, -0.0053110654, 0.025), (0.0007039277, -0.0053468654, 0.025), (0.004670475, -0.0026965, 0.025), (0.00478365, -0.002490213, 0.025), (-0.0038134295, 0.0038134295, 0.025), (-0.003643462, 0.0039761416, 0.025), (-0.0034665517, 0.0041312734, 0.025), (-0.0030932974, 0.004417691, 0.025), (-0.002897659, 0.004548407, 0.025), (0.0016217045, -0.0051433924, 0.025), (0.0013958064, -0.005209236, 0.025), (0.003643462, -0.0039761416, 0.025), (0.0042785513, -0.0032830525, 0.025), (0.0041312734, -0.0034665517, 0.025), (0.0039761416, -0.003643462, 0.025), (-0.00023523973, -0.005387872, 0.025), (-0.00047003131, -0.005372477, 0.025), (-0.0007039277, -0.0053468654, 0.025), (-0.00093648466, -0.0053110654, 0.025), (-0.0011672609, -0.0052651665, 0.025), (-0.0013958064, -0.005209236, 0.025), (-0.0016217045, -0.0051433924, 0.025), (-0.0018445139, -0.005067763, 0.025), (-0.0020638127, -0.004982485, 0.025), (-0.0022791799, -0.004887715, 0.025), (0.0030932974, -0.004417691, 0.025), (0.002897659, -0.004548407, 0.025), (0.0026965, -0.004670475, 0.025), (0.00047003131, -0.005372477, 0.025), (0.00023523973, -0.005387872, 0.025), (-2.4940369e-17, -0.005393, 0.025), (-0.002490213, -0.00478365, 0.025), (0.0038134295, -0.0038134295, 0.025), (0.0020638127, -0.004982485, 0.025), (0.0018445139, -0.005067763, 0.025), (0.0034665517, -0.0041312734, 0.025), (0.0032830525, -0.0042785513, 0.025), (0.0043929997, 2.6899415e-19, 0), (0.0043929997, 2.6899415e-19, 0.024), (0.004388822, 0.00019161974, 0), (0.004388822, 0.00019161974, 0.024), (0.004376287, 0.00038287535, 0), (0.004376287, 0.00038287535, 0.024), (0.0043554152, 0.0005734017, 0), (0.0043554152, 0.0005734017, 0.024), (0.0043262555, 0.00076283666, 0), (0.0043262555, 0.00076283666, 0.024), (0.004288866, 0.000950819, 0), (0.004288866, 0.000950819, 0.024), (0.004243316, 0.0011369963, 0), (0.004243316, 0.0011369963, 0.024), (0.004189682, 0.0013210045, 0), (0.004189682, 0.0013210045, 0.024), (0.004128073, 0.0015024939, 0), (0.004128073, 0.0015024939, 0.024), (0.0040586046, 0.0016811328, 0), (0.0040586046, 0.0016811328, 0.024), (0.003981405, 0.0018565599, 0), (0.003981405, 0.0018565599, 0.024), (0.0038966397, 0.002028463, 0), (0.0038966397, 0.002028463, 0.024), (0.0038044453, 0.0021964998, 0), (0.0038044453, 0.0021964998, 0.024), (0.0037050173, 0.002360359, 0), (0.0037050173, 0.002360359, 0.024), (0.0035985308, 0.0025197172, 0), (0.0035985308, 0.0025197172, 0.024), (0.0034852014, 0.0026742923, 0), (0.0034852014, 0.0026742923, 0.024), (0.003365233, 0.002823762, 0), (0.003365233, 0.002823762, 0.024), (0.0032388614, 0.002967872, 0), (0.0032388614, 0.002967872, 0.024), (0.0031063196, 0.0031063196, 0), (0.0031063196, 0.0031063196, 0.024), (0.002967872, 0.0032388614, 0), (0.002967872, 0.0032388614, 0.024), (0.002823762, 0.003365233, 0), (0.002823762, 0.003365233, 0.024), (0.0026742923, 0.0034852014, 0), (0.0026742923, 0.0034852014, 0.024), (0.0025197172, 0.0035985308, 0), (0.0025197172, 0.0035985308, 0.024), (0.002360359, 0.0037050173, 0), (0.002360359, 0.0037050173, 0.024), (0.0021964998, 0.0038044453, 0), (0.0021964998, 0.0038044453, 0.024), (0.002028463, 0.0038966397, 0), (0.002028463, 0.0038966397, 0.024), (0.0018565599, 0.003981405, 0), (0.0018565599, 0.003981405, 0.024), (0.0016811328, 0.0040586046, 0), (0.0016811328, 0.0040586046, 0.024), (0.0015024939, 0.004128073, 0), (0.0015024939, 0.004128073, 0.024), (0.0013210045, 0.004189682, 0), (0.0013210045, 0.004189682, 0.024), (0.0011369963, 0.004243316, 0), (0.0011369963, 0.004243316, 0.024), (0.000950819, 0.004288866, 0), (0.000950819, 0.004288866, 0.024), (0.00076283666, 0.0043262555, 0), (0.00076283666, 0.0043262555, 0.024), (0.0005734017, 0.0043554152, 0), (0.0005734017, 0.0043554152, 0.024), (0.00038287535, 0.004376287, 0), (0.00038287535, 0.004376287, 0.024), (0.00019161974, 0.004388822, 0), (0.00019161974, 0.004388822, 0.024), (2.6899415e-19, 0.0043929997, 0), (5.1462045e-18, 0.0043929997, 0.024), (-0.00019161974, 0.004388822, 0), (-0.00019161974, 0.004388822, 0.024), (-0.00038287535, 0.004376287, 0), (-0.00038287535, 0.004376287, 0.024), (-0.0005734017, 0.0043554152, 0), (-0.0005734017, 0.0043554152, 0.024), (-0.00076283666, 0.0043262555, 0), (-0.00076283666, 0.0043262555, 0.024), (-0.000950819, 0.004288866, 0), (-0.000950819, 0.004288866, 0.024), (-0.0011369963, 0.004243316, 0), (-0.0011369963, 0.004243316, 0.024), (-0.0013210045, 0.004189682, 0), (-0.0013210045, 0.004189682, 0.024), (-0.0015024939, 0.004128073, 0), (-0.0015024939, 0.004128073, 0.024), (-0.0016811328, 0.0040586046, 0), (-0.0016811328, 0.0040586046, 0.024), (-0.0018565599, 0.003981405, 0), (-0.0018565599, 0.003981405, 0.024), (-0.002028463, 0.0038966397, 0), (-0.002028463, 0.0038966397, 0.024), (-0.0021964998, 0.0038044453, 0), (-0.0021964998, 0.0038044453, 0.024), (-0.002360359, 0.0037050173, 0), (-0.002360359, 0.0037050173, 0.024), (-0.0025197172, 0.0035985308, 0), (-0.0025197172, 0.0035985308, 0.024), (-0.0026742923, 0.0034852014, 0), (-0.0026742923, 0.0034852014, 0.024), (-0.002823762, 0.003365233, 0), (-0.002823762, 0.003365233, 0.024), (-0.002967872, 0.0032388614, 0), (-0.002967872, 0.0032388614, 0.024), (-0.0031063196, 0.0031063196, 0), (-0.0031063196, 0.0031063196, 0.024), (-0.0032388614, 0.002967872, 0), (-0.0032388614, 0.002967872, 0.024), (-0.003365233, 0.002823762, 0), (-0.003365233, 0.002823762, 0.024), (-0.0034852014, 0.0026742923, 0), (-0.0034852014, 0.0026742923, 0.024), (-0.0035985308, 0.0025197172, 0), (-0.0035985308, 0.0025197172, 0.024), (-0.0037050173, 0.002360359, 0), (-0.0037050173, 0.002360359, 0.024), (-0.0038044453, 0.0021964998, 0), (-0.0038044453, 0.0021964998, 0.024), (-0.0038966397, 0.002028463, 0), (-0.0038966397, 0.002028463, 0.024), (-0.003981405, 0.0018565599, 0), (-0.003981405, 0.0018565599, 0.024), (-0.0040586046, 0.0016811328, 0), (-0.0040586046, 0.0016811328, 0.024), (-0.004128073, 0.0015024939, 0), (-0.004128073, 0.0015024939, 0.024), (-0.004189682, 0.0013210045, 0), (-0.004189682, 0.0013210045, 0.024), (-0.004243316, 0.0011369963, 0), (-0.004243316, 0.0011369963, 0.024), (-0.004288866, 0.000950819, 0), (-0.004288866, 0.000950819, 0.024), (-0.0043262555, 0.00076283666, 0), (-0.0043262555, 0.00076283666, 0.024), (-0.0043554152, 0.0005734017, 0), (-0.0043554152, 0.0005734017, 0.024), (-0.004376287, 0.00038287535, 0), (-0.004376287, 0.00038287535, 0.024), (-0.004388822, 0.00019161974, 0), (-0.004388822, 0.00019161974, 0.024), (-0.0043929997, 8.0698143e-19, 0), (-0.0043929997, 1.251224e-17, 0.024), (-0.004388822, -0.00019161974, 0), (-0.004388822, -0.00019161974, 0.024), (-0.004376287, -0.00038287535, 0), (-0.004376287, -0.00038287535, 0.024), (-0.0043554152, -0.0005734017, 0), (-0.0043554152, -0.0005734017, 0.024), (-0.0043262555, -0.00076283666, 0), (-0.0043262555, -0.00076283666, 0.024), (-0.004288866, -0.000950819, 0), (-0.004288866, -0.000950819, 0.024), (-0.004243316, -0.0011369963, 0), (-0.004243316, -0.0011369963, 0.024), (-0.004189682, -0.0013210045, 0), (-0.004189682, -0.0013210045, 0.024), (-0.004128073, -0.0015024939, 0), (-0.004128073, -0.0015024939, 0.024), (-0.0040586046, -0.0016811328, 0), (-0.0040586046, -0.0016811328, 0.024), (-0.003981405, -0.0018565599, 0), (-0.003981405, -0.0018565599, 0.024), (-0.0038966397, -0.002028463, 0), (-0.0038966397, -0.002028463, 0.024), (-0.0038044453, -0.0021964998, 0), (-0.0038044453, -0.0021964998, 0.024), (-0.0037050173, -0.002360359, 0), (-0.0037050173, -0.002360359, 0.024), (-0.0035985308, -0.0025197172, 0), (-0.0035985308, -0.0025197172, 0.024), (-0.0034852014, -0.0026742923, 0), (-0.0034852014, -0.0026742923, 0.024), (-0.003365233, -0.002823762, 0), (-0.003365233, -0.002823762, 0.024), (-0.0032388614, -0.002967872, 0), (-0.0032388614, -0.002967872, 0.024), (-0.0031063196, -0.0031063196, 0), (-0.0031063196, -0.0031063196, 0.024), (-0.002967872, -0.0032388614, 0), (-0.002967872, -0.0032388614, 0.024), (-0.002823762, -0.003365233, 0), (-0.002823762, -0.003365233, 0.024), (-0.0026742923, -0.0034852014, 0), (-0.0026742923, -0.0034852014, 0.024), (-0.0025197172, -0.0035985308, 0), (-0.0025197172, -0.0035985308, 0.024), (-0.002360359, -0.0037050173, 0), (-0.002360359, -0.0037050173, 0.024), (-0.0021964998, -0.0038044453, 0), (-0.0021964998, -0.0038044453, 0.024), (-0.002028463, -0.0038966397, 0), (-0.002028463, -0.0038966397, 0.024), (-0.0018565599, -0.003981405, 0), (-0.0018565599, -0.003981405, 0.024), (-0.0016811328, -0.0040586046, 0), (-0.0016811328, -0.0040586046, 0.024), (-0.0015024939, -0.004128073, 0), (-0.0015024939, -0.004128073, 0.024), (-0.0013210045, -0.004189682, 0), (-0.0013210045, -0.004189682, 0.024), (-0.0011369963, -0.004243316, 0), (-0.0011369963, -0.004243316, 0.024), (-0.000950819, -0.004288866, 0), (-0.000950819, -0.004288866, 0.024), (-0.00076283666, -0.0043262555, 0), (-0.00076283666, -0.0043262555, 0.024), (-0.0005734017, -0.0043554152, 0), (-0.0005734017, -0.0043554152, 0.024), (-0.00038287535, -0.004376287, 0), (-0.00038287535, -0.004376287, 0.024), (-0.00019161974, -0.004388822, 0), (-0.00019161974, -0.004388822, 0.024), (-8.0698143e-19, -0.0043929997, 0), (-2.0315867e-17, -0.0043929997, 0.024), (0.00019161974, -0.004388822, 0), (0.00019161974, -0.004388822, 0.024), (0.00038287535, -0.004376287, 0), (0.00038287535, -0.004376287, 0.024), (0.0005734017, -0.0043554152, 0), (0.0005734017, -0.0043554152, 0.024), (0.00076283666, -0.0043262555, 0), (0.00076283666, -0.0043262555, 0.024), (0.000950819, -0.004288866, 0), (0.000950819, -0.004288866, 0.024), (0.0011369963, -0.004243316, 0), (0.0011369963, -0.004243316, 0.024), (0.0013210045, -0.004189682, 0), (0.0013210045, -0.004189682, 0.024), (0.0015024939, -0.004128073, 0), (0.0015024939, -0.004128073, 0.024), (0.0016811328, -0.0040586046, 0), (0.0016811328, -0.0040586046, 0.024), (0.0018565599, -0.003981405, 0), (0.0018565599, -0.003981405, 0.024), (0.002028463, -0.0038966397, 0), (0.002028463, -0.0038966397, 0.024), (0.0021964998, -0.0038044453, 0), (0.0021964998, -0.0038044453, 0.024), (0.002360359, -0.0037050173, 0), (0.002360359, -0.0037050173, 0.024), (0.0025197172, -0.0035985308, 0), (0.0025197172, -0.0035985308, 0.024), (0.0026742923, -0.0034852014, 0), (0.0026742923, -0.0034852014, 0.024), (0.002823762, -0.003365233, 0), (0.002823762, -0.003365233, 0.024), (0.002967872, -0.0032388614, 0), (0.002967872, -0.0032388614, 0.024), (0.0031063196, -0.0031063196, 0), (0.0031063196, -0.0031063196, 0.024), (0.0032388614, -0.002967872, 0), (0.0032388614, -0.002967872, 0.024), (0.003365233, -0.002823762, 0), (0.003365233, -0.002823762, 0.024), (0.0034852014, -0.0026742923, 0), (0.0034852014, -0.0026742923, 0.024), (0.0035985308, -0.0025197172, 0), (0.0035985308, -0.0025197172, 0.024), (0.0037050173, -0.002360359, 0), (0.0037050173, -0.002360359, 0.024), (0.0038044453, -0.0021964998, 0), (0.0038044453, -0.0021964998, 0.024), (0.0038966397, -0.002028463, 0), (0.0038966397, -0.002028463, 0.024), (0.003981405, -0.0018565599, 0), (0.003981405, -0.0018565599, 0.024), (0.0040586046, -0.0016811328, 0), (0.0040586046, -0.0016811328, 0.024), (0.004128073, -0.0015024939, 0), (0.004128073, -0.0015024939, 0.024), (0.004189682, -0.0013210045, 0), (0.004189682, -0.0013210045, 0.024), (0.004243316, -0.0011369963, 0), (0.004243316, -0.0011369963, 0.024), (0.004288866, -0.000950819, 0), (0.004288866, -0.000950819, 0.024), (0.0043262555, -0.00076283666, 0), (0.0043262555, -0.00076283666, 0.024), (0.0043554152, -0.0005734017, 0), (0.0043554152, -0.0005734017, 0.024), (0.004376287, -0.00038287535, 0), (0.004376287, -0.00038287535, 0.024), (0.004388822, -0.00019161974, 0), (0.004388822, -0.00019161974, 0.024), (0, -0.0125, 0), (-0.0125, -3.46945e-18, 0), (0, 0.0125, 0), (0.02, 0.02, 0), (0.02, -3.46945e-18, 0), (0, 0.02, 0), (-0.0133282, 0.00940904, 0), (-0.0134623, 0.00944811, 0), (-0.0148593, 0.0103381, 0), (-0.0149513, 0.0104431, 0), (-0.0150387, 0.010552, 0), (-0.015507, 0.0114055, 0), (-0.0155519, 0.0115377, 0), (-0.02, -3.46945e-18, 0), (-0.0157, 0.0125, 0), (-0.015697, 0.0126396, 0), (-0.02, 0.02, 0), (-0.0156878, 0.0127789, 0), (-0.0156726, 0.0129177, 0), (-0.0156514, 0.0130557, 0), (-0.0156241, 0.0131926, 0), (-0.015591, 0.0133282, 0), (-0.0127789, 0.0156878, 0), (-0.0126396, 0.015697, 0), (-0.015591, 0.0116718, 0), (-0.0156241, 0.0118074, 0), (-0.0156514, 0.0119443, 0), (-0.0156726, 0.0120823, 0), (-0.0156878, 0.0122211, 0), (-0.015697, 0.0123604, 0), (-0.0106646, 0.0151213, 0), (-0.010552, 0.0150387, 0), (-0.0104431, 0.0149513, 0), (-0.0103381, 0.0148593, 0), (-0.0151213, 0.0106646, 0), (-0.0151989, 0.0107806, 0), (-0.0152713, 0.0109, 0), (-0.0153384, 0.0110224, 0), (-0.0155519, 0.0134623, 0), (-0.015507, 0.0135945, 0), (-0.0154564, 0.0137246, 0), (-0.0145569, 0.0100487, 0), (-0.0146619, 0.0101407, 0), (-0.0147627, 0.0102373, 0), (-0.0154002, 0.0111476, 0), (-0.0154564, 0.0112754, 0), (-0.0135945, 0.015507, 0), (-0.0137246, 0.0154564, 0), (-0.0138524, 0.0154002, 0), (-0.0134623, 0.0155519, 0), (-0.0133282, 0.015591, 0), (-0.0131926, 0.0156241, 0), (-0.0102373, 0.0147627, 0), (-0.0101407, 0.0146619, 0), (-0.0100487, 0.0145569, 0), (-0.00959982, 0.0138524, 0), (-0.00954359, 0.0137246, 0), (-0.00949298, 0.0135945, 0), (-0.0093, 0.0125, 0), (-0.00930305, 0.0126396, 0), (-0.00931218, 0.0127789, 0), (-0.0125, 0.0093, 0), (-0.0126396, 0.00930305, 0), (-0.0127789, 0.00931218, 0), (-0.0129177, 0.00932738, 0), (-0.0130557, 0.00934862, 0), (-0.0131926, 0.00937585, 0), (-0.0135945, 0.00949298, 0), (-0.0137246, 0.00954359, 0), (-0.0138524, 0.00959982, 0), (-0.0154002, 0.0138524, 0), (-0.0153384, 0.0139776, 0), (-0.0152713, 0.0141, 0), (-0.0148593, 0.0146619, 0), (-0.0149513, 0.0145569, 0), (-0.0150387, 0.014448, 0), (-0.0147627, 0.0147627, 0), (-0.0146619, 0.0148593, 0), (-0.0145569, 0.0149513, 0), (-0.0130557, 0.0156514, 0), (-0.0129177, 0.0156726, 0), (-0.0116718, 0.015591, 0), (-0.0115377, 0.0155519, 0), (-0.0114055, 0.015507, 0), (-0.00996127, 0.014448, 0), (-0.00987871, 0.0143354, 0), (-0.00980115, 0.0142194, 0), (-0.00944811, 0.0134623, 0), (-0.00940904, 0.0133282, 0), (-0.00937585, 0.0131926, 0), (-0.00934862, 0.0130557, 0), (-0.00932738, 0.0129177, 0), (-0.0139776, 0.00966157, 0), (-0.0141, 0.00972872, 0), (-0.0142194, 0.00980115, 0), (-0.0143354, 0.00987871, 0), (-0.014448, 0.00996127, 0), (-0.014448, 0.0150387, 0), (-0.0143354, 0.0151213, 0), (-0.0142194, 0.0151989, 0), (-0.0120823, 0.0156726, 0), (-0.0119443, 0.0156514, 0), (-0.0118074, 0.0156241, 0), (-0.0112754, 0.0154564, 0), (-0.0111476, 0.0154002, 0), (-0.0110224, 0.0153384, 0), (-0.0109, 0.0152713, 0), (-0.0107806, 0.0151989, 0), (-0.00972872, 0.0141, 0), (-0.00966157, 0.0139776, 0), (-0.0151989, 0.0142194, 0), (-0.0151213, 0.0143354, 0), (-0.0141, 0.0152713, 0), (-0.0139776, 0.0153384, 0), (-0.0125, 0.0157, 0), (-0.0123604, 0.015697, 0), (-0.0122211, 0.0156878, 0), (-0.0123604, 0.00930305, 0), (-0.0122211, 0.00931218, 0), (-0.0120823, 0.00932738, 0), (-0.0119443, 0.00934862, 0), (-0.0118074, 0.00937585, 0), (-0.0116718, 0.00940904, 0), (-0.0115377, 0.00944811, 0), (-0.0114055, 0.00949298, 0), (-0.0112754, 0.00954359, 0), (-0.0111476, 0.00959982, 0), (-0.0110224, 0.00966157, 0), (-0.0109, 0.00972872, 0), (-0.0107806, 0.00980115, 0), (-0.0106646, 0.00987871, 0), (-0.010552, 0.00996127, 0), (-0.0104431, 0.0100487, 0), (-0.0103381, 0.0101407, 0), (-0.0102373, 0.0102373, 0), (-0.0101407, 0.0103381, 0), (-0.0100487, 0.0104431, 0), (-0.00996127, 0.010552, 0), (-0.00987871, 0.0106646, 0), (-0.00980115, 0.0107806, 0), (-0.00972872, 0.0109, 0), (-0.00966157, 0.0110224, 0), (-0.00959982, 0.0111476, 0), (-0.00954359, 0.0112754, 0), (-0.00949298, 0.0114055, 0), (-0.00944811, 0.0115377, 0), (-0.00940904, 0.0116718, 0), (-0.00937585, 0.0118074, 0), (-0.00934862, 0.0119443, 0), (-0.00932738, 0.0120823, 0), (-0.00931218, 0.0122211, 0), (-0.00930305, 0.0123604, 0), (0, -0.02, 0), (-0.02, -0.02, 0), (0.0156241, -0.0118074, 0), (0.0156514, -0.0119443, 0), (0.0151213, -0.0106646, 0), (0.0151989, -0.0107806, 0), (0.0152713, -0.0109, 0), (0.0153384, -0.0110224, 0), (0.0156726, -0.0120823, 0), (0.0156878, -0.0122211, 0), (0.02, -0.02, 0), (0.015697, -0.0123604, 0), (0.0157, -0.0125, 0), (0.0152713, -0.0141, 0), (0.0151989, -0.0142194, 0), (0.0116718, -0.015591, 0), (0.0115377, -0.0155519, 0), (0.0114055, -0.015507, 0), (0.0125, -3.46945e-18, 0), (0.0154002, -0.0111476, 0), (0.0154564, -0.0112754, 0), (0.015507, -0.0114055, 0), (0.0143354, -0.00987871, 0), (0.014448, -0.00996127, 0), (0.0145569, -0.0100487, 0), (0.0127789, -0.0156878, 0), (0.0126396, -0.015697, 0), (0.0112754, -0.0154564, 0), (0.0111476, -0.0154002, 0), (0.0110224, -0.0153384, 0), (0.0155519, -0.0115377, 0), (0.015591, -0.0116718, 0), (0.0146619, -0.0101407, 0), (0.0147627, -0.0102373, 0), (0.0148593, -0.0103381, 0), (0.0145569, -0.0149513, 0), (0.014448, -0.0150387, 0), (0.0109, -0.0152713, 0), (0.0107806, -0.0151989, 0), (0.0106646, -0.0151213, 0), (0.0104431, -0.0149513, 0), (0.0103381, -0.0148593, 0), (0.0102373, -0.0147627, 0), (0.0101407, -0.0146619, 0), (0.0100487, -0.0145569, 0), (0.00996127, -0.014448, 0), (0.00987871, -0.0143354, 0), (0.0149513, -0.0104431, 0), (0.0150387, -0.010552, 0), (0.0156726, -0.0129177, 0), (0.0156514, -0.0130557, 0), (0.0156241, -0.0131926, 0), (0.015591, -0.0133282, 0), (0.0149513, -0.0145569, 0), (0.0148593, -0.0146619, 0), (0.0143354, -0.0151213, 0), (0.0142194, -0.0151989, 0), (0.0141, -0.0152713, 0), (0.0120823, -0.0156726, 0), (0.0119443, -0.0156514, 0), (0.0118074, -0.0156241, 0), (0.010552, -0.0150387, 0), (0.00949298, -0.0135945, 0), (0.00944811, -0.0134623, 0), (0.00940904, -0.0133282, 0), (0.00937585, -0.0131926, 0), (0.00934862, -0.0130557, 0), (0.00932738, -0.0129177, 0), (0.00931218, -0.0127789, 0), (0.015697, -0.0126396, 0), (0.0156878, -0.0127789, 0), (0.0151213, -0.0143354, 0), (0.0150387, -0.014448, 0), (0.0125, -0.0157, 0), (0.0123604, -0.015697, 0), (0.0122211, -0.0156878, 0), (0.0155519, -0.0134623, 0), (0.015507, -0.0135945, 0), (0.0154564, -0.0137246, 0), (0.0154002, -0.0138524, 0), (0.0153384, -0.0139776, 0), (0.0147627, -0.0147627, 0), (0.0146619, -0.0148593, 0), (0.0137246, -0.0154564, 0), (0.0135945, -0.015507, 0), (0.00980115, -0.0142194, 0), (0.00972872, -0.0141, 0), (0.00966157, -0.0139776, 0), (0.0133282, -0.00940904, 0), (0.0134623, -0.00944811, 0), (0.0135945, -0.00949298, 0), (0.0139776, -0.0153384, 0), (0.0138524, -0.0154002, 0), (0.00959982, -0.0138524, 0), (0.00954359, -0.0137246, 0), (0.0126396, -0.00930305, 0), (0.0127789, -0.00931218, 0), (0.0129177, -0.00932738, 0), (0.0137246, -0.00954359, 0), (0.0138524, -0.00959982, 0), (0.0139776, -0.00966157, 0), (0.0141, -0.00972872, 0), (0.0142194, -0.00980115, 0), (0.0134623, -0.0155519, 0), (0.0133282, -0.015591, 0), (0.0131926, -0.0156241, 0), (0.0130557, -0.00934862, 0), (0.0131926, -0.00937585, 0), (0.0130557, -0.0156514, 0), (0.0129177, -0.0156726, 0), (0.00930305, -0.0126396, 0), (0.0093, -0.0125, 0), (0.00930305, -0.0123604, 0), (0.00931218, -0.0122211, 0), (0.00932738, -0.0120823, 0), (0.00934862, -0.0119443, 0), (0.00937585, -0.0118074, 0), (0.00940904, -0.0116718, 0), (0.00944811, -0.0115377, 0), (0.00949298, -0.0114055, 0), (0.00954359, -0.0112754, 0), (0.00959982, -0.0111476, 0), (0.00966157, -0.0110224, 0), (0.00972872, -0.0109, 0), (0.00980115, -0.0107806, 0), (0.00987871, -0.0106646, 0), (0.00996127, -0.010552, 0), (0.0100487, -0.0104431, 0), (0.0101407, -0.0103381, 0), (0.0102373, -0.0102373, 0), (0.0103381, -0.0101407, 0), (0.0104431, -0.0100487, 0), (0.010552, -0.00996127, 0), (0.0106646, -0.00987871, 0), (0.0107806, -0.00980115, 0), (0.0109, -0.00972872, 0), (0.0110224, -0.00966157, 0), (0.0111476, -0.00959982, 0), (0.0112754, -0.00954359, 0), (0.0114055, -0.00949298, 0), (0.0115377, -0.00944811, 0), (0.0116718, -0.00940904, 0), (0.0118074, -0.00937585, 0), (0.0119443, -0.00934862, 0), (0.0120823, -0.00932738, 0), (0.0122211, -0.00931218, 0), (0.0123604, -0.00930305, 0), (0.0125, -0.0093, 0), (-0.0156241, 0.0131926, -0.003), (-0.0156514, 0.0130557, -0.003), (-0.02, 0.02, -0.003), (-0.0156726, 0.0129177, -0.003), (-0.0156878, 0.0127789, -0.003), (-0.015697, 0.0126396, -0.003), (-0.0157, 0.0125, -0.003), (-0.02, -0.02, -0.003), (-0.0122211, 0.00931218, -0.003), (-0.0120823, 0.00932738, -0.003), (0.02, 0.02, -0.003), (-0.00932738, 0.0120823, -0.003), (-0.00931218, 0.0122211, -0.003), (-0.010552, 0.0150387, -0.003), (-0.0106646, 0.0151213, -0.003), (0.015697, -0.0123604, -0.003), (0.0156878, -0.0122211, -0.003), (0.02, -0.02, -0.003), (0.00972872, -0.0109, -0.003), (0.00966157, -0.0110224, -0.003), (0.00940904, -0.0116718, -0.003), (0.0126396, -0.00930305, -0.003), (-0.0123604, 0.015697, -0.003), (-0.0125, 0.0157, -0.003), (-0.015507, 0.0135945, -0.003), (-0.0155519, 0.0134623, -0.003), (-0.015591, 0.0133282, -0.003), (0.0142194, -0.0151989, -0.003), (0.0143354, -0.0151213, -0.003), (0.00954359, -0.0112754, -0.003), (0.00949298, -0.0114055, -0.003), (0.0127789, -0.00931218, -0.003), (-0.015697, 0.0123604, -0.003), (-0.0156878, 0.0122211, -0.003), (-0.0156726, 0.0120823, -0.003), (-0.0111476, 0.00959982, -0.003), (-0.0110224, 0.00966157, -0.003), (-0.0109, 0.00972872, -0.003), (-0.0107806, 0.00980115, -0.003), (-0.0106646, 0.00987871, -0.003), (-0.010552, 0.00996127, -0.003), (-0.0104431, 0.0100487, -0.003), (-0.00966157, 0.0139776, -0.003), (-0.00959982, 0.0138524, -0.003), (-0.00954359, 0.0137246, -0.003), (-0.0137246, 0.0154564, -0.003), (-0.0138524, 0.0154002, -0.003), (-0.0139776, 0.0153384, -0.003), (-0.0153384, 0.0139776, -0.003), (-0.0154002, 0.0138524, -0.003), (-0.0154564, 0.0137246, -0.003), (0.00931218, -0.0127789, -0.003), (0.00996127, -0.014448, -0.003), (0.0100487, -0.0145569, -0.003), (0.0101407, -0.0146619, -0.003), (0.0153384, -0.0110224, -0.003), (0.0154002, -0.0111476, -0.003), (0.0154564, -0.0112754, -0.003), (0.0151213, -0.0106646, -0.003), (0.0150387, -0.010552, -0.003), (-0.0101407, 0.0103381, -0.003), (-0.0100487, 0.0104431, -0.003), (-0.00996127, 0.010552, -0.003), (-0.00940904, 0.0116718, -0.003), (-0.00937585, 0.0118074, -0.003), (-0.00934862, 0.0119443, -0.003), (-0.00987871, 0.0143354, -0.003), (-0.00996127, 0.014448, -0.003), (-0.0100487, 0.0145569, -0.003), (-0.0101407, 0.0146619, -0.003), (-0.0102373, 0.0147627, -0.003), (-0.0103381, 0.0148593, -0.003), (-0.0104431, 0.0149513, -0.003), (-0.0107806, 0.0151989, -0.003), (-0.0109, 0.0152713, -0.003), (-0.0110224, 0.0153384, -0.003), (-0.0111476, 0.0154002, -0.003), (-0.0112754, 0.0154564, -0.003), (-0.0114055, 0.015507, -0.003), (-0.0119443, 0.0156514, -0.003), (-0.0120823, 0.0156726, -0.003), (-0.0122211, 0.0156878, -0.003), (-0.0126396, 0.015697, -0.003), (-0.0127789, 0.0156878, -0.003), (-0.0129177, 0.0156726, -0.003), (-0.0148593, 0.0146619, -0.003), (-0.0147627, 0.0147627, -0.003), (-0.0146619, 0.0148593, -0.003), (0.00937585, -0.0131926, -0.003), (0.00940904, -0.0133282, -0.003), (0.015591, -0.0133282, -0.003), (0.0156241, -0.0131926, -0.003), (0.0149513, -0.0104431, -0.003), (0.0148593, -0.0103381, -0.003), (0.0147627, -0.0102373, -0.003), (0.0146619, -0.0101407, -0.003), (0.0145569, -0.0100487, -0.003), (0.014448, -0.00996127, -0.003), (0.00937585, -0.0118074, -0.003), (0.00934862, -0.0119443, -0.003), (-0.0149513, 0.0104431, -0.003), (-0.0150387, 0.010552, -0.003), (-0.0119443, 0.00934862, -0.003), (-0.0118074, 0.00937585, -0.003), (-0.0116718, 0.00940904, -0.003), (-0.0115377, 0.00944811, -0.003), (-0.0114055, 0.00949298, -0.003), (-0.0112754, 0.00954359, -0.003), (-0.00987871, 0.0106646, -0.003), (-0.00980115, 0.0107806, -0.003), (-0.00972872, 0.0109, -0.003), (-0.00931218, 0.0127789, -0.003), (-0.0115377, 0.0155519, -0.003), (-0.0116718, 0.015591, -0.003), (-0.0118074, 0.0156241, -0.003), (-0.0130557, 0.0156514, -0.003), (-0.0131926, 0.0156241, -0.003), (-0.0133282, 0.015591, -0.003), (-0.0134623, 0.0155519, -0.003), (-0.0135945, 0.015507, -0.003), (-0.0143354, 0.0151213, -0.003), (-0.014448, 0.0150387, -0.003), (-0.0145569, 0.0149513, -0.003), (-0.0149513, 0.0145569, -0.003), (-0.0150387, 0.014448, -0.003), (-0.0151213, 0.0143354, -0.003), (0.00944811, -0.0134623, -0.003), (0.00949298, -0.0135945, -0.003), (0.00954359, -0.0137246, -0.003), (0.0102373, -0.0147627, -0.003), (0.0103381, -0.0148593, -0.003), (0.0104431, -0.0149513, -0.003), (0.0111476, -0.0154002, -0.003), (0.0112754, -0.0154564, -0.003), (0.0114055, -0.015507, -0.003), (0.0119443, -0.0156514, -0.003), (0.0120823, -0.0156726, -0.003), (0.0156726, -0.0120823, -0.003), (0.0156514, -0.0119443, -0.003), (0.0156241, -0.0118074, -0.003), (0.015591, -0.0116718, -0.003), (0.0155519, -0.0115377, -0.003), (0.015507, -0.0114055, -0.003), (0.0114055, -0.00949298, -0.003), (0.0112754, -0.00954359, -0.003), (0.0111476, -0.00959982, -0.003), (0.0103381, -0.0101407, -0.003), (0.0102373, -0.0102373, -0.003), (0.00959982, -0.0111476, -0.003), (0.00931218, -0.0122211, -0.003), (0.00944811, -0.0115377, -0.003), (0.0141, -0.00972872, -0.003), (0.0139776, -0.00966157, -0.003), (0.0135945, -0.00949298, -0.003), (0.0134623, -0.00944811, -0.003), (0.0133282, -0.00940904, -0.003), (0.0131926, -0.00937585, -0.003), (0.0142194, -0.00980115, -0.003), (-0.0156514, 0.0119443, -0.003), (-0.0156241, 0.0118074, -0.003), (-0.015591, 0.0116718, -0.003), (-0.0148593, 0.0103381, -0.003), (-0.0103381, 0.0101407, -0.003), (-0.0102373, 0.0102373, -0.003), (-0.00966157, 0.0110224, -0.003), (-0.00959982, 0.0111476, -0.003), (-0.00954359, 0.0112754, -0.003), (-0.00949298, 0.0114055, -0.003), (-0.00944811, 0.0115377, -0.003), (-0.00934862, 0.0130557, -0.003), (-0.00937585, 0.0131926, -0.003), (-0.00940904, 0.0133282, -0.003), (-0.00972872, 0.0141, -0.003), (-0.00980115, 0.0142194, -0.003), (-0.0141, 0.0152713, -0.003), (-0.0142194, 0.0151989, -0.003), (-0.0151989, 0.0142194, -0.003), (-0.0152713, 0.0141, -0.003), (0.00932738, -0.0129177, -0.003), (0.00934862, -0.0130557, -0.003), (0.00972872, -0.0141, -0.003), (0.00980115, -0.0142194, -0.003), (0.00987871, -0.0143354, -0.003), (0.0115377, -0.0155519, -0.003), (0.0116718, -0.015591, -0.003), (0.0118074, -0.0156241, -0.003), (0.0122211, -0.0156878, -0.003), (0.0123604, -0.015697, -0.003), (0.0125, -0.0157, -0.003), (0.0133282, -0.015591, -0.003), (0.0134623, -0.0155519, -0.003), (0.0149513, -0.0145569, -0.003), (0.0150387, -0.014448, -0.003), (0.0156514, -0.0130557, -0.003), (0.0156726, -0.0129177, -0.003), (0.0156878, -0.0127789, -0.003), (0.0152713, -0.0109, -0.003), (0.0151989, -0.0107806, -0.003), (0.0125, -0.0093, -0.003), (0.0123604, -0.00930305, -0.003), (0.0122211, -0.00931218, -0.003), (0.0120823, -0.00932738, -0.003), (0.0101407, -0.0103381, -0.003), (0.0100487, -0.0104431, -0.003), (0.00996127, -0.010552, -0.003), (0.00932738, -0.0120823, -0.003), (0.0138524, -0.00959982, -0.003), (0.0137246, -0.00954359, -0.003), (-0.0155519, 0.0115377, -0.003), (-0.015507, 0.0114055, -0.003), (-0.0154564, 0.0112754, -0.003), (-0.0154002, 0.0111476, -0.003), (-0.0153384, 0.0110224, -0.003), (-0.0152713, 0.0109, -0.003), (-0.0151989, 0.0107806, -0.003), (-0.0151213, 0.0106646, -0.003), (-0.0138524, 0.00959982, -0.003), (-0.0137246, 0.00954359, -0.003), (-0.0123604, 0.00930305, -0.003), (-0.0125, 0.0093, -0.003), (-0.0126396, 0.00930305, -0.003), (-0.00930305, 0.0123604, -0.003), (-0.0093, 0.0125, -0.003), (-0.00932738, 0.0129177, -0.003), (0.00930305, -0.0123604, -0.003), (0.0093, -0.0125, -0.003), (0.00930305, -0.0126396, -0.003), (0.00959982, -0.0138524, -0.003), (0.00966157, -0.0139776, -0.003), (0.010552, -0.0150387, -0.003), (0.0106646, -0.0151213, -0.003), (0.0107806, -0.0151989, -0.003), (0.0109, -0.0152713, -0.003), (0.0110224, -0.0153384, -0.003), (0.014448, -0.0150387, -0.003), (0.0145569, -0.0149513, -0.003), (0.0146619, -0.0148593, -0.003), (0.0151213, -0.0143354, -0.003), (0.0151989, -0.0142194, -0.003), (0.0152713, -0.0141, -0.003), (0.015697, -0.0126396, -0.003), (0.0157, -0.0125, -0.003), (0.0119443, -0.00934862, -0.003), (0.0118074, -0.00937585, -0.003), (0.0116718, -0.00940904, -0.003), (0.0115377, -0.00944811, -0.003), (0.0106646, -0.00987871, -0.003), (0.010552, -0.00996127, -0.003), (0.0104431, -0.0100487, -0.003), (0.0130557, -0.00934862, -0.003), (0.0129177, -0.00932738, -0.003), (0.0143354, -0.00987871, -0.003), (-0.0147627, 0.0102373, -0.003), (-0.0146619, 0.0101407, -0.003), (-0.0145569, 0.0100487, -0.003), (-0.0134623, 0.00944811, -0.003), (-0.0135945, 0.00949298, -0.003), (-0.0133282, 0.00940904, -0.003), (-0.00944811, 0.0134623, -0.003), (-0.00949298, 0.0135945, -0.003), (0.0135945, -0.015507, -0.003), (0.0137246, -0.0154564, -0.003), (0.0138524, -0.0154002, -0.003), (0.0147627, -0.0147627, -0.003), (0.0148593, -0.0146619, -0.003), (0.0153384, -0.0139776, -0.003), (0.0154002, -0.0138524, -0.003), (0.0154564, -0.0137246, -0.003), (0.015507, -0.0135945, -0.003), (0.0155519, -0.0134623, -0.003), (0.00987871, -0.0106646, -0.003), (0.00980115, -0.0107806, -0.003), (-0.0131926, 0.00937585, -0.003), (-0.0130557, 0.00934862, -0.003), (-0.0129177, 0.00932738, -0.003), (-0.0127789, 0.00931218, -0.003), (0.0126396, -0.015697, -0.003), (0.0127789, -0.0156878, -0.003), (0.0129177, -0.0156726, -0.003), (0.0139776, -0.0153384, -0.003), (0.0141, -0.0152713, -0.003), (-0.014448, 0.00996127, -0.003), (-0.0143354, 0.00987871, -0.003), (-0.0142194, 0.00980115, -0.003), (-0.0141, 0.00972872, -0.003), (-0.0139776, 0.00966157, -0.003), (-0.00930305, 0.0126396, -0.003), (0.0110224, -0.00966157, -0.003), (0.0109, -0.00972872, -0.003), (0.0107806, -0.00980115, -0.003), (0.0130557, -0.0156514, -0.003), (0.0131926, -0.0156241, -0.003), (0, 2.75546e-19, 0)]
            }
        }
    }
}

