#usda 1.0
(
    defaultPrim = "Root"
    metersPerUnit = 1
    upAxis = "Z"
)

def Xform "Root" (
    prepend references = @https://omniverse-content-production.s3-us-west-2.amazonaws.com/Assets/Isaac/5.1/Isaac/IsaacLab/Factory/factory_hole_8mm.usd@
)
{
    over "forge_hole_8mm"
    {
        over "forge_hole_8mm"
        {
            over "mesh"
            {
                uchar[] physxCookedData:convexHull:buffer = None
                uchar[] physxCookedData:triangleMesh:buffer = None
                point3f[] points = [(-0.0125, 0.007, 0), (-0.0125, 0.007, 0.025), (-0.0122601, 0.00700523, 0), (-0.0122601, 0.00700523, 0.025), (-0.0120206, 0.00702093, 0), (-0.0120206, 0.00702093, 0.025), (-0.0117821, 0.00704705, 0), (-0.0117821, 0.00704705, 0.025), (-0.0115449, 0.00708356, 0), (-0.0115449, 0.00708356, 0.025), (-0.0113096, 0.00713037, 0), (-0.0113096, 0.00713037, 0.025), (-0.0110765, 0.00718741, 0), (-0.0110765, 0.00718741, 0.025), (-0.0108461, 0.00725456, 0), (-0.0108461, 0.00725456, 0.025), (-0.0106189, 0.00733169, 0), (-0.0106189, 0.00733169, 0.025), (-0.0103952, 0.00741866, 0), (-0.0103952, 0.00741866, 0.025), (-0.0101756, 0.00751531, 0), (-0.0101756, 0.00751531, 0.025), (-0.00996038, 0.00762144, 0), (-0.00996038, 0.00762144, 0.025), (-0.00975, 0.00773686, 0), (-0.00975, 0.00773686, 0.025), (-0.00954485, 0.00786135, 0), (-0.00954485, 0.00786135, 0.025), (-0.00934533, 0.00799466, 0), (-0.00934533, 0.00799466, 0.025), (-0.00915181, 0.00813656, 0), (-0.00915181, 0.00813656, 0.025), (-0.00896467, 0.00828676, 0), (-0.00896467, 0.00828676, 0.025), (-0.00878425, 0.00844497, 0), (-0.00878425, 0.00844497, 0.025), (-0.00861091, 0.00861091, 0), (-0.00861091, 0.00861091, 0.025), (-0.00844497, 0.00878425, 0), (-0.00844497, 0.00878425, 0.025), (-0.00828676, 0.00896467, 0), (-0.00828676, 0.00896467, 0.025), (-0.00813656, 0.00915181, 0), (-0.00813656, 0.00915181, 0.025), (-0.00799466, 0.00934533, 0), (-0.00799466, 0.00934533, 0.025), (-0.00786135, 0.00954485, 0), (-0.00786135, 0.00954485, 0.025), (-0.00773686, 0.00975, 0), (-0.00773686, 0.00975, 0.025), (-0.00762144, 0.00996038, 0), (-0.00762144, 0.00996038, 0.025), (-0.00751531, 0.0101756, 0), (-0.00751531, 0.0101756, 0.025), (-0.00741866, 0.0103952, 0), (-0.00741866, 0.0103952, 0.025), (-0.00733169, 0.0106189, 0), (-0.00733169, 0.0106189, 0.025), (-0.00725456, 0.0108461, 0), (-0.00725456, 0.0108461, 0.025), (-0.00718741, 0.0110765, 0), (-0.00718741, 0.0110765, 0.025), (-0.00713037, 0.0113096, 0), (-0.00713037, 0.0113096, 0.025), (-0.00708356, 0.0115449, 0), (-0.00708356, 0.0115449, 0.025), (-0.00704705, 0.0117821, 0), (-0.00704705, 0.0117821, 0.025), (-0.00702093, 0.0120206, 0), (-0.00702093, 0.0120206, 0.025), (-0.00700523, 0.0122601, 0), (-0.00700523, 0.0122601, 0.025), (-0.007, 0.0125, 0), (-0.007, 0.0125, 0.025), (0.0125, -0.007, 0), (0.0125, -0.007, 0.025), (0.0122601, -0.00700523, 0), (0.0122601, -0.00700523, 0.025), (0.0120206, -0.00702093, 0), (0.0120206, -0.00702093, 0.025), (0.0117821, -0.00704705, 0), (0.0117821, -0.00704705, 0.025), (0.0115449, -0.00708356, 0), (0.0115449, -0.00708356, 0.025), (0.0113096, -0.00713037, 0), (0.0113096, -0.00713037, 0.025), (0.0110765, -0.00718741, 0), (0.0110765, -0.00718741, 0.025), (0.0108461, -0.00725456, 0), (0.0108461, -0.00725456, 0.025), (0.0106189, -0.00733169, 0), (0.0106189, -0.00733169, 0.025), (0.0103952, -0.00741866, 0), (0.0103952, -0.00741866, 0.025), (0.0101756, -0.00751531, 0), (0.0101756, -0.00751531, 0.025), (0.00996038, -0.00762144, 0), (0.00996038, -0.00762144, 0.025), (0.00975, -0.00773686, 0), (0.00975, -0.00773686, 0.025), (0.00954485, -0.00786135, 0), (0.00954485, -0.00786135, 0.025), (0.00934533, -0.00799466, 0), (0.00934533, -0.00799466, 0.025), (0.00915181, -0.00813656, 0), (0.00915181, -0.00813656, 0.025), (0.00896467, -0.00828676, 0), (0.00896467, -0.00828676, 0.025), (0.00878425, -0.00844497, 0), (0.00878425, -0.00844497, 0.025), (0.00861091, -0.00861091, 0), (0.00861091, -0.00861091, 0.025), (0.00844497, -0.00878425, 0), (0.00844497, -0.00878425, 0.025), (0.00828676, -0.00896467, 0), (0.00828676, -0.00896467, 0.025), (0.00813656, -0.00915181, 0), (0.00813656, -0.00915181, 0.025), (0.00799466, -0.00934533, 0), (0.00799466, -0.00934533, 0.025), (0.00786135, -0.00954485, 0), (0.00786135, -0.00954485, 0.025), (0.00773686, -0.00975, 0), (0.00773686, -0.00975, 0.025), (0.00762144, -0.00996038, 0), (0.00762144, -0.00996038, 0.025), (0.00751531, -0.0101756, 0), (0.00751531, -0.0101756, 0.025), (0.00741866, -0.0103952, 0), (0.00741866, -0.0103952, 0.025), (0.00733169, -0.0106189, 0), (0.00733169, -0.0106189, 0.025), (0.00725456, -0.0108461, 0), (0.00725456, -0.0108461, 0.025), (0.00718741, -0.0110765, 0), (0.00718741, -0.0110765, 0.025), (0.00713037, -0.0113096, 0), (0.00713037, -0.0113096, 0.025), (0.00708356, -0.0115449, 0), (0.00708356, -0.0115449, 0.025), (0.00704705, -0.0117821, 0), (0.00704705, -0.0117821, 0.025), (0.00702093, -0.0120206, 0), (0.00702093, -0.0120206, 0.025), (0.00700523, -0.0122601, 0), (0.00700523, -0.0122601, 0.025), (0.007, -0.0125, 0), (0.007, -0.0125, 0.025), (-0.007, -0.0125, 0), (-0.007, -0.0125, 0.025), (-0.00700523, -0.0122601, 0), (-0.00700523, -0.0122601, 0.025), (-0.00702093, -0.0120206, 0), (-0.00702093, -0.0120206, 0.025), (-0.00704705, -0.0117821, 0), (-0.00704705, -0.0117821, 0.025), (-0.00708356, -0.0115449, 0), (-0.00708356, -0.0115449, 0.025), (-0.00713037, -0.0113096, 0), (-0.00713037, -0.0113096, 0.025), (-0.00718741, -0.0110765, 0), (-0.00718741, -0.0110765, 0.025), (-0.00725456, -0.0108461, 0), (-0.00725456, -0.0108461, 0.025), (-0.00733169, -0.0106189, 0), (-0.00733169, -0.0106189, 0.025), (-0.00741866, -0.0103952, 0), (-0.00741866, -0.0103952, 0.025), (-0.00751531, -0.0101756, 0), (-0.00751531, -0.0101756, 0.025), (-0.00762144, -0.00996038, 0), (-0.00762144, -0.00996038, 0.025), (-0.00773686, -0.00975, 0), (-0.00773686, -0.00975, 0.025), (-0.00786135, -0.00954485, 0), (-0.00786135, -0.00954485, 0.025), (-0.00799466, -0.00934533, 0), (-0.00799466, -0.00934533, 0.025), (-0.00813656, -0.00915181, 0), (-0.00813656, -0.00915181, 0.025), (-0.00828676, -0.00896467, 0), (-0.00828676, -0.00896467, 0.025), (-0.00844497, -0.00878425, 0), (-0.00844497, -0.00878425, 0.025), (-0.00861091, -0.00861091, 0), (-0.00861091, -0.00861091, 0.025), (-0.00878425, -0.00844497, 0), (-0.00878425, -0.00844497, 0.025), (-0.00896467, -0.00828676, 0), (-0.00896467, -0.00828676, 0.025), (-0.00915181, -0.00813656, 0), (-0.00915181, -0.00813656, 0.025), (-0.00934533, -0.00799466, 0), (-0.00934533, -0.00799466, 0.025), (-0.00954485, -0.00786135, 0), (-0.00954485, -0.00786135, 0.025), (-0.00975, -0.00773686, 0), (-0.00975, -0.00773686, 0.025), (-0.00996038, -0.00762144, 0), (-0.00996038, -0.00762144, 0.025), (-0.0101756, -0.00751531, 0), (-0.0101756, -0.00751531, 0.025), (-0.0103952, -0.00741866, 0), (-0.0103952, -0.00741866, 0.025), (-0.0106189, -0.00733169, 0), (-0.0106189, -0.00733169, 0.025), (-0.0108461, -0.00725456, 0), (-0.0108461, -0.00725456, 0.025), (-0.0110765, -0.00718741, 0), (-0.0110765, -0.00718741, 0.025), (-0.0113096, -0.00713037, 0), (-0.0113096, -0.00713037, 0.025), (-0.0115449, -0.00708356, 0), (-0.0115449, -0.00708356, 0.025), (-0.0117821, -0.00704705, 0), (-0.0117821, -0.00704705, 0.025), (-0.0120206, -0.00702093, 0), (-0.0120206, -0.00702093, 0.025), (-0.0122601, -0.00700523, 0), (-0.0122601, -0.00700523, 0.025), (-0.0125, -0.007, 0), (-0.0125, -0.007, 0.025), (0.007, 0.0125, 0), (0.007, 0.0125, 0.025), (0.00700523, 0.0122601, 0), (0.00700523, 0.0122601, 0.025), (0.00702093, 0.0120206, 0), (0.00702093, 0.0120206, 0.025), (0.00704705, 0.0117821, 0), (0.00704705, 0.0117821, 0.025), (0.00708356, 0.0115449, 0), (0.00708356, 0.0115449, 0.025), (0.00713037, 0.0113096, 0), (0.00713037, 0.0113096, 0.025), (0.00718741, 0.0110765, 0), (0.00718741, 0.0110765, 0.025), (0.00725456, 0.0108461, 0), (0.00725456, 0.0108461, 0.025), (0.00733169, 0.0106189, 0), (0.00733169, 0.0106189, 0.025), (0.00741866, 0.0103952, 0), (0.00741866, 0.0103952, 0.025), (0.00751531, 0.0101756, 0), (0.00751531, 0.0101756, 0.025), (0.00762144, 0.00996038, 0), (0.00762144, 0.00996038, 0.025), (0.00773686, 0.00975, 0), (0.00773686, 0.00975, 0.025), (0.00786135, 0.00954485, 0), (0.00786135, 0.00954485, 0.025), (0.00799466, 0.00934533, 0), (0.00799466, 0.00934533, 0.025), (0.00813656, 0.00915181, 0), (0.00813656, 0.00915181, 0.025), (0.00828676, 0.00896467, 0), (0.00828676, 0.00896467, 0.025), (0.00844497, 0.00878425, 0), (0.00844497, 0.00878425, 0.025), (0.00861091, 0.00861091, 0), (0.00861091, 0.00861091, 0.025), (0.00878425, 0.00844497, 0), (0.00878425, 0.00844497, 0.025), (0.00896467, 0.00828676, 0), (0.00896467, 0.00828676, 0.025), (0.00915181, 0.00813656, 0), (0.00915181, 0.00813656, 0.025), (0.00934533, 0.00799466, 0), (0.00934533, 0.00799466, 0.025), (0.00954485, 0.00786135, 0), (0.00954485, 0.00786135, 0.025), (0.00975, 0.00773686, 0), (0.00975, 0.00773686, 0.025), (0.00996038, 0.00762144, 0), (0.00996038, 0.00762144, 0.025), (0.0101756, 0.00751531, 0), (0.0101756, 0.00751531, 0.025), (0.0103952, 0.00741866, 0), (0.0103952, 0.00741866, 0.025), (0.0106189, 0.00733169, 0), (0.0106189, 0.00733169, 0.025), (0.0108461, 0.00725456, 0), (0.0108461, 0.00725456, 0.025), (0.0110765, 0.00718741, 0), (0.0110765, 0.00718741, 0.025), (0.0113096, 0.00713037, 0), (0.0113096, 0.00713037, 0.025), (0.0115449, 0.00708356, 0), (0.0115449, 0.00708356, 0.025), (0.0117821, 0.00704705, 0), (0.0117821, 0.00704705, 0.025), (0.0120206, 0.00702093, 0), (0.0120206, 0.00702093, 0.025), (0.0122601, 0.00700523, 0), (0.0122601, 0.00700523, 0.025), (0.0125, 0.007, 0), (0.0125, 0.007, 0.025), (0.0157, 0.0125, -0.003), (0.0157, 0.0125, 0), (0.015697, 0.0126396, -0.003), (0.015697, 0.0126396, 0), (0.0156878, 0.0127789, -0.003), (0.0156878, 0.0127789, 0), (0.0156726, 0.0129177, -0.003), (0.0156726, 0.0129177, 0), (0.0156514, 0.0130557, -0.003), (0.0156514, 0.0130557, 0), (0.0156241, 0.0131926, -0.003), (0.0156241, 0.0131926, 0), (0.015591, 0.0133282, -0.003), (0.015591, 0.0133282, 0), (0.0155519, 0.0134623, -0.003), (0.0155519, 0.0134623, 0), (0.015507, 0.0135945, -0.003), (0.015507, 0.0135945, 0), (0.0154564, 0.0137246, -0.003), (0.0154564, 0.0137246, 0), (0.0154002, 0.0138524, -0.003), (0.0154002, 0.0138524, 0), (0.0153384, 0.0139776, -0.003), (0.0153384, 0.0139776, 0), (0.0152713, 0.0141, -0.003), (0.0152713, 0.0141, 0), (0.0151989, 0.0142194, -0.003), (0.0151989, 0.0142194, 0), (0.0151213, 0.0143354, -0.003), (0.0151213, 0.0143354, 0), (0.0150387, 0.014448, -0.003), (0.0150387, 0.014448, 0), (0.0149513, 0.0145569, -0.003), (0.0149513, 0.0145569, 0), (0.0148593, 0.0146619, -0.003), (0.0148593, 0.0146619, 0), (0.0147627, 0.0147627, -0.003), (0.0147627, 0.0147627, 0), (0.0146619, 0.0148593, -0.003), (0.0146619, 0.0148593, 0), (0.0145569, 0.0149513, -0.003), (0.0145569, 0.0149513, 0), (0.014448, 0.0150387, -0.003), (0.014448, 0.0150387, 0), (0.0143354, 0.0151213, -0.003), (0.0143354, 0.0151213, 0), (0.0142194, 0.0151989, -0.003), (0.0142194, 0.0151989, 0), (0.0141, 0.0152713, -0.003), (0.0141, 0.0152713, 0), (0.0139776, 0.0153384, -0.003), (0.0139776, 0.0153384, 0), (0.0138524, 0.0154002, -0.003), (0.0138524, 0.0154002, 0), (0.0137246, 0.0154564, -0.003), (0.0137246, 0.0154564, 0), (0.0135945, 0.015507, -0.003), (0.0135945, 0.015507, 0), (0.0134623, 0.0155519, -0.003), (0.0134623, 0.0155519, 0), (0.0133282, 0.015591, -0.003), (0.0133282, 0.015591, 0), (0.0131926, 0.0156241, -0.003), (0.0131926, 0.0156241, 0), (0.0130557, 0.0156514, -0.003), (0.0130557, 0.0156514, 0), (0.0129177, 0.0156726, -0.003), (0.0129177, 0.0156726, 0), (0.0127789, 0.0156878, -0.003), (0.0127789, 0.0156878, 0), (0.0126396, 0.015697, -0.003), (0.0126396, 0.015697, 0), (0.0125, 0.0157, -0.003), (0.0125, 0.0157, 0), (0.0123604, 0.015697, -0.003), (0.0123604, 0.015697, 0), (0.0122211, 0.0156878, -0.003), (0.0122211, 0.0156878, 0), (0.0120823, 0.0156726, -0.003), (0.0120823, 0.0156726, 0), (0.0119443, 0.0156514, -0.003), (0.0119443, 0.0156514, 0), (0.0118074, 0.0156241, -0.003), (0.0118074, 0.0156241, 0), (0.0116718, 0.015591, -0.003), (0.0116718, 0.015591, 0), (0.0115377, 0.0155519, -0.003), (0.0115377, 0.0155519, 0), (0.0114055, 0.015507, -0.003), (0.0114055, 0.015507, 0), (0.0112754, 0.0154564, -0.003), (0.0112754, 0.0154564, 0), (0.0111476, 0.0154002, -0.003), (0.0111476, 0.0154002, 0), (0.0110224, 0.0153384, -0.003), (0.0110224, 0.0153384, 0), (0.0109, 0.0152713, -0.003), (0.0109, 0.0152713, 0), (0.0107806, 0.0151989, -0.003), (0.0107806, 0.0151989, 0), (0.0106646, 0.0151213, -0.003), (0.0106646, 0.0151213, 0), (0.010552, 0.0150387, -0.003), (0.010552, 0.0150387, 0), (0.0104431, 0.0149513, -0.003), (0.0104431, 0.0149513, 0), (0.0103381, 0.0148593, -0.003), (0.0103381, 0.0148593, 0), (0.0102373, 0.0147627, -0.003), (0.0102373, 0.0147627, 0), (0.0101407, 0.0146619, -0.003), (0.0101407, 0.0146619, 0), (0.0100487, 0.0145569, -0.003), (0.0100487, 0.0145569, 0), (0.00996127, 0.014448, -0.003), (0.00996127, 0.014448, 0), (0.00987871, 0.0143354, -0.003), (0.00987871, 0.0143354, 0), (0.00980115, 0.0142194, -0.003), (0.00980115, 0.0142194, 0), (0.00972872, 0.0141, -0.003), (0.00972872, 0.0141, 0), (0.00966157, 0.0139776, -0.003), (0.00966157, 0.0139776, 0), (0.00959982, 0.0138524, -0.003), (0.00959982, 0.0138524, 0), (0.00954359, 0.0137246, -0.003), (0.00954359, 0.0137246, 0), (0.00949298, 0.0135945, -0.003), (0.00949298, 0.0135945, 0), (0.00944811, 0.0134623, -0.003), (0.00944811, 0.0134623, 0), (0.00940904, 0.0133282, -0.003), (0.00940904, 0.0133282, 0), (0.00937585, 0.0131926, -0.003), (0.00937585, 0.0131926, 0), (0.00934862, 0.0130557, -0.003), (0.00934862, 0.0130557, 0), (0.00932738, 0.0129177, -0.003), (0.00932738, 0.0129177, 0), (0.00931218, 0.0127789, -0.003), (0.00931218, 0.0127789, 0), (0.00930305, 0.0126396, -0.003), (0.00930305, 0.0126396, 0), (0.0093, 0.0125, -0.003), (0.0093, 0.0125, 0), (0.00930305, 0.0123604, -0.003), (0.00930305, 0.0123604, 0), (0.00931218, 0.0122211, -0.003), (0.00931218, 0.0122211, 0), (0.00932738, 0.0120823, -0.003), (0.00932738, 0.0120823, 0), (0.00934862, 0.0119443, -0.003), (0.00934862, 0.0119443, 0), (0.00937585, 0.0118074, -0.003), (0.00937585, 0.0118074, 0), (0.00940904, 0.0116718, -0.003), (0.00940904, 0.0116718, 0), (0.00944811, 0.0115377, -0.003), (0.00944811, 0.0115377, 0), (0.00949298, 0.0114055, -0.003), (0.00949298, 0.0114055, 0), (0.00954359, 0.0112754, -0.003), (0.00954359, 0.0112754, 0), (0.00959982, 0.0111476, -0.003), (0.00959982, 0.0111476, 0), (0.00966157, 0.0110224, -0.003), (0.00966157, 0.0110224, 0), (0.00972872, 0.0109, -0.003), (0.00972872, 0.0109, 0), (0.00980115, 0.0107806, -0.003), (0.00980115, 0.0107806, 0), (0.00987871, 0.0106646, -0.003), (0.00987871, 0.0106646, 0), (0.00996127, 0.010552, -0.003), (0.00996127, 0.010552, 0), (0.0100487, 0.0104431, -0.003), (0.0100487, 0.0104431, 0), (0.0101407, 0.0103381, -0.003), (0.0101407, 0.0103381, 0), (0.0102373, 0.0102373, -0.003), (0.0102373, 0.0102373, 0), (0.0103381, 0.0101407, -0.003), (0.0103381, 0.0101407, 0), (0.0104431, 0.0100487, -0.003), (0.0104431, 0.0100487, 0), (0.010552, 0.00996127, -0.003), (0.010552, 0.00996127, 0), (0.0106646, 0.00987871, -0.003), (0.0106646, 0.00987871, 0), (0.0107806, 0.00980115, -0.003), (0.0107806, 0.00980115, 0), (0.0109, 0.00972872, -0.003), (0.0109, 0.00972872, 0), (0.0110224, 0.00966157, -0.003), (0.0110224, 0.00966157, 0), (0.0111476, 0.00959982, -0.003), (0.0111476, 0.00959982, 0), (0.0112754, 0.00954359, -0.003), (0.0112754, 0.00954359, 0), (0.0114055, 0.00949298, -0.003), (0.0114055, 0.00949298, 0), (0.0115377, 0.00944811, -0.003), (0.0115377, 0.00944811, 0), (0.0116718, 0.00940904, -0.003), (0.0116718, 0.00940904, 0), (0.0118074, 0.00937585, -0.003), (0.0118074, 0.00937585, 0), (0.0119443, 0.00934862, -0.003), (0.0119443, 0.00934862, 0), (0.0120823, 0.00932738, -0.003), (0.0120823, 0.00932738, 0), (0.0122211, 0.00931218, -0.003), (0.0122211, 0.00931218, 0), (0.0123604, 0.00930305, -0.003), (0.0123604, 0.00930305, 0), (0.0125, 0.0093, -0.003), (0.0125, 0.0093, 0), (0.0126396, 0.00930305, -0.003), (0.0126396, 0.00930305, 0), (0.0127789, 0.00931218, -0.003), (0.0127789, 0.00931218, 0), (0.0129177, 0.00932738, -0.003), (0.0129177, 0.00932738, 0), (0.0130557, 0.00934862, -0.003), (0.0130557, 0.00934862, 0), (0.0131926, 0.00937585, -0.003), (0.0131926, 0.00937585, 0), (0.0133282, 0.00940904, -0.003), (0.0133282, 0.00940904, 0), (0.0134623, 0.00944811, -0.003), (0.0134623, 0.00944811, 0), (0.0135945, 0.00949298, -0.003), (0.0135945, 0.00949298, 0), (0.0137246, 0.00954359, -0.003), (0.0137246, 0.00954359, 0), (0.0138524, 0.00959982, -0.003), (0.0138524, 0.00959982, 0), (0.0139776, 0.00966157, -0.003), (0.0139776, 0.00966157, 0), (0.0141, 0.00972872, -0.003), (0.0141, 0.00972872, 0), (0.0142194, 0.00980115, -0.003), (0.0142194, 0.00980115, 0), (0.0143354, 0.00987871, -0.003), (0.0143354, 0.00987871, 0), (0.014448, 0.00996127, -0.003), (0.014448, 0.00996127, 0), (0.0145569, 0.0100487, -0.003), (0.0145569, 0.0100487, 0), (0.0146619, 0.0101407, -0.003), (0.0146619, 0.0101407, 0), (0.0147627, 0.0102373, -0.003), (0.0147627, 0.0102373, 0), (0.0148593, 0.0103381, -0.003), (0.0148593, 0.0103381, 0), (0.0149513, 0.0104431, -0.003), (0.0149513, 0.0104431, 0), (0.0150387, 0.010552, -0.003), (0.0150387, 0.010552, 0), (0.0151213, 0.0106646, -0.003), (0.0151213, 0.0106646, 0), (0.0151989, 0.0107806, -0.003), (0.0151989, 0.0107806, 0), (0.0152713, 0.0109, -0.003), (0.0152713, 0.0109, 0), (0.0153384, 0.0110224, -0.003), (0.0153384, 0.0110224, 0), (0.0154002, 0.0111476, -0.003), (0.0154002, 0.0111476, 0), (0.0154564, 0.0112754, -0.003), (0.0154564, 0.0112754, 0), (0.015507, 0.0114055, -0.003), (0.015507, 0.0114055, 0), (0.0155519, 0.0115377, -0.003), (0.0155519, 0.0115377, 0), (0.015591, 0.0116718, -0.003), (0.015591, 0.0116718, 0), (0.0156241, 0.0118074, -0.003), (0.0156241, 0.0118074, 0), (0.0156514, 0.0119443, -0.003), (0.0156514, 0.0119443, 0), (0.0156726, 0.0120823, -0.003), (0.0156726, 0.0120823, 0), (0.0156878, 0.0122211, -0.003), (0.0156878, 0.0122211, 0), (0.015697, 0.0123604, -0.003), (0.015697, 0.0123604, 0), (-0.0093, -0.0125, -0.003), (-0.0093, -0.0125, 0), (-0.00930305, -0.0123604, -0.003), (-0.00930305, -0.0123604, 0), (-0.00931218, -0.0122211, -0.003), (-0.00931218, -0.0122211, 0), (-0.00932738, -0.0120823, -0.003), (-0.00932738, -0.0120823, 0), (-0.00934862, -0.0119443, -0.003), (-0.00934862, -0.0119443, 0), (-0.00937585, -0.0118074, -0.003), (-0.00937585, -0.0118074, 0), (-0.00940904, -0.0116718, -0.003), (-0.00940904, -0.0116718, 0), (-0.00944811, -0.0115377, -0.003), (-0.00944811, -0.0115377, 0), (-0.00949298, -0.0114055, -0.003), (-0.00949298, -0.0114055, 0), (-0.00954359, -0.0112754, -0.003), (-0.00954359, -0.0112754, 0), (-0.00959982, -0.0111476, -0.003), (-0.00959982, -0.0111476, 0), (-0.00966157, -0.0110224, -0.003), (-0.00966157, -0.0110224, 0), (-0.00972872, -0.0109, -0.003), (-0.00972872, -0.0109, 0), (-0.00980115, -0.0107806, -0.003), (-0.00980115, -0.0107806, 0), (-0.00987871, -0.0106646, -0.003), (-0.00987871, -0.0106646, 0), (-0.00996127, -0.010552, -0.003), (-0.00996127, -0.010552, 0), (-0.0100487, -0.0104431, -0.003), (-0.0100487, -0.0104431, 0), (-0.0101407, -0.0103381, -0.003), (-0.0101407, -0.0103381, 0), (-0.0102373, -0.0102373, -0.003), (-0.0102373, -0.0102373, 0), (-0.0103381, -0.0101407, -0.003), (-0.0103381, -0.0101407, 0), (-0.0104431, -0.0100487, -0.003), (-0.0104431, -0.0100487, 0), (-0.010552, -0.00996127, -0.003), (-0.010552, -0.00996127, 0), (-0.0106646, -0.00987871, -0.003), (-0.0106646, -0.00987871, 0), (-0.0107806, -0.00980115, -0.003), (-0.0107806, -0.00980115, 0), (-0.0109, -0.00972872, -0.003), (-0.0109, -0.00972872, 0), (-0.0110224, -0.00966157, -0.003), (-0.0110224, -0.00966157, 0), (-0.0111476, -0.00959982, -0.003), (-0.0111476, -0.00959982, 0), (-0.0112754, -0.00954359, -0.003), (-0.0112754, -0.00954359, 0), (-0.0114055, -0.00949298, -0.003), (-0.0114055, -0.00949298, 0), (-0.0115377, -0.00944811, -0.003), (-0.0115377, -0.00944811, 0), (-0.0116718, -0.00940904, -0.003), (-0.0116718, -0.00940904, 0), (-0.0118074, -0.00937585, -0.003), (-0.0118074, -0.00937585, 0), (-0.0119443, -0.00934862, -0.003), (-0.0119443, -0.00934862, 0), (-0.0120823, -0.00932738, -0.003), (-0.0120823, -0.00932738, 0), (-0.0122211, -0.00931218, -0.003), (-0.0122211, -0.00931218, 0), (-0.0123604, -0.00930305, -0.003), (-0.0123604, -0.00930305, 0), (-0.0125, -0.0093, -0.003), (-0.0125, -0.0093, 0), (-0.0126396, -0.00930305, -0.003), (-0.0126396, -0.00930305, 0), (-0.0127789, -0.00931218, -0.003), (-0.0127789, -0.00931218, 0), (-0.0129177, -0.00932738, -0.003), (-0.0129177, -0.00932738, 0), (-0.0130557, -0.00934862, -0.003), (-0.0130557, -0.00934862, 0), (-0.0131926, -0.00937585, -0.003), (-0.0131926, -0.00937585, 0), (-0.0133282, -0.00940904, -0.003), (-0.0133282, -0.00940904, 0), (-0.0134623, -0.00944811, -0.003), (-0.0134623, -0.00944811, 0), (-0.0135945, -0.00949298, -0.003), (-0.0135945, -0.00949298, 0), (-0.0137246, -0.00954359, -0.003), (-0.0137246, -0.00954359, 0), (-0.0138524, -0.00959982, -0.003), (-0.0138524, -0.00959982, 0), (-0.0139776, -0.00966157, -0.003), (-0.0139776, -0.00966157, 0), (-0.0141, -0.00972872, -0.003), (-0.0141, -0.00972872, 0), (-0.0142194, -0.00980115, -0.003), (-0.0142194, -0.00980115, 0), (-0.0143354, -0.00987871, -0.003), (-0.0143354, -0.00987871, 0), (-0.014448, -0.00996127, -0.003), (-0.014448, -0.00996127, 0), (-0.0145569, -0.0100487, -0.003), (-0.0145569, -0.0100487, 0), (-0.0146619, -0.0101407, -0.003), (-0.0146619, -0.0101407, 0), (-0.0147627, -0.0102373, -0.003), (-0.0147627, -0.0102373, 0), (-0.0148593, -0.0103381, -0.003), (-0.0148593, -0.0103381, 0), (-0.0149513, -0.0104431, -0.003), (-0.0149513, -0.0104431, 0), (-0.0150387, -0.010552, -0.003), (-0.0150387, -0.010552, 0), (-0.0151213, -0.0106646, -0.003), (-0.0151213, -0.0106646, 0), (-0.0151989, -0.0107806, -0.003), (-0.0151989, -0.0107806, 0), (-0.0152713, -0.0109, -0.003), (-0.0152713, -0.0109, 0), (-0.0153384, -0.0110224, -0.003), (-0.0153384, -0.0110224, 0), (-0.0154002, -0.0111476, -0.003), (-0.0154002, -0.0111476, 0), (-0.0154564, -0.0112754, -0.003), (-0.0154564, -0.0112754, 0), (-0.015507, -0.0114055, -0.003), (-0.015507, -0.0114055, 0), (-0.0155519, -0.0115377, -0.003), (-0.0155519, -0.0115377, 0), (-0.015591, -0.0116718, -0.003), (-0.015591, -0.0116718, 0), (-0.0156241, -0.0118074, -0.003), (-0.0156241, -0.0118074, 0), (-0.0156514, -0.0119443, -0.003), (-0.0156514, -0.0119443, 0), (-0.0156726, -0.0120823, -0.003), (-0.0156726, -0.0120823, 0), (-0.0156878, -0.0122211, -0.003), (-0.0156878, -0.0122211, 0), (-0.015697, -0.0123604, -0.003), (-0.015697, -0.0123604, 0), (-0.0157, -0.0125, -0.003), (-0.0157, -0.0125, 0), (-0.015697, -0.0126396, -0.003), (-0.015697, -0.0126396, 0), (-0.0156878, -0.0127789, -0.003), (-0.0156878, -0.0127789, 0), (-0.0156726, -0.0129177, -0.003), (-0.0156726, -0.0129177, 0), (-0.0156514, -0.0130557, -0.003), (-0.0156514, -0.0130557, 0), (-0.0156241, -0.0131926, -0.003), (-0.0156241, -0.0131926, 0), (-0.015591, -0.0133282, -0.003), (-0.015591, -0.0133282, 0), (-0.0155519, -0.0134623, -0.003), (-0.0155519, -0.0134623, 0), (-0.015507, -0.0135945, -0.003), (-0.015507, -0.0135945, 0), (-0.0154564, -0.0137246, -0.003), (-0.0154564, -0.0137246, 0), (-0.0154002, -0.0138524, -0.003), (-0.0154002, -0.0138524, 0), (-0.0153384, -0.0139776, -0.003), (-0.0153384, -0.0139776, 0), (-0.0152713, -0.0141, -0.003), (-0.0152713, -0.0141, 0), (-0.0151989, -0.0142194, -0.003), (-0.0151989, -0.0142194, 0), (-0.0151213, -0.0143354, -0.003), (-0.0151213, -0.0143354, 0), (-0.0150387, -0.014448, -0.003), (-0.0150387, -0.014448, 0), (-0.0149513, -0.0145569, -0.003), (-0.0149513, -0.0145569, 0), (-0.0148593, -0.0146619, -0.003), (-0.0148593, -0.0146619, 0), (-0.0147627, -0.0147627, -0.003), (-0.0147627, -0.0147627, 0), (-0.0146619, -0.0148593, -0.003), (-0.0146619, -0.0148593, 0), (-0.0145569, -0.0149513, -0.003), (-0.0145569, -0.0149513, 0), (-0.014448, -0.0150387, -0.003), (-0.014448, -0.0150387, 0), (-0.0143354, -0.0151213, -0.003), (-0.0143354, -0.0151213, 0), (-0.0142194, -0.0151989, -0.003), (-0.0142194, -0.0151989, 0), (-0.0141, -0.0152713, -0.003), (-0.0141, -0.0152713, 0), (-0.0139776, -0.0153384, -0.003), (-0.0139776, -0.0153384, 0), (-0.0138524, -0.0154002, -0.003), (-0.0138524, -0.0154002, 0), (-0.0137246, -0.0154564, -0.003), (-0.0137246, -0.0154564, 0), (-0.0135945, -0.015507, -0.003), (-0.0135945, -0.015507, 0), (-0.0134623, -0.0155519, -0.003), (-0.0134623, -0.0155519, 0), (-0.0133282, -0.015591, -0.003), (-0.0133282, -0.015591, 0), (-0.0131926, -0.0156241, -0.003), (-0.0131926, -0.0156241, 0), (-0.0130557, -0.0156514, -0.003), (-0.0130557, -0.0156514, 0), (-0.0129177, -0.0156726, -0.003), (-0.0129177, -0.0156726, 0), (-0.0127789, -0.0156878, -0.003), (-0.0127789, -0.0156878, 0), (-0.0126396, -0.015697, -0.003), (-0.0126396, -0.015697, 0), (-0.0125, -0.0157, -0.003), (-0.0125, -0.0157, 0), (-0.0123604, -0.015697, -0.003), (-0.0123604, -0.015697, 0), (-0.0122211, -0.0156878, -0.003), (-0.0122211, -0.0156878, 0), (-0.0120823, -0.0156726, -0.003), (-0.0120823, -0.0156726, 0), (-0.0119443, -0.0156514, -0.003), (-0.0119443, -0.0156514, 0), (-0.0118074, -0.0156241, -0.003), (-0.0118074, -0.0156241, 0), (-0.0116718, -0.015591, -0.003), (-0.0116718, -0.015591, 0), (-0.0115377, -0.0155519, -0.003), (-0.0115377, -0.0155519, 0), (-0.0114055, -0.015507, -0.003), (-0.0114055, -0.015507, 0), (-0.0112754, -0.0154564, -0.003), (-0.0112754, -0.0154564, 0), (-0.0111476, -0.0154002, -0.003), (-0.0111476, -0.0154002, 0), (-0.0110224, -0.0153384, -0.003), (-0.0110224, -0.0153384, 0), (-0.0109, -0.0152713, -0.003), (-0.0109, -0.0152713, 0), (-0.0107806, -0.0151989, -0.003), (-0.0107806, -0.0151989, 0), (-0.0106646, -0.0151213, -0.003), (-0.0106646, -0.0151213, 0), (-0.010552, -0.0150387, -0.003), (-0.010552, -0.0150387, 0), (-0.0104431, -0.0149513, -0.003), (-0.0104431, -0.0149513, 0), (-0.0103381, -0.0148593, -0.003), (-0.0103381, -0.0148593, 0), (-0.0102373, -0.0147627, -0.003), (-0.0102373, -0.0147627, 0), (-0.0101407, -0.0146619, -0.003), (-0.0101407, -0.0146619, 0), (-0.0100487, -0.0145569, -0.003), (-0.0100487, -0.0145569, 0), (-0.00996127, -0.014448, -0.003), (-0.00996127, -0.014448, 0), (-0.00987871, -0.0143354, -0.003), (-0.00987871, -0.0143354, 0), (-0.00980115, -0.0142194, -0.003), (-0.00980115, -0.0142194, 0), (-0.00972872, -0.0141, -0.003), (-0.00972872, -0.0141, 0), (-0.00966157, -0.0139776, -0.003), (-0.00966157, -0.0139776, 0), (-0.00959982, -0.0138524, -0.003), (-0.00959982, -0.0138524, 0), (-0.00954359, -0.0137246, -0.003), (-0.00954359, -0.0137246, 0), (-0.00949298, -0.0135945, -0.003), (-0.00949298, -0.0135945, 0), (-0.00944811, -0.0134623, -0.003), (-0.00944811, -0.0134623, 0), (-0.00940904, -0.0133282, -0.003), (-0.00940904, -0.0133282, 0), (-0.00937585, -0.0131926, -0.003), (-0.00937585, -0.0131926, 0), (-0.00934862, -0.0130557, -0.003), (-0.00934862, -0.0130557, 0), (-0.00932738, -0.0129177, -0.003), (-0.00932738, -0.0129177, 0), (-0.00931218, -0.0127789, -0.003), (-0.00931218, -0.0127789, 0), (-0.00930305, -0.0126396, -0.003), (-0.00930305, -0.0126396, 0), (-0.0006778225, 0.0051485766, 0.025), (-0.000901755, 0.0051141037, 0.025), (-0.0011239729, 0.0050699073, 0.025), (-0.00045260016, 0.005173238, 0.025), (-0.00022651584, 0.0051880623, 0.025), (6.0833633e-18, 0.005193, 0.025), (-0.004797709, -0.0019872761, 0.025), (0.005193, -1.0117569e-18, 0.025), (0.00022651584, 0.0051880623, 0.025), (0.00045260016, 0.005173238, 0.025), (0.0006778225, 0.0051485766, 0.025), (0.00425386, 0.002978582, 0.025), (-0.0013440428, 0.0050160508, 0.025), (0.0051141037, 0.000901755, 0.025), (0.0051485766, 0.0006778225, 0.025), (0.0051880623, 0.00022651584, 0.025), (0.005173238, 0.00045260016, 0.025), (-0.0015615633, 0.004952649, 0.025), (-0.0017761099, 0.0048798244, 0.025), (-0.0019872761, 0.004797709, 0.025), (0.0051880623, -0.00022651584, 0.025), (0.005173238, -0.00045260016, 0.025), (0.0013440428, 0.0050160508, 0.025), (0.0015615633, 0.004952649, 0.025), (0.0017761099, 0.0048798244, 0.025), (0.0019872761, 0.004797709, 0.025), (0.0050160508, 0.0013440428, 0.025), (0.0050699073, 0.0011239729, 0.025), (-0.002194656, 0.0047064535, 0.025), (0.0051141037, -0.000901755, 0.025), (0.0051485766, -0.0006778225, 0.025), (0.000901755, 0.0051141037, 0.025), (0.0011239729, 0.0050699073, 0.025), (0.002194656, 0.0047064535, 0.025), (0.0023978632, 0.004606248, 0.025), (0.0025965, 0.00449727, 0.025), (0.002790199, 0.004379729, 0.025), (0.002978582, 0.00425386, 0.025), (0.0031613002, 0.0041198805, 0.025), (0.0033379942, 0.0039780643, 0.025), (0.0035083438, 0.003828686, 0.025), (0.0036720082, 0.0036720082, 0.025), (0.004952649, 0.0015615633, 0.025), (0.0048798244, 0.0017761099, 0.025), (-0.0048798244, -0.0017761099, 0.025), (-0.004952649, -0.0015615633, 0.025), (-0.0050160508, -0.0013440428, 0.025), (0.003828686, 0.0035083438, 0.025), (0.0039780643, 0.0033379942, 0.025), (0.0041198805, 0.0031613002, 0.025), (0.004379729, 0.002790199, 0.025), (0.00449727, 0.0025965, 0.025), (0.004606248, 0.0023978632, 0.025), (0.0047064535, 0.002194656, 0.025), (0.004797709, 0.0019872761, 0.025), (-0.0050699073, -0.0011239729, 0.025), (-0.0051141037, -0.000901755, 0.025), (-0.0051485766, -0.0006778225, 0.025), (-0.005173238, -0.00045260016, 0.025), (-0.0051880623, -0.00022651584, 0.025), (-0.005193, 1.4733013e-17, 0.025), (-0.00449727, -0.0025965, 0.025), (-0.004379729, -0.002790199, 0.025), (-0.00425386, -0.002978582, 0.025), (-0.004606248, -0.0023978632, 0.025), (-0.0047064535, -0.002194656, 0.025), (-0.0035083438, -0.003828686, 0.025), (-0.0036720082, -0.0036720082, 0.025), (-0.0051880623, 0.00022651584, 0.025), (-0.005173238, 0.00045260016, 0.025), (-0.0051485766, 0.0006778225, 0.025), (-0.004797709, 0.0019872761, 0.025), (-0.0047064535, 0.002194656, 0.025), (-0.004606248, 0.0023978632, 0.025), (-0.003828686, -0.0035083438, 0.025), (-0.0039780643, -0.0033379942, 0.025), (-0.0041198805, -0.0031613002, 0.025), (-0.0025965, -0.00449727, 0.025), (-0.002790199, -0.004379729, 0.025), (-0.002978582, -0.00425386, 0.025), (0.0050699073, -0.0011239729, 0.025), (0.0050160508, -0.0013440428, 0.025), (0.004952649, -0.0015615633, 0.025), (0.0048798244, -0.0017761099, 0.025), (0.004797709, -0.0019872761, 0.025), (0.0047064535, -0.002194656, 0.025), (-0.0051141037, 0.000901755, 0.025), (-0.0050699073, 0.0011239729, 0.025), (-0.0050160508, 0.0013440428, 0.025), (-0.00449727, 0.0025965, 0.025), (-0.004379729, 0.002790199, 0.025), (-0.00425386, 0.002978582, 0.025), (-0.0041198805, 0.0031613002, 0.025), (-0.0039780643, 0.0033379942, 0.025), (-0.003828686, 0.0035083438, 0.025), (-0.0023978632, 0.004606248, 0.025), (-0.0025965, 0.00449727, 0.025), (-0.0033379942, -0.0039780643, 0.025), (-0.0031613002, -0.0041198805, 0.025), (-0.004952649, 0.0015615633, 0.025), (-0.0048798244, 0.0017761099, 0.025), (-0.0031613002, 0.0041198805, 0.025), (0.0023978632, -0.004606248, 0.025), (0.002194656, -0.0047064535, 0.025), (0.004379729, -0.002790199, 0.025), (0.00425386, -0.002978582, 0.025), (0.0011239729, -0.0050699073, 0.025), (0.000901755, -0.0051141037, 0.025), (0.0006778225, -0.0051485766, 0.025), (0.00449727, -0.0025965, 0.025), (0.004606248, -0.0023978632, 0.025), (-0.0036720082, 0.0036720082, 0.025), (-0.0035083438, 0.003828686, 0.025), (-0.0033379942, 0.0039780643, 0.025), (-0.002978582, 0.00425386, 0.025), (-0.002790199, 0.004379729, 0.025), (0.0015615633, -0.004952649, 0.025), (0.0013440428, -0.0050160508, 0.025), (0.0035083438, -0.003828686, 0.025), (0.0041198805, -0.0031613002, 0.025), (0.0039780643, -0.0033379942, 0.025), (0.003828686, -0.0035083438, 0.025), (-0.00022651584, -0.0051880623, 0.025), (-0.00045260016, -0.005173238, 0.025), (-0.0006778225, -0.0051485766, 0.025), (-0.000901755, -0.0051141037, 0.025), (-0.0011239729, -0.0050699073, 0.025), (-0.0013440428, -0.0050160508, 0.025), (-0.0015615633, -0.004952649, 0.025), (-0.0017761099, -0.0048798244, 0.025), (-0.0019872761, -0.004797709, 0.025), (-0.002194656, -0.0047064535, 0.025), (0.002978582, -0.00425386, 0.025), (0.002790199, -0.004379729, 0.025), (0.0025965, -0.00449727, 0.025), (0.00045260016, -0.005173238, 0.025), (0.00022651584, -0.0051880623, 0.025), (-2.4015454e-17, -0.005193, 0.025), (-0.0023978632, -0.004606248, 0.025), (0.0036720082, -0.0036720082, 0.025), (0.0019872761, -0.004797709, 0.025), (0.0017761099, -0.0048798244, 0.025), (0.0033379942, -0.0039780643, 0.025), (0.0031613002, -0.0041198805, 0.025), (0.004193, 2.5674766e-19, 0), (0.004193, 2.5674766e-19, 0.024), (0.004189012, 0.00018289588, 0), (0.004189012, 0.00018289588, 0.024), (0.004177048, 0.0003654442, 0), (0.004177048, 0.0003654442, 0.024), (0.0041571264, 0.0005472964, 0), (0.0041571264, 0.0005472964, 0.024), (0.004129294, 0.00072810694, 0), (0.004129294, 0.00072810694, 0.024), (0.004093607, 0.00090753107, 0), (0.004093607, 0.00090753107, 0.024), (0.004050131, 0.0010852324, 0), (0.004050131, 0.0010852324, 0.024), (0.003998939, 0.0012608632, 0), (0.003998939, 0.0012608632, 0.024), (0.0039401343, 0.0014340898, 0), (0.0039401343, 0.0014340898, 0.024), (0.0038738288, 0.001604596, 0), (0.0038738288, 0.001604596, 0.024), (0.0038001433, 0.0017720362, 0), (0.0038001433, 0.0017720362, 0.024), (0.0037192376, 0.0019361132, 0), (0.0037192376, 0.0019361132, 0.024), (0.0036312402, 0.0020964998, 0), (0.0036312402, 0.0020964998, 0.024), (0.003536339, 0.0022528989, 0), (0.003536339, 0.0022528989, 0.024), (0.0034347004, 0.002405002, 0), (0.0034347004, 0.002405002, 0.024), (0.0033265308, 0.00255254, 0), (0.0033265308, 0.00255254, 0.024), (0.0032120242, 0.0026952045, 0), (0.0032120242, 0.0026952045, 0.024), (0.003091406, 0.0028327538, 0), (0.003091406, 0.0028327538, 0.024), (0.0029648982, 0.0029648982, 0), (0.0029648982, 0.0029648982, 0.024), (0.0028327538, 0.003091406, 0), (0.0028327538, 0.003091406, 0.024), (0.0026952045, 0.0032120242, 0), (0.0026952045, 0.0032120242, 0.024), (0.00255254, 0.0033265308, 0), (0.00255254, 0.0033265308, 0.024), (0.002405002, 0.0034347004, 0), (0.002405002, 0.0034347004, 0.024), (0.0022528989, 0.003536339, 0), (0.0022528989, 0.003536339, 0.024), (0.0020964998, 0.0036312402, 0), (0.0020964998, 0.0036312402, 0.024), (0.0019361132, 0.0037192376, 0), (0.0019361132, 0.0037192376, 0.024), (0.0017720362, 0.0038001433, 0), (0.0017720362, 0.0038001433, 0.024), (0.001604596, 0.0038738288, 0), (0.001604596, 0.0038738288, 0.024), (0.0014340898, 0.0039401343, 0), (0.0014340898, 0.0039401343, 0.024), (0.0012608632, 0.003998939, 0), (0.0012608632, 0.003998939, 0.024), (0.0010852324, 0.004050131, 0), (0.0010852324, 0.004050131, 0.024), (0.00090753107, 0.004093607, 0), (0.00090753107, 0.004093607, 0.024), (0.00072810694, 0.004129294, 0), (0.00072810694, 0.004129294, 0.024), (0.0005472964, 0.0041571264, 0), (0.0005472964, 0.0041571264, 0.024), (0.0003654442, 0.004177048, 0), (0.0003654442, 0.004177048, 0.024), (0.00018289588, 0.004189012, 0), (0.00018289588, 0.004189012, 0.024), (2.5674766e-19, 0.004193, 0), (4.911913e-18, 0.004193, 0.024), (-0.00018289588, 0.004189012, 0), (-0.00018289588, 0.004189012, 0.024), (-0.0003654442, 0.004177048, 0), (-0.0003654442, 0.004177048, 0.024), (-0.0005472964, 0.0041571264, 0), (-0.0005472964, 0.0041571264, 0.024), (-0.00072810694, 0.004129294, 0), (-0.00072810694, 0.004129294, 0.024), (-0.00090753107, 0.004093607, 0), (-0.00090753107, 0.004093607, 0.024), (-0.0010852324, 0.004050131, 0), (-0.0010852324, 0.004050131, 0.024), (-0.0012608632, 0.003998939, 0), (-0.0012608632, 0.003998939, 0.024), (-0.0014340898, 0.0039401343, 0), (-0.0014340898, 0.0039401343, 0.024), (-0.001604596, 0.0038738288, 0), (-0.001604596, 0.0038738288, 0.024), (-0.0017720362, 0.0038001433, 0), (-0.0017720362, 0.0038001433, 0.024), (-0.0019361132, 0.0037192376, 0), (-0.0019361132, 0.0037192376, 0.024), (-0.0020964998, 0.0036312402, 0), (-0.0020964998, 0.0036312402, 0.024), (-0.0022528989, 0.003536339, 0), (-0.0022528989, 0.003536339, 0.024), (-0.002405002, 0.0034347004, 0), (-0.002405002, 0.0034347004, 0.024), (-0.00255254, 0.0033265308, 0), (-0.00255254, 0.0033265308, 0.024), (-0.0026952045, 0.0032120242, 0), (-0.0026952045, 0.0032120242, 0.024), (-0.0028327538, 0.003091406, 0), (-0.0028327538, 0.003091406, 0.024), (-0.0029648982, 0.0029648982, 0), (-0.0029648982, 0.0029648982, 0.024), (-0.003091406, 0.0028327538, 0), (-0.003091406, 0.0028327538, 0.024), (-0.0032120242, 0.0026952045, 0), (-0.0032120242, 0.0026952045, 0.024), (-0.0033265308, 0.00255254, 0), (-0.0033265308, 0.00255254, 0.024), (-0.0034347004, 0.002405002, 0), (-0.0034347004, 0.002405002, 0.024), (-0.003536339, 0.0022528989, 0), (-0.003536339, 0.0022528989, 0.024), (-0.0036312402, 0.0020964998, 0), (-0.0036312402, 0.0020964998, 0.024), (-0.0037192376, 0.0019361132, 0), (-0.0037192376, 0.0019361132, 0.024), (-0.0038001433, 0.0017720362, 0), (-0.0038001433, 0.0017720362, 0.024), (-0.0038738288, 0.001604596, 0), (-0.0038738288, 0.001604596, 0.024), (-0.0039401343, 0.0014340898, 0), (-0.0039401343, 0.0014340898, 0.024), (-0.003998939, 0.0012608632, 0), (-0.003998939, 0.0012608632, 0.024), (-0.004050131, 0.0010852324, 0), (-0.004050131, 0.0010852324, 0.024), (-0.004093607, 0.00090753107, 0), (-0.004093607, 0.00090753107, 0.024), (-0.004129294, 0.00072810694, 0), (-0.004129294, 0.00072810694, 0.024), (-0.0041571264, 0.0005472964, 0), (-0.0041571264, 0.0005472964, 0.024), (-0.004177048, 0.0003654442, 0), (-0.004177048, 0.0003654442, 0.024), (-0.004189012, 0.00018289588, 0), (-0.004189012, 0.00018289588, 0.024), (-0.004193, 7.70242e-19, 0), (-0.004193, 1.19425955e-17, 0.024), (-0.004189012, -0.00018289588, 0), (-0.004189012, -0.00018289588, 0.024), (-0.004177048, -0.0003654442, 0), (-0.004177048, -0.0003654442, 0.024), (-0.0041571264, -0.0005472964, 0), (-0.0041571264, -0.0005472964, 0.024), (-0.004129294, -0.00072810694, 0), (-0.004129294, -0.00072810694, 0.024), (-0.004093607, -0.00090753107, 0), (-0.004093607, -0.00090753107, 0.024), (-0.004050131, -0.0010852324, 0), (-0.004050131, -0.0010852324, 0.024), (-0.003998939, -0.0012608632, 0), (-0.003998939, -0.0012608632, 0.024), (-0.0039401343, -0.0014340898, 0), (-0.0039401343, -0.0014340898, 0.024), (-0.0038738288, -0.001604596, 0), (-0.0038738288, -0.001604596, 0.024), (-0.0038001433, -0.0017720362, 0), (-0.0038001433, -0.0017720362, 0.024), (-0.0037192376, -0.0019361132, 0), (-0.0037192376, -0.0019361132, 0.024), (-0.0036312402, -0.0020964998, 0), (-0.0036312402, -0.0020964998, 0.024), (-0.003536339, -0.0022528989, 0), (-0.003536339, -0.0022528989, 0.024), (-0.0034347004, -0.002405002, 0), (-0.0034347004, -0.002405002, 0.024), (-0.0033265308, -0.00255254, 0), (-0.0033265308, -0.00255254, 0.024), (-0.0032120242, -0.0026952045, 0), (-0.0032120242, -0.0026952045, 0.024), (-0.003091406, -0.0028327538, 0), (-0.003091406, -0.0028327538, 0.024), (-0.0029648982, -0.0029648982, 0), (-0.0029648982, -0.0029648982, 0.024), (-0.0028327538, -0.003091406, 0), (-0.0028327538, -0.003091406, 0.024), (-0.0026952045, -0.0032120242, 0), (-0.0026952045, -0.0032120242, 0.024), (-0.00255254, -0.0033265308, 0), (-0.00255254, -0.0033265308, 0.024), (-0.002405002, -0.0034347004, 0), (-0.002405002, -0.0034347004, 0.024), (-0.0022528989, -0.003536339, 0), (-0.0022528989, -0.003536339, 0.024), (-0.0020964998, -0.0036312402, 0), (-0.0020964998, -0.0036312402, 0.024), (-0.0019361132, -0.0037192376, 0), (-0.0019361132, -0.0037192376, 0.024), (-0.0017720362, -0.0038001433, 0), (-0.0017720362, -0.0038001433, 0.024), (-0.001604596, -0.0038738288, 0), (-0.001604596, -0.0038738288, 0.024), (-0.0014340898, -0.0039401343, 0), (-0.0014340898, -0.0039401343, 0.024), (-0.0012608632, -0.003998939, 0), (-0.0012608632, -0.003998939, 0.024), (-0.0010852324, -0.004050131, 0), (-0.0010852324, -0.004050131, 0.024), (-0.00090753107, -0.004093607, 0), (-0.00090753107, -0.004093607, 0.024), (-0.00072810694, -0.004129294, 0), (-0.00072810694, -0.004129294, 0.024), (-0.0005472964, -0.0041571264, 0), (-0.0005472964, -0.0041571264, 0.024), (-0.0003654442, -0.004177048, 0), (-0.0003654442, -0.004177048, 0.024), (-0.00018289588, -0.004189012, 0), (-0.00018289588, -0.004189012, 0.024), (-7.70242e-19, -0.004193, 0), (-1.9390947e-17, -0.004193, 0.024), (0.00018289588, -0.004189012, 0), (0.00018289588, -0.004189012, 0.024), (0.0003654442, -0.004177048, 0), (0.0003654442, -0.004177048, 0.024), (0.0005472964, -0.0041571264, 0), (0.0005472964, -0.0041571264, 0.024), (0.00072810694, -0.004129294, 0), (0.00072810694, -0.004129294, 0.024), (0.00090753107, -0.004093607, 0), (0.00090753107, -0.004093607, 0.024), (0.0010852324, -0.004050131, 0), (0.0010852324, -0.004050131, 0.024), (0.0012608632, -0.003998939, 0), (0.0012608632, -0.003998939, 0.024), (0.0014340898, -0.0039401343, 0), (0.0014340898, -0.0039401343, 0.024), (0.001604596, -0.0038738288, 0), (0.001604596, -0.0038738288, 0.024), (0.0017720362, -0.0038001433, 0), (0.0017720362, -0.0038001433, 0.024), (0.0019361132, -0.0037192376, 0), (0.0019361132, -0.0037192376, 0.024), (0.0020964998, -0.0036312402, 0), (0.0020964998, -0.0036312402, 0.024), (0.0022528989, -0.003536339, 0), (0.0022528989, -0.003536339, 0.024), (0.002405002, -0.0034347004, 0), (0.002405002, -0.0034347004, 0.024), (0.00255254, -0.0033265308, 0), (0.00255254, -0.0033265308, 0.024), (0.0026952045, -0.0032120242, 0), (0.0026952045, -0.0032120242, 0.024), (0.0028327538, -0.003091406, 0), (0.0028327538, -0.003091406, 0.024), (0.0029648982, -0.0029648982, 0), (0.0029648982, -0.0029648982, 0.024), (0.003091406, -0.0028327538, 0), (0.003091406, -0.0028327538, 0.024), (0.0032120242, -0.0026952045, 0), (0.0032120242, -0.0026952045, 0.024), (0.0033265308, -0.00255254, 0), (0.0033265308, -0.00255254, 0.024), (0.0034347004, -0.002405002, 0), (0.0034347004, -0.002405002, 0.024), (0.003536339, -0.0022528989, 0), (0.003536339, -0.0022528989, 0.024), (0.0036312402, -0.0020964998, 0), (0.0036312402, -0.0020964998, 0.024), (0.0037192376, -0.0019361132, 0), (0.0037192376, -0.0019361132, 0.024), (0.0038001433, -0.0017720362, 0), (0.0038001433, -0.0017720362, 0.024), (0.0038738288, -0.001604596, 0), (0.0038738288, -0.001604596, 0.024), (0.0039401343, -0.0014340898, 0), (0.0039401343, -0.0014340898, 0.024), (0.003998939, -0.0012608632, 0), (0.003998939, -0.0012608632, 0.024), (0.004050131, -0.0010852324, 0), (0.004050131, -0.0010852324, 0.024), (0.004093607, -0.00090753107, 0), (0.004093607, -0.00090753107, 0.024), (0.004129294, -0.00072810694, 0), (0.004129294, -0.00072810694, 0.024), (0.0041571264, -0.0005472964, 0), (0.0041571264, -0.0005472964, 0.024), (0.004177048, -0.0003654442, 0), (0.004177048, -0.0003654442, 0.024), (0.004189012, -0.00018289588, 0), (0.004189012, -0.00018289588, 0.024), (0, -0.0125, 0), (-0.0125, -3.46945e-18, 0), (0, 0.0125, 0), (0.02, 0.02, 0), (0.02, -3.46945e-18, 0), (0, 0.02, 0), (-0.0133282, 0.00940904, 0), (-0.0134623, 0.00944811, 0), (-0.0148593, 0.0103381, 0), (-0.0149513, 0.0104431, 0), (-0.0150387, 0.010552, 0), (-0.015507, 0.0114055, 0), (-0.0155519, 0.0115377, 0), (-0.02, -3.46945e-18, 0), (-0.0157, 0.0125, 0), (-0.015697, 0.0126396, 0), (-0.02, 0.02, 0), (-0.0156878, 0.0127789, 0), (-0.0156726, 0.0129177, 0), (-0.0156514, 0.0130557, 0), (-0.0156241, 0.0131926, 0), (-0.015591, 0.0133282, 0), (-0.0127789, 0.0156878, 0), (-0.0126396, 0.015697, 0), (-0.015591, 0.0116718, 0), (-0.0156241, 0.0118074, 0), (-0.0156514, 0.0119443, 0), (-0.0156726, 0.0120823, 0), (-0.0156878, 0.0122211, 0), (-0.015697, 0.0123604, 0), (-0.0106646, 0.0151213, 0), (-0.010552, 0.0150387, 0), (-0.0104431, 0.0149513, 0), (-0.0103381, 0.0148593, 0), (-0.0151213, 0.0106646, 0), (-0.0151989, 0.0107806, 0), (-0.0152713, 0.0109, 0), (-0.0153384, 0.0110224, 0), (-0.0155519, 0.0134623, 0), (-0.015507, 0.0135945, 0), (-0.0154564, 0.0137246, 0), (-0.0145569, 0.0100487, 0), (-0.0146619, 0.0101407, 0), (-0.0147627, 0.0102373, 0), (-0.0154002, 0.0111476, 0), (-0.0154564, 0.0112754, 0), (-0.0135945, 0.015507, 0), (-0.0137246, 0.0154564, 0), (-0.0138524, 0.0154002, 0), (-0.0134623, 0.0155519, 0), (-0.0133282, 0.015591, 0), (-0.0131926, 0.0156241, 0), (-0.0102373, 0.0147627, 0), (-0.0101407, 0.0146619, 0), (-0.0100487, 0.0145569, 0), (-0.00959982, 0.0138524, 0), (-0.00954359, 0.0137246, 0), (-0.00949298, 0.0135945, 0), (-0.0093, 0.0125, 0), (-0.00930305, 0.0126396, 0), (-0.00931218, 0.0127789, 0), (-0.0125, 0.0093, 0), (-0.0126396, 0.00930305, 0), (-0.0127789, 0.00931218, 0), (-0.0129177, 0.00932738, 0), (-0.0130557, 0.00934862, 0), (-0.0131926, 0.00937585, 0), (-0.0135945, 0.00949298, 0), (-0.0137246, 0.00954359, 0), (-0.0138524, 0.00959982, 0), (-0.0154002, 0.0138524, 0), (-0.0153384, 0.0139776, 0), (-0.0152713, 0.0141, 0), (-0.0148593, 0.0146619, 0), (-0.0149513, 0.0145569, 0), (-0.0150387, 0.014448, 0), (-0.0147627, 0.0147627, 0), (-0.0146619, 0.0148593, 0), (-0.0145569, 0.0149513, 0), (-0.0130557, 0.0156514, 0), (-0.0129177, 0.0156726, 0), (-0.0116718, 0.015591, 0), (-0.0115377, 0.0155519, 0), (-0.0114055, 0.015507, 0), (-0.00996127, 0.014448, 0), (-0.00987871, 0.0143354, 0), (-0.00980115, 0.0142194, 0), (-0.00944811, 0.0134623, 0), (-0.00940904, 0.0133282, 0), (-0.00937585, 0.0131926, 0), (-0.00934862, 0.0130557, 0), (-0.00932738, 0.0129177, 0), (-0.0139776, 0.00966157, 0), (-0.0141, 0.00972872, 0), (-0.0142194, 0.00980115, 0), (-0.0143354, 0.00987871, 0), (-0.014448, 0.00996127, 0), (-0.014448, 0.0150387, 0), (-0.0143354, 0.0151213, 0), (-0.0142194, 0.0151989, 0), (-0.0120823, 0.0156726, 0), (-0.0119443, 0.0156514, 0), (-0.0118074, 0.0156241, 0), (-0.0112754, 0.0154564, 0), (-0.0111476, 0.0154002, 0), (-0.0110224, 0.0153384, 0), (-0.0109, 0.0152713, 0), (-0.0107806, 0.0151989, 0), (-0.00972872, 0.0141, 0), (-0.00966157, 0.0139776, 0), (-0.0151989, 0.0142194, 0), (-0.0151213, 0.0143354, 0), (-0.0141, 0.0152713, 0), (-0.0139776, 0.0153384, 0), (-0.0125, 0.0157, 0), (-0.0123604, 0.015697, 0), (-0.0122211, 0.0156878, 0), (-0.0123604, 0.00930305, 0), (-0.0122211, 0.00931218, 0), (-0.0120823, 0.00932738, 0), (-0.0119443, 0.00934862, 0), (-0.0118074, 0.00937585, 0), (-0.0116718, 0.00940904, 0), (-0.0115377, 0.00944811, 0), (-0.0114055, 0.00949298, 0), (-0.0112754, 0.00954359, 0), (-0.0111476, 0.00959982, 0), (-0.0110224, 0.00966157, 0), (-0.0109, 0.00972872, 0), (-0.0107806, 0.00980115, 0), (-0.0106646, 0.00987871, 0), (-0.010552, 0.00996127, 0), (-0.0104431, 0.0100487, 0), (-0.0103381, 0.0101407, 0), (-0.0102373, 0.0102373, 0), (-0.0101407, 0.0103381, 0), (-0.0100487, 0.0104431, 0), (-0.00996127, 0.010552, 0), (-0.00987871, 0.0106646, 0), (-0.00980115, 0.0107806, 0), (-0.00972872, 0.0109, 0), (-0.00966157, 0.0110224, 0), (-0.00959982, 0.0111476, 0), (-0.00954359, 0.0112754, 0), (-0.00949298, 0.0114055, 0), (-0.00944811, 0.0115377, 0), (-0.00940904, 0.0116718, 0), (-0.00937585, 0.0118074, 0), (-0.00934862, 0.0119443, 0), (-0.00932738, 0.0120823, 0), (-0.00931218, 0.0122211, 0), (-0.00930305, 0.0123604, 0), (0, -0.02, 0), (-0.02, -0.02, 0), (0.0156241, -0.0118074, 0), (0.0156514, -0.0119443, 0), (0.0151213, -0.0106646, 0), (0.0151989, -0.0107806, 0), (0.0152713, -0.0109, 0), (0.0153384, -0.0110224, 0), (0.0156726, -0.0120823, 0), (0.0156878, -0.0122211, 0), (0.02, -0.02, 0), (0.015697, -0.0123604, 0), (0.0157, -0.0125, 0), (0.0152713, -0.0141, 0), (0.0151989, -0.0142194, 0), (0.0116718, -0.015591, 0), (0.0115377, -0.0155519, 0), (0.0114055, -0.015507, 0), (0.0125, -3.46945e-18, 0), (0.0154002, -0.0111476, 0), (0.0154564, -0.0112754, 0), (0.015507, -0.0114055, 0), (0.0143354, -0.00987871, 0), (0.014448, -0.00996127, 0), (0.0145569, -0.0100487, 0), (0.0127789, -0.0156878, 0), (0.0126396, -0.015697, 0), (0.0112754, -0.0154564, 0), (0.0111476, -0.0154002, 0), (0.0110224, -0.0153384, 0), (0.0155519, -0.0115377, 0), (0.015591, -0.0116718, 0), (0.0146619, -0.0101407, 0), (0.0147627, -0.0102373, 0), (0.0148593, -0.0103381, 0), (0.0145569, -0.0149513, 0), (0.014448, -0.0150387, 0), (0.0109, -0.0152713, 0), (0.0107806, -0.0151989, 0), (0.0106646, -0.0151213, 0), (0.0104431, -0.0149513, 0), (0.0103381, -0.0148593, 0), (0.0102373, -0.0147627, 0), (0.0101407, -0.0146619, 0), (0.0100487, -0.0145569, 0), (0.00996127, -0.014448, 0), (0.00987871, -0.0143354, 0), (0.0149513, -0.0104431, 0), (0.0150387, -0.010552, 0), (0.0156726, -0.0129177, 0), (0.0156514, -0.0130557, 0), (0.0156241, -0.0131926, 0), (0.015591, -0.0133282, 0), (0.0149513, -0.0145569, 0), (0.0148593, -0.0146619, 0), (0.0143354, -0.0151213, 0), (0.0142194, -0.0151989, 0), (0.0141, -0.0152713, 0), (0.0120823, -0.0156726, 0), (0.0119443, -0.0156514, 0), (0.0118074, -0.0156241, 0), (0.010552, -0.0150387, 0), (0.00949298, -0.0135945, 0), (0.00944811, -0.0134623, 0), (0.00940904, -0.0133282, 0), (0.00937585, -0.0131926, 0), (0.00934862, -0.0130557, 0), (0.00932738, -0.0129177, 0), (0.00931218, -0.0127789, 0), (0.015697, -0.0126396, 0), (0.0156878, -0.0127789, 0), (0.0151213, -0.0143354, 0), (0.0150387, -0.014448, 0), (0.0125, -0.0157, 0), (0.0123604, -0.015697, 0), (0.0122211, -0.0156878, 0), (0.0155519, -0.0134623, 0), (0.015507, -0.0135945, 0), (0.0154564, -0.0137246, 0), (0.0154002, -0.0138524, 0), (0.0153384, -0.0139776, 0), (0.0147627, -0.0147627, 0), (0.0146619, -0.0148593, 0), (0.0137246, -0.0154564, 0), (0.0135945, -0.015507, 0), (0.00980115, -0.0142194, 0), (0.00972872, -0.0141, 0), (0.00966157, -0.0139776, 0), (0.0133282, -0.00940904, 0), (0.0134623, -0.00944811, 0), (0.0135945, -0.00949298, 0), (0.0139776, -0.0153384, 0), (0.0138524, -0.0154002, 0), (0.00959982, -0.0138524, 0), (0.00954359, -0.0137246, 0), (0.0126396, -0.00930305, 0), (0.0127789, -0.00931218, 0), (0.0129177, -0.00932738, 0), (0.0137246, -0.00954359, 0), (0.0138524, -0.00959982, 0), (0.0139776, -0.00966157, 0), (0.0141, -0.00972872, 0), (0.0142194, -0.00980115, 0), (0.0134623, -0.0155519, 0), (0.0133282, -0.015591, 0), (0.0131926, -0.0156241, 0), (0.0130557, -0.00934862, 0), (0.0131926, -0.00937585, 0), (0.0130557, -0.0156514, 0), (0.0129177, -0.0156726, 0), (0.00930305, -0.0126396, 0), (0.0093, -0.0125, 0), (0.00930305, -0.0123604, 0), (0.00931218, -0.0122211, 0), (0.00932738, -0.0120823, 0), (0.00934862, -0.0119443, 0), (0.00937585, -0.0118074, 0), (0.00940904, -0.0116718, 0), (0.00944811, -0.0115377, 0), (0.00949298, -0.0114055, 0), (0.00954359, -0.0112754, 0), (0.00959982, -0.0111476, 0), (0.00966157, -0.0110224, 0), (0.00972872, -0.0109, 0), (0.00980115, -0.0107806, 0), (0.00987871, -0.0106646, 0), (0.00996127, -0.010552, 0), (0.0100487, -0.0104431, 0), (0.0101407, -0.0103381, 0), (0.0102373, -0.0102373, 0), (0.0103381, -0.0101407, 0), (0.0104431, -0.0100487, 0), (0.010552, -0.00996127, 0), (0.0106646, -0.00987871, 0), (0.0107806, -0.00980115, 0), (0.0109, -0.00972872, 0), (0.0110224, -0.00966157, 0), (0.0111476, -0.00959982, 0), (0.0112754, -0.00954359, 0), (0.0114055, -0.00949298, 0), (0.0115377, -0.00944811, 0), (0.0116718, -0.00940904, 0), (0.0118074, -0.00937585, 0), (0.0119443, -0.00934862, 0), (0.0120823, -0.00932738, 0), (0.0122211, -0.00931218, 0), (0.0123604, -0.00930305, 0), (0.0125, -0.0093, 0), (-0.0156241, 0.0131926, -0.003), (-0.0156514, 0.0130557, -0.003), (-0.02, 0.02, -0.003), (-0.0156726, 0.0129177, -0.003), (-0.0156878, 0.0127789, -0.003), (-0.015697, 0.0126396, -0.003), (-0.0157, 0.0125, -0.003), (-0.02, -0.02, -0.003), (-0.0122211, 0.00931218, -0.003), (-0.0120823, 0.00932738, -0.003), (0.02, 0.02, -0.003), (-0.00932738, 0.0120823, -0.003), (-0.00931218, 0.0122211, -0.003), (-0.010552, 0.0150387, -0.003), (-0.0106646, 0.0151213, -0.003), (0.015697, -0.0123604, -0.003), (0.0156878, -0.0122211, -0.003), (0.02, -0.02, -0.003), (0.00972872, -0.0109, -0.003), (0.00966157, -0.0110224, -0.003), (0.00940904, -0.0116718, -0.003), (0.0126396, -0.00930305, -0.003), (-0.0123604, 0.015697, -0.003), (-0.0125, 0.0157, -0.003), (-0.015507, 0.0135945, -0.003), (-0.0155519, 0.0134623, -0.003), (-0.015591, 0.0133282, -0.003), (0.0142194, -0.0151989, -0.003), (0.0143354, -0.0151213, -0.003), (0.00954359, -0.0112754, -0.003), (0.00949298, -0.0114055, -0.003), (0.0127789, -0.00931218, -0.003), (-0.015697, 0.0123604, -0.003), (-0.0156878, 0.0122211, -0.003), (-0.0156726, 0.0120823, -0.003), (-0.0111476, 0.00959982, -0.003), (-0.0110224, 0.00966157, -0.003), (-0.0109, 0.00972872, -0.003), (-0.0107806, 0.00980115, -0.003), (-0.0106646, 0.00987871, -0.003), (-0.010552, 0.00996127, -0.003), (-0.0104431, 0.0100487, -0.003), (-0.00966157, 0.0139776, -0.003), (-0.00959982, 0.0138524, -0.003), (-0.00954359, 0.0137246, -0.003), (-0.0137246, 0.0154564, -0.003), (-0.0138524, 0.0154002, -0.003), (-0.0139776, 0.0153384, -0.003), (-0.0153384, 0.0139776, -0.003), (-0.0154002, 0.0138524, -0.003), (-0.0154564, 0.0137246, -0.003), (0.00931218, -0.0127789, -0.003), (0.00996127, -0.014448, -0.003), (0.0100487, -0.0145569, -0.003), (0.0101407, -0.0146619, -0.003), (0.0153384, -0.0110224, -0.003), (0.0154002, -0.0111476, -0.003), (0.0154564, -0.0112754, -0.003), (0.0151213, -0.0106646, -0.003), (0.0150387, -0.010552, -0.003), (-0.0101407, 0.0103381, -0.003), (-0.0100487, 0.0104431, -0.003), (-0.00996127, 0.010552, -0.003), (-0.00940904, 0.0116718, -0.003), (-0.00937585, 0.0118074, -0.003), (-0.00934862, 0.0119443, -0.003), (-0.00987871, 0.0143354, -0.003), (-0.00996127, 0.014448, -0.003), (-0.0100487, 0.0145569, -0.003), (-0.0101407, 0.0146619, -0.003), (-0.0102373, 0.0147627, -0.003), (-0.0103381, 0.0148593, -0.003), (-0.0104431, 0.0149513, -0.003), (-0.0107806, 0.0151989, -0.003), (-0.0109, 0.0152713, -0.003), (-0.0110224, 0.0153384, -0.003), (-0.0111476, 0.0154002, -0.003), (-0.0112754, 0.0154564, -0.003), (-0.0114055, 0.015507, -0.003), (-0.0119443, 0.0156514, -0.003), (-0.0120823, 0.0156726, -0.003), (-0.0122211, 0.0156878, -0.003), (-0.0126396, 0.015697, -0.003), (-0.0127789, 0.0156878, -0.003), (-0.0129177, 0.0156726, -0.003), (-0.0148593, 0.0146619, -0.003), (-0.0147627, 0.0147627, -0.003), (-0.0146619, 0.0148593, -0.003), (0.00937585, -0.0131926, -0.003), (0.00940904, -0.0133282, -0.003), (0.015591, -0.0133282, -0.003), (0.0156241, -0.0131926, -0.003), (0.0149513, -0.0104431, -0.003), (0.0148593, -0.0103381, -0.003), (0.0147627, -0.0102373, -0.003), (0.0146619, -0.0101407, -0.003), (0.0145569, -0.0100487, -0.003), (0.014448, -0.00996127, -0.003), (0.00937585, -0.0118074, -0.003), (0.00934862, -0.0119443, -0.003), (-0.0149513, 0.0104431, -0.003), (-0.0150387, 0.010552, -0.003), (-0.0119443, 0.00934862, -0.003), (-0.0118074, 0.00937585, -0.003), (-0.0116718, 0.00940904, -0.003), (-0.0115377, 0.00944811, -0.003), (-0.0114055, 0.00949298, -0.003), (-0.0112754, 0.00954359, -0.003), (-0.00987871, 0.0106646, -0.003), (-0.00980115, 0.0107806, -0.003), (-0.00972872, 0.0109, -0.003), (-0.00931218, 0.0127789, -0.003), (-0.0115377, 0.0155519, -0.003), (-0.0116718, 0.015591, -0.003), (-0.0118074, 0.0156241, -0.003), (-0.0130557, 0.0156514, -0.003), (-0.0131926, 0.0156241, -0.003), (-0.0133282, 0.015591, -0.003), (-0.0134623, 0.0155519, -0.003), (-0.0135945, 0.015507, -0.003), (-0.0143354, 0.0151213, -0.003), (-0.014448, 0.0150387, -0.003), (-0.0145569, 0.0149513, -0.003), (-0.0149513, 0.0145569, -0.003), (-0.0150387, 0.014448, -0.003), (-0.0151213, 0.0143354, -0.003), (0.00944811, -0.0134623, -0.003), (0.00949298, -0.0135945, -0.003), (0.00954359, -0.0137246, -0.003), (0.0102373, -0.0147627, -0.003), (0.0103381, -0.0148593, -0.003), (0.0104431, -0.0149513, -0.003), (0.0111476, -0.0154002, -0.003), (0.0112754, -0.0154564, -0.003), (0.0114055, -0.015507, -0.003), (0.0119443, -0.0156514, -0.003), (0.0120823, -0.0156726, -0.003), (0.0156726, -0.0120823, -0.003), (0.0156514, -0.0119443, -0.003), (0.0156241, -0.0118074, -0.003), (0.015591, -0.0116718, -0.003), (0.0155519, -0.0115377, -0.003), (0.015507, -0.0114055, -0.003), (0.0114055, -0.00949298, -0.003), (0.0112754, -0.00954359, -0.003), (0.0111476, -0.00959982, -0.003), (0.0103381, -0.0101407, -0.003), (0.0102373, -0.0102373, -0.003), (0.00959982, -0.0111476, -0.003), (0.00931218, -0.0122211, -0.003), (0.00944811, -0.0115377, -0.003), (0.0141, -0.00972872, -0.003), (0.0139776, -0.00966157, -0.003), (0.0135945, -0.00949298, -0.003), (0.0134623, -0.00944811, -0.003), (0.0133282, -0.00940904, -0.003), (0.0131926, -0.00937585, -0.003), (0.0142194, -0.00980115, -0.003), (-0.0156514, 0.0119443, -0.003), (-0.0156241, 0.0118074, -0.003), (-0.015591, 0.0116718, -0.003), (-0.0148593, 0.0103381, -0.003), (-0.0103381, 0.0101407, -0.003), (-0.0102373, 0.0102373, -0.003), (-0.00966157, 0.0110224, -0.003), (-0.00959982, 0.0111476, -0.003), (-0.00954359, 0.0112754, -0.003), (-0.00949298, 0.0114055, -0.003), (-0.00944811, 0.0115377, -0.003), (-0.00934862, 0.0130557, -0.003), (-0.00937585, 0.0131926, -0.003), (-0.00940904, 0.0133282, -0.003), (-0.00972872, 0.0141, -0.003), (-0.00980115, 0.0142194, -0.003), (-0.0141, 0.0152713, -0.003), (-0.0142194, 0.0151989, -0.003), (-0.0151989, 0.0142194, -0.003), (-0.0152713, 0.0141, -0.003), (0.00932738, -0.0129177, -0.003), (0.00934862, -0.0130557, -0.003), (0.00972872, -0.0141, -0.003), (0.00980115, -0.0142194, -0.003), (0.00987871, -0.0143354, -0.003), (0.0115377, -0.0155519, -0.003), (0.0116718, -0.015591, -0.003), (0.0118074, -0.0156241, -0.003), (0.0122211, -0.0156878, -0.003), (0.0123604, -0.015697, -0.003), (0.0125, -0.0157, -0.003), (0.0133282, -0.015591, -0.003), (0.0134623, -0.0155519, -0.003), (0.0149513, -0.0145569, -0.003), (0.0150387, -0.014448, -0.003), (0.0156514, -0.0130557, -0.003), (0.0156726, -0.0129177, -0.003), (0.0156878, -0.0127789, -0.003), (0.0152713, -0.0109, -0.003), (0.0151989, -0.0107806, -0.003), (0.0125, -0.0093, -0.003), (0.0123604, -0.00930305, -0.003), (0.0122211, -0.00931218, -0.003), (0.0120823, -0.00932738, -0.003), (0.0101407, -0.0103381, -0.003), (0.0100487, -0.0104431, -0.003), (0.00996127, -0.010552, -0.003), (0.00932738, -0.0120823, -0.003), (0.0138524, -0.00959982, -0.003), (0.0137246, -0.00954359, -0.003), (-0.0155519, 0.0115377, -0.003), (-0.015507, 0.0114055, -0.003), (-0.0154564, 0.0112754, -0.003), (-0.0154002, 0.0111476, -0.003), (-0.0153384, 0.0110224, -0.003), (-0.0152713, 0.0109, -0.003), (-0.0151989, 0.0107806, -0.003), (-0.0151213, 0.0106646, -0.003), (-0.0138524, 0.00959982, -0.003), (-0.0137246, 0.00954359, -0.003), (-0.0123604, 0.00930305, -0.003), (-0.0125, 0.0093, -0.003), (-0.0126396, 0.00930305, -0.003), (-0.00930305, 0.0123604, -0.003), (-0.0093, 0.0125, -0.003), (-0.00932738, 0.0129177, -0.003), (0.00930305, -0.0123604, -0.003), (0.0093, -0.0125, -0.003), (0.00930305, -0.0126396, -0.003), (0.00959982, -0.0138524, -0.003), (0.00966157, -0.0139776, -0.003), (0.010552, -0.0150387, -0.003), (0.0106646, -0.0151213, -0.003), (0.0107806, -0.0151989, -0.003), (0.0109, -0.0152713, -0.003), (0.0110224, -0.0153384, -0.003), (0.014448, -0.0150387, -0.003), (0.0145569, -0.0149513, -0.003), (0.0146619, -0.0148593, -0.003), (0.0151213, -0.0143354, -0.003), (0.0151989, -0.0142194, -0.003), (0.0152713, -0.0141, -0.003), (0.015697, -0.0126396, -0.003), (0.0157, -0.0125, -0.003), (0.0119443, -0.00934862, -0.003), (0.0118074, -0.00937585, -0.003), (0.0116718, -0.00940904, -0.003), (0.0115377, -0.00944811, -0.003), (0.0106646, -0.00987871, -0.003), (0.010552, -0.00996127, -0.003), (0.0104431, -0.0100487, -0.003), (0.0130557, -0.00934862, -0.003), (0.0129177, -0.00932738, -0.003), (0.0143354, -0.00987871, -0.003), (-0.0147627, 0.0102373, -0.003), (-0.0146619, 0.0101407, -0.003), (-0.0145569, 0.0100487, -0.003), (-0.0134623, 0.00944811, -0.003), (-0.0135945, 0.00949298, -0.003), (-0.0133282, 0.00940904, -0.003), (-0.00944811, 0.0134623, -0.003), (-0.00949298, 0.0135945, -0.003), (0.0135945, -0.015507, -0.003), (0.0137246, -0.0154564, -0.003), (0.0138524, -0.0154002, -0.003), (0.0147627, -0.0147627, -0.003), (0.0148593, -0.0146619, -0.003), (0.0153384, -0.0139776, -0.003), (0.0154002, -0.0138524, -0.003), (0.0154564, -0.0137246, -0.003), (0.015507, -0.0135945, -0.003), (0.0155519, -0.0134623, -0.003), (0.00987871, -0.0106646, -0.003), (0.00980115, -0.0107806, -0.003), (-0.0131926, 0.00937585, -0.003), (-0.0130557, 0.00934862, -0.003), (-0.0129177, 0.00932738, -0.003), (-0.0127789, 0.00931218, -0.003), (0.0126396, -0.015697, -0.003), (0.0127789, -0.0156878, -0.003), (0.0129177, -0.0156726, -0.003), (0.0139776, -0.0153384, -0.003), (0.0141, -0.0152713, -0.003), (-0.014448, 0.00996127, -0.003), (-0.0143354, 0.00987871, -0.003), (-0.0142194, 0.00980115, -0.003), (-0.0141, 0.00972872, -0.003), (-0.0139776, 0.00966157, -0.003), (-0.00930305, 0.0126396, -0.003), (0.0110224, -0.00966157, -0.003), (0.0109, -0.00972872, -0.003), (0.0107806, -0.00980115, -0.003), (0.0130557, -0.0156514, -0.003), (0.0131926, -0.0156241, -0.003), (0, 2.75546e-19, 0)]
            }
        }
    }
}

