#usda 1.0
(
    defaultPrim = "Root"
    metersPerUnit = 1
    upAxis = "Z"
)

def Xform "Root" (
    prepend references = @https://omniverse-content-production.s3-us-west-2.amazonaws.com/Assets/Isaac/5.1/Isaac/IsaacLab/Factory/factory_hole_8mm.usd@
)
{
    over "forge_hole_8mm"
    {
        over "forge_hole_8mm"
        {
            over "mesh"
            {
                uchar[] physxCookedData:convexHull:buffer = None
                uchar[] physxCookedData:triangleMesh:buffer = None
                point3f[] points = [(-0.0125, 0.007, 0), (-0.0125, 0.007, 0.025), (-0.0122601, 0.00700523, 0), (-0.0122601, 0.00700523, 0.025), (-0.0120206, 0.00702093, 0), (-0.0120206, 0.00702093, 0.025), (-0.0117821, 0.00704705, 0), (-0.0117821, 0.00704705, 0.025), (-0.0115449, 0.00708356, 0), (-0.0115449, 0.00708356, 0.025), (-0.0113096, 0.00713037, 0), (-0.0113096, 0.00713037, 0.025), (-0.0110765, 0.00718741, 0), (-0.0110765, 0.00718741, 0.025), (-0.0108461, 0.00725456, 0), (-0.0108461, 0.00725456, 0.025), (-0.0106189, 0.00733169, 0), (-0.0106189, 0.00733169, 0.025), (-0.0103952, 0.00741866, 0), (-0.0103952, 0.00741866, 0.025), (-0.0101756, 0.00751531, 0), (-0.0101756, 0.00751531, 0.025), (-0.00996038, 0.00762144, 0), (-0.00996038, 0.00762144, 0.025), (-0.00975, 0.00773686, 0), (-0.00975, 0.00773686, 0.025), (-0.00954485, 0.00786135, 0), (-0.00954485, 0.00786135, 0.025), (-0.00934533, 0.00799466, 0), (-0.00934533, 0.00799466, 0.025), (-0.00915181, 0.00813656, 0), (-0.00915181, 0.00813656, 0.025), (-0.00896467, 0.00828676, 0), (-0.00896467, 0.00828676, 0.025), (-0.00878425, 0.00844497, 0), (-0.00878425, 0.00844497, 0.025), (-0.00861091, 0.00861091, 0), (-0.00861091, 0.00861091, 0.025), (-0.00844497, 0.00878425, 0), (-0.00844497, 0.00878425, 0.025), (-0.00828676, 0.00896467, 0), (-0.00828676, 0.00896467, 0.025), (-0.00813656, 0.00915181, 0), (-0.00813656, 0.00915181, 0.025), (-0.00799466, 0.00934533, 0), (-0.00799466, 0.00934533, 0.025), (-0.00786135, 0.00954485, 0), (-0.00786135, 0.00954485, 0.025), (-0.00773686, 0.00975, 0), (-0.00773686, 0.00975, 0.025), (-0.00762144, 0.00996038, 0), (-0.00762144, 0.00996038, 0.025), (-0.00751531, 0.0101756, 0), (-0.00751531, 0.0101756, 0.025), (-0.00741866, 0.0103952, 0), (-0.00741866, 0.0103952, 0.025), (-0.00733169, 0.0106189, 0), (-0.00733169, 0.0106189, 0.025), (-0.00725456, 0.0108461, 0), (-0.00725456, 0.0108461, 0.025), (-0.00718741, 0.0110765, 0), (-0.00718741, 0.0110765, 0.025), (-0.00713037, 0.0113096, 0), (-0.00713037, 0.0113096, 0.025), (-0.00708356, 0.0115449, 0), (-0.00708356, 0.0115449, 0.025), (-0.00704705, 0.0117821, 0), (-0.00704705, 0.0117821, 0.025), (-0.00702093, 0.0120206, 0), (-0.00702093, 0.0120206, 0.025), (-0.00700523, 0.0122601, 0), (-0.00700523, 0.0122601, 0.025), (-0.007, 0.0125, 0), (-0.007, 0.0125, 0.025), (0.0125, -0.007, 0), (0.0125, -0.007, 0.025), (0.0122601, -0.00700523, 0), (0.0122601, -0.00700523, 0.025), (0.0120206, -0.00702093, 0), (0.0120206, -0.00702093, 0.025), (0.0117821, -0.00704705, 0), (0.0117821, -0.00704705, 0.025), (0.0115449, -0.00708356, 0), (0.0115449, -0.00708356, 0.025), (0.0113096, -0.00713037, 0), (0.0113096, -0.00713037, 0.025), (0.0110765, -0.00718741, 0), (0.0110765, -0.00718741, 0.025), (0.0108461, -0.00725456, 0), (0.0108461, -0.00725456, 0.025), (0.0106189, -0.00733169, 0), (0.0106189, -0.00733169, 0.025), (0.0103952, -0.00741866, 0), (0.0103952, -0.00741866, 0.025), (0.0101756, -0.00751531, 0), (0.0101756, -0.00751531, 0.025), (0.00996038, -0.00762144, 0), (0.00996038, -0.00762144, 0.025), (0.00975, -0.00773686, 0), (0.00975, -0.00773686, 0.025), (0.00954485, -0.00786135, 0), (0.00954485, -0.00786135, 0.025), (0.00934533, -0.00799466, 0), (0.00934533, -0.00799466, 0.025), (0.00915181, -0.00813656, 0), (0.00915181, -0.00813656, 0.025), (0.00896467, -0.00828676, 0), (0.00896467, -0.00828676, 0.025), (0.00878425, -0.00844497, 0), (0.00878425, -0.00844497, 0.025), (0.00861091, -0.00861091, 0), (0.00861091, -0.00861091, 0.025), (0.00844497, -0.00878425, 0), (0.00844497, -0.00878425, 0.025), (0.00828676, -0.00896467, 0), (0.00828676, -0.00896467, 0.025), (0.00813656, -0.00915181, 0), (0.00813656, -0.00915181, 0.025), (0.00799466, -0.00934533, 0), (0.00799466, -0.00934533, 0.025), (0.00786135, -0.00954485, 0), (0.00786135, -0.00954485, 0.025), (0.00773686, -0.00975, 0), (0.00773686, -0.00975, 0.025), (0.00762144, -0.00996038, 0), (0.00762144, -0.00996038, 0.025), (0.00751531, -0.0101756, 0), (0.00751531, -0.0101756, 0.025), (0.00741866, -0.0103952, 0), (0.00741866, -0.0103952, 0.025), (0.00733169, -0.0106189, 0), (0.00733169, -0.0106189, 0.025), (0.00725456, -0.0108461, 0), (0.00725456, -0.0108461, 0.025), (0.00718741, -0.0110765, 0), (0.00718741, -0.0110765, 0.025), (0.00713037, -0.0113096, 0), (0.00713037, -0.0113096, 0.025), (0.00708356, -0.0115449, 0), (0.00708356, -0.0115449, 0.025), (0.00704705, -0.0117821, 0), (0.00704705, -0.0117821, 0.025), (0.00702093, -0.0120206, 0), (0.00702093, -0.0120206, 0.025), (0.00700523, -0.0122601, 0), (0.00700523, -0.0122601, 0.025), (0.007, -0.0125, 0), (0.007, -0.0125, 0.025), (-0.007, -0.0125, 0), (-0.007, -0.0125, 0.025), (-0.00700523, -0.0122601, 0), (-0.00700523, -0.0122601, 0.025), (-0.00702093, -0.0120206, 0), (-0.00702093, -0.0120206, 0.025), (-0.00704705, -0.0117821, 0), (-0.00704705, -0.0117821, 0.025), (-0.00708356, -0.0115449, 0), (-0.00708356, -0.0115449, 0.025), (-0.00713037, -0.0113096, 0), (-0.00713037, -0.0113096, 0.025), (-0.00718741, -0.0110765, 0), (-0.00718741, -0.0110765, 0.025), (-0.00725456, -0.0108461, 0), (-0.00725456, -0.0108461, 0.025), (-0.00733169, -0.0106189, 0), (-0.00733169, -0.0106189, 0.025), (-0.00741866, -0.0103952, 0), (-0.00741866, -0.0103952, 0.025), (-0.00751531, -0.0101756, 0), (-0.00751531, -0.0101756, 0.025), (-0.00762144, -0.00996038, 0), (-0.00762144, -0.00996038, 0.025), (-0.00773686, -0.00975, 0), (-0.00773686, -0.00975, 0.025), (-0.00786135, -0.00954485, 0), (-0.00786135, -0.00954485, 0.025), (-0.00799466, -0.00934533, 0), (-0.00799466, -0.00934533, 0.025), (-0.00813656, -0.00915181, 0), (-0.00813656, -0.00915181, 0.025), (-0.00828676, -0.00896467, 0), (-0.00828676, -0.00896467, 0.025), (-0.00844497, -0.00878425, 0), (-0.00844497, -0.00878425, 0.025), (-0.00861091, -0.00861091, 0), (-0.00861091, -0.00861091, 0.025), (-0.00878425, -0.00844497, 0), (-0.00878425, -0.00844497, 0.025), (-0.00896467, -0.00828676, 0), (-0.00896467, -0.00828676, 0.025), (-0.00915181, -0.00813656, 0), (-0.00915181, -0.00813656, 0.025), (-0.00934533, -0.00799466, 0), (-0.00934533, -0.00799466, 0.025), (-0.00954485, -0.00786135, 0), (-0.00954485, -0.00786135, 0.025), (-0.00975, -0.00773686, 0), (-0.00975, -0.00773686, 0.025), (-0.00996038, -0.00762144, 0), (-0.00996038, -0.00762144, 0.025), (-0.0101756, -0.00751531, 0), (-0.0101756, -0.00751531, 0.025), (-0.0103952, -0.00741866, 0), (-0.0103952, -0.00741866, 0.025), (-0.0106189, -0.00733169, 0), (-0.0106189, -0.00733169, 0.025), (-0.0108461, -0.00725456, 0), (-0.0108461, -0.00725456, 0.025), (-0.0110765, -0.00718741, 0), (-0.0110765, -0.00718741, 0.025), (-0.0113096, -0.00713037, 0), (-0.0113096, -0.00713037, 0.025), (-0.0115449, -0.00708356, 0), (-0.0115449, -0.00708356, 0.025), (-0.0117821, -0.00704705, 0), (-0.0117821, -0.00704705, 0.025), (-0.0120206, -0.00702093, 0), (-0.0120206, -0.00702093, 0.025), (-0.0122601, -0.00700523, 0), (-0.0122601, -0.00700523, 0.025), (-0.0125, -0.007, 0), (-0.0125, -0.007, 0.025), (0.007, 0.0125, 0), (0.007, 0.0125, 0.025), (0.00700523, 0.0122601, 0), (0.00700523, 0.0122601, 0.025), (0.00702093, 0.0120206, 0), (0.00702093, 0.0120206, 0.025), (0.00704705, 0.0117821, 0), (0.00704705, 0.0117821, 0.025), (0.00708356, 0.0115449, 0), (0.00708356, 0.0115449, 0.025), (0.00713037, 0.0113096, 0), (0.00713037, 0.0113096, 0.025), (0.00718741, 0.0110765, 0), (0.00718741, 0.0110765, 0.025), (0.00725456, 0.0108461, 0), (0.00725456, 0.0108461, 0.025), (0.00733169, 0.0106189, 0), (0.00733169, 0.0106189, 0.025), (0.00741866, 0.0103952, 0), (0.00741866, 0.0103952, 0.025), (0.00751531, 0.0101756, 0), (0.00751531, 0.0101756, 0.025), (0.00762144, 0.00996038, 0), (0.00762144, 0.00996038, 0.025), (0.00773686, 0.00975, 0), (0.00773686, 0.00975, 0.025), (0.00786135, 0.00954485, 0), (0.00786135, 0.00954485, 0.025), (0.00799466, 0.00934533, 0), (0.00799466, 0.00934533, 0.025), (0.00813656, 0.00915181, 0), (0.00813656, 0.00915181, 0.025), (0.00828676, 0.00896467, 0), (0.00828676, 0.00896467, 0.025), (0.00844497, 0.00878425, 0), (0.00844497, 0.00878425, 0.025), (0.00861091, 0.00861091, 0), (0.00861091, 0.00861091, 0.025), (0.00878425, 0.00844497, 0), (0.00878425, 0.00844497, 0.025), (0.00896467, 0.00828676, 0), (0.00896467, 0.00828676, 0.025), (0.00915181, 0.00813656, 0), (0.00915181, 0.00813656, 0.025), (0.00934533, 0.00799466, 0), (0.00934533, 0.00799466, 0.025), (0.00954485, 0.00786135, 0), (0.00954485, 0.00786135, 0.025), (0.00975, 0.00773686, 0), (0.00975, 0.00773686, 0.025), (0.00996038, 0.00762144, 0), (0.00996038, 0.00762144, 0.025), (0.0101756, 0.00751531, 0), (0.0101756, 0.00751531, 0.025), (0.0103952, 0.00741866, 0), (0.0103952, 0.00741866, 0.025), (0.0106189, 0.00733169, 0), (0.0106189, 0.00733169, 0.025), (0.0108461, 0.00725456, 0), (0.0108461, 0.00725456, 0.025), (0.0110765, 0.00718741, 0), (0.0110765, 0.00718741, 0.025), (0.0113096, 0.00713037, 0), (0.0113096, 0.00713037, 0.025), (0.0115449, 0.00708356, 0), (0.0115449, 0.00708356, 0.025), (0.0117821, 0.00704705, 0), (0.0117821, 0.00704705, 0.025), (0.0120206, 0.00702093, 0), (0.0120206, 0.00702093, 0.025), (0.0122601, 0.00700523, 0), (0.0122601, 0.00700523, 0.025), (0.0125, 0.007, 0), (0.0125, 0.007, 0.025), (0.0157, 0.0125, -0.003), (0.0157, 0.0125, 0), (0.015697, 0.0126396, -0.003), (0.015697, 0.0126396, 0), (0.0156878, 0.0127789, -0.003), (0.0156878, 0.0127789, 0), (0.0156726, 0.0129177, -0.003), (0.0156726, 0.0129177, 0), (0.0156514, 0.0130557, -0.003), (0.0156514, 0.0130557, 0), (0.0156241, 0.0131926, -0.003), (0.0156241, 0.0131926, 0), (0.015591, 0.0133282, -0.003), (0.015591, 0.0133282, 0), (0.0155519, 0.0134623, -0.003), (0.0155519, 0.0134623, 0), (0.015507, 0.0135945, -0.003), (0.015507, 0.0135945, 0), (0.0154564, 0.0137246, -0.003), (0.0154564, 0.0137246, 0), (0.0154002, 0.0138524, -0.003), (0.0154002, 0.0138524, 0), (0.0153384, 0.0139776, -0.003), (0.0153384, 0.0139776, 0), (0.0152713, 0.0141, -0.003), (0.0152713, 0.0141, 0), (0.0151989, 0.0142194, -0.003), (0.0151989, 0.0142194, 0), (0.0151213, 0.0143354, -0.003), (0.0151213, 0.0143354, 0), (0.0150387, 0.014448, -0.003), (0.0150387, 0.014448, 0), (0.0149513, 0.0145569, -0.003), (0.0149513, 0.0145569, 0), (0.0148593, 0.0146619, -0.003), (0.0148593, 0.0146619, 0), (0.0147627, 0.0147627, -0.003), (0.0147627, 0.0147627, 0), (0.0146619, 0.0148593, -0.003), (0.0146619, 0.0148593, 0), (0.0145569, 0.0149513, -0.003), (0.0145569, 0.0149513, 0), (0.014448, 0.0150387, -0.003), (0.014448, 0.0150387, 0), (0.0143354, 0.0151213, -0.003), (0.0143354, 0.0151213, 0), (0.0142194, 0.0151989, -0.003), (0.0142194, 0.0151989, 0), (0.0141, 0.0152713, -0.003), (0.0141, 0.0152713, 0), (0.0139776, 0.0153384, -0.003), (0.0139776, 0.0153384, 0), (0.0138524, 0.0154002, -0.003), (0.0138524, 0.0154002, 0), (0.0137246, 0.0154564, -0.003), (0.0137246, 0.0154564, 0), (0.0135945, 0.015507, -0.003), (0.0135945, 0.015507, 0), (0.0134623, 0.0155519, -0.003), (0.0134623, 0.0155519, 0), (0.0133282, 0.015591, -0.003), (0.0133282, 0.015591, 0), (0.0131926, 0.0156241, -0.003), (0.0131926, 0.0156241, 0), (0.0130557, 0.0156514, -0.003), (0.0130557, 0.0156514, 0), (0.0129177, 0.0156726, -0.003), (0.0129177, 0.0156726, 0), (0.0127789, 0.0156878, -0.003), (0.0127789, 0.0156878, 0), (0.0126396, 0.015697, -0.003), (0.0126396, 0.015697, 0), (0.0125, 0.0157, -0.003), (0.0125, 0.0157, 0), (0.0123604, 0.015697, -0.003), (0.0123604, 0.015697, 0), (0.0122211, 0.0156878, -0.003), (0.0122211, 0.0156878, 0), (0.0120823, 0.0156726, -0.003), (0.0120823, 0.0156726, 0), (0.0119443, 0.0156514, -0.003), (0.0119443, 0.0156514, 0), (0.0118074, 0.0156241, -0.003), (0.0118074, 0.0156241, 0), (0.0116718, 0.015591, -0.003), (0.0116718, 0.015591, 0), (0.0115377, 0.0155519, -0.003), (0.0115377, 0.0155519, 0), (0.0114055, 0.015507, -0.003), (0.0114055, 0.015507, 0), (0.0112754, 0.0154564, -0.003), (0.0112754, 0.0154564, 0), (0.0111476, 0.0154002, -0.003), (0.0111476, 0.0154002, 0), (0.0110224, 0.0153384, -0.003), (0.0110224, 0.0153384, 0), (0.0109, 0.0152713, -0.003), (0.0109, 0.0152713, 0), (0.0107806, 0.0151989, -0.003), (0.0107806, 0.0151989, 0), (0.0106646, 0.0151213, -0.003), (0.0106646, 0.0151213, 0), (0.010552, 0.0150387, -0.003), (0.010552, 0.0150387, 0), (0.0104431, 0.0149513, -0.003), (0.0104431, 0.0149513, 0), (0.0103381, 0.0148593, -0.003), (0.0103381, 0.0148593, 0), (0.0102373, 0.0147627, -0.003), (0.0102373, 0.0147627, 0), (0.0101407, 0.0146619, -0.003), (0.0101407, 0.0146619, 0), (0.0100487, 0.0145569, -0.003), (0.0100487, 0.0145569, 0), (0.00996127, 0.014448, -0.003), (0.00996127, 0.014448, 0), (0.00987871, 0.0143354, -0.003), (0.00987871, 0.0143354, 0), (0.00980115, 0.0142194, -0.003), (0.00980115, 0.0142194, 0), (0.00972872, 0.0141, -0.003), (0.00972872, 0.0141, 0), (0.00966157, 0.0139776, -0.003), (0.00966157, 0.0139776, 0), (0.00959982, 0.0138524, -0.003), (0.00959982, 0.0138524, 0), (0.00954359, 0.0137246, -0.003), (0.00954359, 0.0137246, 0), (0.00949298, 0.0135945, -0.003), (0.00949298, 0.0135945, 0), (0.00944811, 0.0134623, -0.003), (0.00944811, 0.0134623, 0), (0.00940904, 0.0133282, -0.003), (0.00940904, 0.0133282, 0), (0.00937585, 0.0131926, -0.003), (0.00937585, 0.0131926, 0), (0.00934862, 0.0130557, -0.003), (0.00934862, 0.0130557, 0), (0.00932738, 0.0129177, -0.003), (0.00932738, 0.0129177, 0), (0.00931218, 0.0127789, -0.003), (0.00931218, 0.0127789, 0), (0.00930305, 0.0126396, -0.003), (0.00930305, 0.0126396, 0), (0.0093, 0.0125, -0.003), (0.0093, 0.0125, 0), (0.00930305, 0.0123604, -0.003), (0.00930305, 0.0123604, 0), (0.00931218, 0.0122211, -0.003), (0.00931218, 0.0122211, 0), (0.00932738, 0.0120823, -0.003), (0.00932738, 0.0120823, 0), (0.00934862, 0.0119443, -0.003), (0.00934862, 0.0119443, 0), (0.00937585, 0.0118074, -0.003), (0.00937585, 0.0118074, 0), (0.00940904, 0.0116718, -0.003), (0.00940904, 0.0116718, 0), (0.00944811, 0.0115377, -0.003), (0.00944811, 0.0115377, 0), (0.00949298, 0.0114055, -0.003), (0.00949298, 0.0114055, 0), (0.00954359, 0.0112754, -0.003), (0.00954359, 0.0112754, 0), (0.00959982, 0.0111476, -0.003), (0.00959982, 0.0111476, 0), (0.00966157, 0.0110224, -0.003), (0.00966157, 0.0110224, 0), (0.00972872, 0.0109, -0.003), (0.00972872, 0.0109, 0), (0.00980115, 0.0107806, -0.003), (0.00980115, 0.0107806, 0), (0.00987871, 0.0106646, -0.003), (0.00987871, 0.0106646, 0), (0.00996127, 0.010552, -0.003), (0.00996127, 0.010552, 0), (0.0100487, 0.0104431, -0.003), (0.0100487, 0.0104431, 0), (0.0101407, 0.0103381, -0.003), (0.0101407, 0.0103381, 0), (0.0102373, 0.0102373, -0.003), (0.0102373, 0.0102373, 0), (0.0103381, 0.0101407, -0.003), (0.0103381, 0.0101407, 0), (0.0104431, 0.0100487, -0.003), (0.0104431, 0.0100487, 0), (0.010552, 0.00996127, -0.003), (0.010552, 0.00996127, 0), (0.0106646, 0.00987871, -0.003), (0.0106646, 0.00987871, 0), (0.0107806, 0.00980115, -0.003), (0.0107806, 0.00980115, 0), (0.0109, 0.00972872, -0.003), (0.0109, 0.00972872, 0), (0.0110224, 0.00966157, -0.003), (0.0110224, 0.00966157, 0), (0.0111476, 0.00959982, -0.003), (0.0111476, 0.00959982, 0), (0.0112754, 0.00954359, -0.003), (0.0112754, 0.00954359, 0), (0.0114055, 0.00949298, -0.003), (0.0114055, 0.00949298, 0), (0.0115377, 0.00944811, -0.003), (0.0115377, 0.00944811, 0), (0.0116718, 0.00940904, -0.003), (0.0116718, 0.00940904, 0), (0.0118074, 0.00937585, -0.003), (0.0118074, 0.00937585, 0), (0.0119443, 0.00934862, -0.003), (0.0119443, 0.00934862, 0), (0.0120823, 0.00932738, -0.003), (0.0120823, 0.00932738, 0), (0.0122211, 0.00931218, -0.003), (0.0122211, 0.00931218, 0), (0.0123604, 0.00930305, -0.003), (0.0123604, 0.00930305, 0), (0.0125, 0.0093, -0.003), (0.0125, 0.0093, 0), (0.0126396, 0.00930305, -0.003), (0.0126396, 0.00930305, 0), (0.0127789, 0.00931218, -0.003), (0.0127789, 0.00931218, 0), (0.0129177, 0.00932738, -0.003), (0.0129177, 0.00932738, 0), (0.0130557, 0.00934862, -0.003), (0.0130557, 0.00934862, 0), (0.0131926, 0.00937585, -0.003), (0.0131926, 0.00937585, 0), (0.0133282, 0.00940904, -0.003), (0.0133282, 0.00940904, 0), (0.0134623, 0.00944811, -0.003), (0.0134623, 0.00944811, 0), (0.0135945, 0.00949298, -0.003), (0.0135945, 0.00949298, 0), (0.0137246, 0.00954359, -0.003), (0.0137246, 0.00954359, 0), (0.0138524, 0.00959982, -0.003), (0.0138524, 0.00959982, 0), (0.0139776, 0.00966157, -0.003), (0.0139776, 0.00966157, 0), (0.0141, 0.00972872, -0.003), (0.0141, 0.00972872, 0), (0.0142194, 0.00980115, -0.003), (0.0142194, 0.00980115, 0), (0.0143354, 0.00987871, -0.003), (0.0143354, 0.00987871, 0), (0.014448, 0.00996127, -0.003), (0.014448, 0.00996127, 0), (0.0145569, 0.0100487, -0.003), (0.0145569, 0.0100487, 0), (0.0146619, 0.0101407, -0.003), (0.0146619, 0.0101407, 0), (0.0147627, 0.0102373, -0.003), (0.0147627, 0.0102373, 0), (0.0148593, 0.0103381, -0.003), (0.0148593, 0.0103381, 0), (0.0149513, 0.0104431, -0.003), (0.0149513, 0.0104431, 0), (0.0150387, 0.010552, -0.003), (0.0150387, 0.010552, 0), (0.0151213, 0.0106646, -0.003), (0.0151213, 0.0106646, 0), (0.0151989, 0.0107806, -0.003), (0.0151989, 0.0107806, 0), (0.0152713, 0.0109, -0.003), (0.0152713, 0.0109, 0), (0.0153384, 0.0110224, -0.003), (0.0153384, 0.0110224, 0), (0.0154002, 0.0111476, -0.003), (0.0154002, 0.0111476, 0), (0.0154564, 0.0112754, -0.003), (0.0154564, 0.0112754, 0), (0.015507, 0.0114055, -0.003), (0.015507, 0.0114055, 0), (0.0155519, 0.0115377, -0.003), (0.0155519, 0.0115377, 0), (0.015591, 0.0116718, -0.003), (0.015591, 0.0116718, 0), (0.0156241, 0.0118074, -0.003), (0.0156241, 0.0118074, 0), (0.0156514, 0.0119443, -0.003), (0.0156514, 0.0119443, 0), (0.0156726, 0.0120823, -0.003), (0.0156726, 0.0120823, 0), (0.0156878, 0.0122211, -0.003), (0.0156878, 0.0122211, 0), (0.015697, 0.0123604, -0.003), (0.015697, 0.0123604, 0), (-0.0093, -0.0125, -0.003), (-0.0093, -0.0125, 0), (-0.00930305, -0.0123604, -0.003), (-0.00930305, -0.0123604, 0), (-0.00931218, -0.0122211, -0.003), (-0.00931218, -0.0122211, 0), (-0.00932738, -0.0120823, -0.003), (-0.00932738, -0.0120823, 0), (-0.00934862, -0.0119443, -0.003), (-0.00934862, -0.0119443, 0), (-0.00937585, -0.0118074, -0.003), (-0.00937585, -0.0118074, 0), (-0.00940904, -0.0116718, -0.003), (-0.00940904, -0.0116718, 0), (-0.00944811, -0.0115377, -0.003), (-0.00944811, -0.0115377, 0), (-0.00949298, -0.0114055, -0.003), (-0.00949298, -0.0114055, 0), (-0.00954359, -0.0112754, -0.003), (-0.00954359, -0.0112754, 0), (-0.00959982, -0.0111476, -0.003), (-0.00959982, -0.0111476, 0), (-0.00966157, -0.0110224, -0.003), (-0.00966157, -0.0110224, 0), (-0.00972872, -0.0109, -0.003), (-0.00972872, -0.0109, 0), (-0.00980115, -0.0107806, -0.003), (-0.00980115, -0.0107806, 0), (-0.00987871, -0.0106646, -0.003), (-0.00987871, -0.0106646, 0), (-0.00996127, -0.010552, -0.003), (-0.00996127, -0.010552, 0), (-0.0100487, -0.0104431, -0.003), (-0.0100487, -0.0104431, 0), (-0.0101407, -0.0103381, -0.003), (-0.0101407, -0.0103381, 0), (-0.0102373, -0.0102373, -0.003), (-0.0102373, -0.0102373, 0), (-0.0103381, -0.0101407, -0.003), (-0.0103381, -0.0101407, 0), (-0.0104431, -0.0100487, -0.003), (-0.0104431, -0.0100487, 0), (-0.010552, -0.00996127, -0.003), (-0.010552, -0.00996127, 0), (-0.0106646, -0.00987871, -0.003), (-0.0106646, -0.00987871, 0), (-0.0107806, -0.00980115, -0.003), (-0.0107806, -0.00980115, 0), (-0.0109, -0.00972872, -0.003), (-0.0109, -0.00972872, 0), (-0.0110224, -0.00966157, -0.003), (-0.0110224, -0.00966157, 0), (-0.0111476, -0.00959982, -0.003), (-0.0111476, -0.00959982, 0), (-0.0112754, -0.00954359, -0.003), (-0.0112754, -0.00954359, 0), (-0.0114055, -0.00949298, -0.003), (-0.0114055, -0.00949298, 0), (-0.0115377, -0.00944811, -0.003), (-0.0115377, -0.00944811, 0), (-0.0116718, -0.00940904, -0.003), (-0.0116718, -0.00940904, 0), (-0.0118074, -0.00937585, -0.003), (-0.0118074, -0.00937585, 0), (-0.0119443, -0.00934862, -0.003), (-0.0119443, -0.00934862, 0), (-0.0120823, -0.00932738, -0.003), (-0.0120823, -0.00932738, 0), (-0.0122211, -0.00931218, -0.003), (-0.0122211, -0.00931218, 0), (-0.0123604, -0.00930305, -0.003), (-0.0123604, -0.00930305, 0), (-0.0125, -0.0093, -0.003), (-0.0125, -0.0093, 0), (-0.0126396, -0.00930305, -0.003), (-0.0126396, -0.00930305, 0), (-0.0127789, -0.00931218, -0.003), (-0.0127789, -0.00931218, 0), (-0.0129177, -0.00932738, -0.003), (-0.0129177, -0.00932738, 0), (-0.0130557, -0.00934862, -0.003), (-0.0130557, -0.00934862, 0), (-0.0131926, -0.00937585, -0.003), (-0.0131926, -0.00937585, 0), (-0.0133282, -0.00940904, -0.003), (-0.0133282, -0.00940904, 0), (-0.0134623, -0.00944811, -0.003), (-0.0134623, -0.00944811, 0), (-0.0135945, -0.00949298, -0.003), (-0.0135945, -0.00949298, 0), (-0.0137246, -0.00954359, -0.003), (-0.0137246, -0.00954359, 0), (-0.0138524, -0.00959982, -0.003), (-0.0138524, -0.00959982, 0), (-0.0139776, -0.00966157, -0.003), (-0.0139776, -0.00966157, 0), (-0.0141, -0.00972872, -0.003), (-0.0141, -0.00972872, 0), (-0.0142194, -0.00980115, -0.003), (-0.0142194, -0.00980115, 0), (-0.0143354, -0.00987871, -0.003), (-0.0143354, -0.00987871, 0), (-0.014448, -0.00996127, -0.003), (-0.014448, -0.00996127, 0), (-0.0145569, -0.0100487, -0.003), (-0.0145569, -0.0100487, 0), (-0.0146619, -0.0101407, -0.003), (-0.0146619, -0.0101407, 0), (-0.0147627, -0.0102373, -0.003), (-0.0147627, -0.0102373, 0), (-0.0148593, -0.0103381, -0.003), (-0.0148593, -0.0103381, 0), (-0.0149513, -0.0104431, -0.003), (-0.0149513, -0.0104431, 0), (-0.0150387, -0.010552, -0.003), (-0.0150387, -0.010552, 0), (-0.0151213, -0.0106646, -0.003), (-0.0151213, -0.0106646, 0), (-0.0151989, -0.0107806, -0.003), (-0.0151989, -0.0107806, 0), (-0.0152713, -0.0109, -0.003), (-0.0152713, -0.0109, 0), (-0.0153384, -0.0110224, -0.003), (-0.0153384, -0.0110224, 0), (-0.0154002, -0.0111476, -0.003), (-0.0154002, -0.0111476, 0), (-0.0154564, -0.0112754, -0.003), (-0.0154564, -0.0112754, 0), (-0.015507, -0.0114055, -0.003), (-0.015507, -0.0114055, 0), (-0.0155519, -0.0115377, -0.003), (-0.0155519, -0.0115377, 0), (-0.015591, -0.0116718, -0.003), (-0.015591, -0.0116718, 0), (-0.0156241, -0.0118074, -0.003), (-0.0156241, -0.0118074, 0), (-0.0156514, -0.0119443, -0.003), (-0.0156514, -0.0119443, 0), (-0.0156726, -0.0120823, -0.003), (-0.0156726, -0.0120823, 0), (-0.0156878, -0.0122211, -0.003), (-0.0156878, -0.0122211, 0), (-0.015697, -0.0123604, -0.003), (-0.015697, -0.0123604, 0), (-0.0157, -0.0125, -0.003), (-0.0157, -0.0125, 0), (-0.015697, -0.0126396, -0.003), (-0.015697, -0.0126396, 0), (-0.0156878, -0.0127789, -0.003), (-0.0156878, -0.0127789, 0), (-0.0156726, -0.0129177, -0.003), (-0.0156726, -0.0129177, 0), (-0.0156514, -0.0130557, -0.003), (-0.0156514, -0.0130557, 0), (-0.0156241, -0.0131926, -0.003), (-0.0156241, -0.0131926, 0), (-0.015591, -0.0133282, -0.003), (-0.015591, -0.0133282, 0), (-0.0155519, -0.0134623, -0.003), (-0.0155519, -0.0134623, 0), (-0.015507, -0.0135945, -0.003), (-0.015507, -0.0135945, 0), (-0.0154564, -0.0137246, -0.003), (-0.0154564, -0.0137246, 0), (-0.0154002, -0.0138524, -0.003), (-0.0154002, -0.0138524, 0), (-0.0153384, -0.0139776, -0.003), (-0.0153384, -0.0139776, 0), (-0.0152713, -0.0141, -0.003), (-0.0152713, -0.0141, 0), (-0.0151989, -0.0142194, -0.003), (-0.0151989, -0.0142194, 0), (-0.0151213, -0.0143354, -0.003), (-0.0151213, -0.0143354, 0), (-0.0150387, -0.014448, -0.003), (-0.0150387, -0.014448, 0), (-0.0149513, -0.0145569, -0.003), (-0.0149513, -0.0145569, 0), (-0.0148593, -0.0146619, -0.003), (-0.0148593, -0.0146619, 0), (-0.0147627, -0.0147627, -0.003), (-0.0147627, -0.0147627, 0), (-0.0146619, -0.0148593, -0.003), (-0.0146619, -0.0148593, 0), (-0.0145569, -0.0149513, -0.003), (-0.0145569, -0.0149513, 0), (-0.014448, -0.0150387, -0.003), (-0.014448, -0.0150387, 0), (-0.0143354, -0.0151213, -0.003), (-0.0143354, -0.0151213, 0), (-0.0142194, -0.0151989, -0.003), (-0.0142194, -0.0151989, 0), (-0.0141, -0.0152713, -0.003), (-0.0141, -0.0152713, 0), (-0.0139776, -0.0153384, -0.003), (-0.0139776, -0.0153384, 0), (-0.0138524, -0.0154002, -0.003), (-0.0138524, -0.0154002, 0), (-0.0137246, -0.0154564, -0.003), (-0.0137246, -0.0154564, 0), (-0.0135945, -0.015507, -0.003), (-0.0135945, -0.015507, 0), (-0.0134623, -0.0155519, -0.003), (-0.0134623, -0.0155519, 0), (-0.0133282, -0.015591, -0.003), (-0.0133282, -0.015591, 0), (-0.0131926, -0.0156241, -0.003), (-0.0131926, -0.0156241, 0), (-0.0130557, -0.0156514, -0.003), (-0.0130557, -0.0156514, 0), (-0.0129177, -0.0156726, -0.003), (-0.0129177, -0.0156726, 0), (-0.0127789, -0.0156878, -0.003), (-0.0127789, -0.0156878, 0), (-0.0126396, -0.015697, -0.003), (-0.0126396, -0.015697, 0), (-0.0125, -0.0157, -0.003), (-0.0125, -0.0157, 0), (-0.0123604, -0.015697, -0.003), (-0.0123604, -0.015697, 0), (-0.0122211, -0.0156878, -0.003), (-0.0122211, -0.0156878, 0), (-0.0120823, -0.0156726, -0.003), (-0.0120823, -0.0156726, 0), (-0.0119443, -0.0156514, -0.003), (-0.0119443, -0.0156514, 0), (-0.0118074, -0.0156241, -0.003), (-0.0118074, -0.0156241, 0), (-0.0116718, -0.015591, -0.003), (-0.0116718, -0.015591, 0), (-0.0115377, -0.0155519, -0.003), (-0.0115377, -0.0155519, 0), (-0.0114055, -0.015507, -0.003), (-0.0114055, -0.015507, 0), (-0.0112754, -0.0154564, -0.003), (-0.0112754, -0.0154564, 0), (-0.0111476, -0.0154002, -0.003), (-0.0111476, -0.0154002, 0), (-0.0110224, -0.0153384, -0.003), (-0.0110224, -0.0153384, 0), (-0.0109, -0.0152713, -0.003), (-0.0109, -0.0152713, 0), (-0.0107806, -0.0151989, -0.003), (-0.0107806, -0.0151989, 0), (-0.0106646, -0.0151213, -0.003), (-0.0106646, -0.0151213, 0), (-0.010552, -0.0150387, -0.003), (-0.010552, -0.0150387, 0), (-0.0104431, -0.0149513, -0.003), (-0.0104431, -0.0149513, 0), (-0.0103381, -0.0148593, -0.003), (-0.0103381, -0.0148593, 0), (-0.0102373, -0.0147627, -0.003), (-0.0102373, -0.0147627, 0), (-0.0101407, -0.0146619, -0.003), (-0.0101407, -0.0146619, 0), (-0.0100487, -0.0145569, -0.003), (-0.0100487, -0.0145569, 0), (-0.00996127, -0.014448, -0.003), (-0.00996127, -0.014448, 0), (-0.00987871, -0.0143354, -0.003), (-0.00987871, -0.0143354, 0), (-0.00980115, -0.0142194, -0.003), (-0.00980115, -0.0142194, 0), (-0.00972872, -0.0141, -0.003), (-0.00972872, -0.0141, 0), (-0.00966157, -0.0139776, -0.003), (-0.00966157, -0.0139776, 0), (-0.00959982, -0.0138524, -0.003), (-0.00959982, -0.0138524, 0), (-0.00954359, -0.0137246, -0.003), (-0.00954359, -0.0137246, 0), (-0.00949298, -0.0135945, -0.003), (-0.00949298, -0.0135945, 0), (-0.00944811, -0.0134623, -0.003), (-0.00944811, -0.0134623, 0), (-0.00940904, -0.0133282, -0.003), (-0.00940904, -0.0133282, 0), (-0.00937585, -0.0131926, -0.003), (-0.00937585, -0.0131926, 0), (-0.00934862, -0.0130557, -0.003), (-0.00934862, -0.0130557, 0), (-0.00932738, -0.0129177, -0.003), (-0.00932738, -0.0129177, 0), (-0.00931218, -0.0127789, -0.003), (-0.00931218, -0.0127789, 0), (-0.00930305, -0.0126396, -0.003), (-0.00930305, -0.0126396, 0), (-0.0006908751, 0.005247721, 0.025), (-0.0009191198, 0.0052125845, 0.025), (-0.001145617, 0.005167537, 0.025), (-0.00046131574, 0.0052728574, 0.025), (-0.00023087779, 0.005287967, 0.025), (6.200509e-18, 0.005293, 0.025), (-0.0048900973, -0.0020255444, 0.025), (0.005293, -1.03124e-18, 0.025), (0.00023087779, 0.005287967, 0.025), (0.00046131574, 0.0052728574, 0.025), (0.0006908751, 0.005247721, 0.025), (0.0043357755, 0.0030359395, 0.025), (-0.0013699246, 0.0051126434, 0.025), (0.0052125845, 0.0009191198, 0.025), (0.005247721, 0.0006908751, 0.025), (0.005287967, 0.00023087779, 0.025), (0.0052728574, 0.00046131574, 0.025), (-0.0015916339, 0.0050480207, 0.025), (-0.0018103119, 0.0049737934, 0.025), (-0.0020255444, 0.0048900973, 0.025), (0.005287967, -0.00023087779, 0.025), (0.0052728574, -0.00046131574, 0.025), (0.0013699246, 0.0051126434, 0.025), (0.0015916339, 0.0050480207, 0.025), (0.0018103119, 0.0049737934, 0.025), (0.0020255444, 0.0048900973, 0.025), (0.0051126434, 0.0013699246, 0.025), (0.005167537, 0.001145617, 0.025), (-0.002236918, 0.0047970843, 0.025), (0.0052125845, -0.0009191198, 0.025), (0.005247721, -0.0006908751, 0.025), (0.0009191198, 0.0052125845, 0.025), (0.001145617, 0.005167537, 0.025), (0.002236918, 0.0047970843, 0.025), (0.002444038, 0.004694949, 0.025), (0.0026465, 0.0045838724, 0.025), (0.002843929, 0.004464068, 0.025), (0.0030359395, 0.0043357755, 0.025), (0.0032221763, 0.004199216, 0.025), (0.003402273, 0.004054669, 0.025), (0.003575903, 0.0039024136, 0.025), (0.0037427188, 0.0037427188, 0.025), (0.0050480207, 0.0015916339, 0.025), (0.0049737934, 0.0018103119, 0.025), (-0.0049737934, -0.0018103119, 0.025), (-0.0050480207, -0.0015916339, 0.025), (-0.0051126434, -0.0013699246, 0.025), (0.0039024136, 0.003575903, 0.025), (0.004054669, 0.003402273, 0.025), (0.004199216, 0.0032221763, 0.025), (0.004464068, 0.002843929, 0.025), (0.0045838724, 0.0026465, 0.025), (0.004694949, 0.002444038, 0.025), (0.0047970843, 0.002236918, 0.025), (0.0048900973, 0.0020255444, 0.025), (-0.005167537, -0.001145617, 0.025), (-0.0052125845, -0.0009191198, 0.025), (-0.005247721, -0.0006908751, 0.025), (-0.0052728574, -0.00046131574, 0.025), (-0.005287967, -0.00023087779, 0.025), (-0.005293, 1.5016721e-17, 0.025), (-0.0045838724, -0.0026465, 0.025), (-0.004464068, -0.002843929, 0.025), (-0.0043357755, -0.0030359395, 0.025), (-0.004694949, -0.002444038, 0.025), (-0.0047970843, -0.002236918, 0.025), (-0.003575903, -0.0039024136, 0.025), (-0.0037427188, -0.0037427188, 0.025), (-0.005287967, 0.00023087779, 0.025), (-0.0052728574, 0.00046131574, 0.025), (-0.005247721, 0.0006908751, 0.025), (-0.0048900973, 0.0020255444, 0.025), (-0.0047970843, 0.002236918, 0.025), (-0.004694949, 0.002444038, 0.025), (-0.0039024136, -0.003575903, 0.025), (-0.004054669, -0.003402273, 0.025), (-0.004199216, -0.0032221763, 0.025), (-0.0026465, -0.0045838724, 0.025), (-0.002843929, -0.004464068, 0.025), (-0.0030359395, -0.0043357755, 0.025), (0.005167537, -0.001145617, 0.025), (0.0051126434, -0.0013699246, 0.025), (0.0050480207, -0.0015916339, 0.025), (0.0049737934, -0.0018103119, 0.025), (0.0048900973, -0.0020255444, 0.025), (0.0047970843, -0.002236918, 0.025), (-0.0052125845, 0.0009191198, 0.025), (-0.005167537, 0.001145617, 0.025), (-0.0051126434, 0.0013699246, 0.025), (-0.0045838724, 0.0026465, 0.025), (-0.004464068, 0.002843929, 0.025), (-0.0043357755, 0.0030359395, 0.025), (-0.004199216, 0.0032221763, 0.025), (-0.004054669, 0.003402273, 0.025), (-0.0039024136, 0.003575903, 0.025), (-0.002444038, 0.004694949, 0.025), (-0.0026465, 0.0045838724, 0.025), (-0.003402273, -0.004054669, 0.025), (-0.0032221763, -0.004199216, 0.025), (-0.0050480207, 0.0015916339, 0.025), (-0.0049737934, 0.0018103119, 0.025), (-0.0032221763, 0.004199216, 0.025), (0.002444038, -0.004694949, 0.025), (0.002236918, -0.0047970843, 0.025), (0.004464068, -0.002843929, 0.025), (0.0043357755, -0.0030359395, 0.025), (0.001145617, -0.005167537, 0.025), (0.0009191198, -0.0052125845, 0.025), (0.0006908751, -0.005247721, 0.025), (0.0045838724, -0.0026465, 0.025), (0.004694949, -0.002444038, 0.025), (-0.0037427188, 0.0037427188, 0.025), (-0.003575903, 0.0039024136, 0.025), (-0.003402273, 0.004054669, 0.025), (-0.0030359395, 0.0043357755, 0.025), (-0.002843929, 0.004464068, 0.025), (0.0015916339, -0.0050480207, 0.025), (0.0013699246, -0.0051126434, 0.025), (0.003575903, -0.0039024136, 0.025), (0.004199216, -0.0032221763, 0.025), (0.004054669, -0.003402273, 0.025), (0.0039024136, -0.003575903, 0.025), (-0.00023087779, -0.005287967, 0.025), (-0.00046131574, -0.0052728574, 0.025), (-0.0006908751, -0.005247721, 0.025), (-0.0009191198, -0.0052125845, 0.025), (-0.001145617, -0.005167537, 0.025), (-0.0013699246, -0.0051126434, 0.025), (-0.0015916339, -0.0050480207, 0.025), (-0.0018103119, -0.0049737934, 0.025), (-0.0020255444, -0.0048900973, 0.025), (-0.002236918, -0.0047970843, 0.025), (0.0030359395, -0.0043357755, 0.025), (0.002843929, -0.004464068, 0.025), (0.0026465, -0.0045838724, 0.025), (0.00046131574, -0.0052728574, 0.025), (0.00023087779, -0.005287967, 0.025), (-2.4477912e-17, -0.005293, 0.025), (-0.002444038, -0.004694949, 0.025), (0.0037427188, -0.0037427188, 0.025), (0.0020255444, -0.0048900973, 0.025), (0.0018103119, -0.0049737934, 0.025), (0.003402273, -0.004054669, 0.025), (0.0032221763, -0.004199216, 0.025), (0.004293, 2.628709e-19, 0), (0.004293, 2.628709e-19, 0.024), (0.004288917, 0.0001872578, 0), (0.004288917, 0.0001872578, 0.024), (0.0042766673, 0.00037415978, 0), (0.0042766673, 0.00037415978, 0.024), (0.004256271, 0.000560349, 0), (0.004256271, 0.000560349, 0.024), (0.0042277747, 0.0007454718, 0), (0.0042277747, 0.0007454718, 0.024), (0.0041912366, 0.000929175, 0), (0.0041912366, 0.000929175, 0.024), (0.0041467235, 0.0011111143, 0), (0.0041467235, 0.0011111143, 0.024), (0.0040943106, 0.0012909338, 0), (0.0040943106, 0.0012909338, 0.024), (0.0040341034, 0.0014682919, 0), (0.0040341034, 0.0014682919, 0.024), (0.003966217, 0.0016428644, 0), (0.003966217, 0.0016428644, 0.024), (0.0038907742, 0.001814298, 0), (0.0038907742, 0.001814298, 0.024), (0.0038079387, 0.001982288, 0), (0.0038079387, 0.001982288, 0.024), (0.0037178427, 0.0021465, 0), (0.0037178427, 0.0021465, 0.024), (0.003620678, 0.002306629, 0), (0.003620678, 0.002306629, 0.024), (0.0035166156, 0.0024623596, 0), (0.0035166156, 0.0024623596, 0.024), (0.003405866, 0.0026134162, 0), (0.003405866, 0.0026134162, 0.024), (0.0032886285, 0.0027594832, 0), (0.0032886285, 0.0027594832, 0.024), (0.0031651338, 0.002900313, 0), (0.0031651338, 0.002900313, 0.024), (0.003035609, 0.003035609, 0), (0.003035609, 0.003035609, 0.024), (0.002900313, 0.0031651338, 0), (0.002900313, 0.0031651338, 0.024), (0.0027594832, 0.0032886285, 0), (0.0027594832, 0.0032886285, 0.024), (0.0026134162, 0.003405866, 0), (0.0026134162, 0.003405866, 0.024), (0.0024623596, 0.0035166156, 0), (0.0024623596, 0.0035166156, 0.024), (0.002306629, 0.003620678, 0), (0.002306629, 0.003620678, 0.024), (0.0021465, 0.0037178427, 0), (0.0021465, 0.0037178427, 0.024), (0.001982288, 0.0038079387, 0), (0.001982288, 0.0038079387, 0.024), (0.001814298, 0.0038907742, 0), (0.001814298, 0.0038907742, 0.024), (0.0016428644, 0.003966217, 0), (0.0016428644, 0.003966217, 0.024), (0.0014682919, 0.0040341034, 0), (0.0014682919, 0.0040341034, 0.024), (0.0012909338, 0.0040943106, 0), (0.0012909338, 0.0040943106, 0.024), (0.0011111143, 0.0041467235, 0), (0.0011111143, 0.0041467235, 0.024), (0.000929175, 0.0041912366, 0), (0.000929175, 0.0041912366, 0.024), (0.0007454718, 0.0042277747, 0), (0.0007454718, 0.0042277747, 0.024), (0.000560349, 0.004256271, 0), (0.000560349, 0.004256271, 0.024), (0.00037415978, 0.0042766673, 0), (0.00037415978, 0.0042766673, 0.024), (0.0001872578, 0.004288917, 0), (0.0001872578, 0.004288917, 0.024), (2.628709e-19, 0.004293, 0), (5.0290588e-18, 0.004293, 0.024), (-0.0001872578, 0.004288917, 0), (-0.0001872578, 0.004288917, 0.024), (-0.00037415978, 0.0042766673, 0), (-0.00037415978, 0.0042766673, 0.024), (-0.000560349, 0.004256271, 0), (-0.000560349, 0.004256271, 0.024), (-0.0007454718, 0.0042277747, 0), (-0.0007454718, 0.0042277747, 0.024), (-0.000929175, 0.0041912366, 0), (-0.000929175, 0.0041912366, 0.024), (-0.0011111143, 0.0041467235, 0), (-0.0011111143, 0.0041467235, 0.024), (-0.0012909338, 0.0040943106, 0), (-0.0012909338, 0.0040943106, 0.024), (-0.0014682919, 0.0040341034, 0), (-0.0014682919, 0.0040341034, 0.024), (-0.0016428644, 0.003966217, 0), (-0.0016428644, 0.003966217, 0.024), (-0.001814298, 0.0038907742, 0), (-0.001814298, 0.0038907742, 0.024), (-0.001982288, 0.0038079387, 0), (-0.001982288, 0.0038079387, 0.024), (-0.0021465, 0.0037178427, 0), (-0.0021465, 0.0037178427, 0.024), (-0.002306629, 0.003620678, 0), (-0.002306629, 0.003620678, 0.024), (-0.0024623596, 0.0035166156, 0), (-0.0024623596, 0.0035166156, 0.024), (-0.0026134162, 0.003405866, 0), (-0.0026134162, 0.003405866, 0.024), (-0.0027594832, 0.0032886285, 0), (-0.0027594832, 0.0032886285, 0.024), (-0.002900313, 0.0031651338, 0), (-0.002900313, 0.0031651338, 0.024), (-0.003035609, 0.003035609, 0), (-0.003035609, 0.003035609, 0.024), (-0.0031651338, 0.002900313, 0), (-0.0031651338, 0.002900313, 0.024), (-0.0032886285, 0.0027594832, 0), (-0.0032886285, 0.0027594832, 0.024), (-0.003405866, 0.0026134162, 0), (-0.003405866, 0.0026134162, 0.024), (-0.0035166156, 0.0024623596, 0), (-0.0035166156, 0.0024623596, 0.024), (-0.003620678, 0.002306629, 0), (-0.003620678, 0.002306629, 0.024), (-0.0037178427, 0.0021465, 0), (-0.0037178427, 0.0021465, 0.024), (-0.0038079387, 0.001982288, 0), (-0.0038079387, 0.001982288, 0.024), (-0.0038907742, 0.001814298, 0), (-0.0038907742, 0.001814298, 0.024), (-0.003966217, 0.0016428644, 0), (-0.003966217, 0.0016428644, 0.024), (-0.0040341034, 0.0014682919, 0), (-0.0040341034, 0.0014682919, 0.024), (-0.0040943106, 0.0012909338, 0), (-0.0040943106, 0.0012909338, 0.024), (-0.0041467235, 0.0011111143, 0), (-0.0041467235, 0.0011111143, 0.024), (-0.0041912366, 0.000929175, 0), (-0.0041912366, 0.000929175, 0.024), (-0.0042277747, 0.0007454718, 0), (-0.0042277747, 0.0007454718, 0.024), (-0.004256271, 0.000560349, 0), (-0.004256271, 0.000560349, 0.024), (-0.0042766673, 0.00037415978, 0), (-0.0042766673, 0.00037415978, 0.024), (-0.004288917, 0.0001872578, 0), (-0.004288917, 0.0001872578, 0.024), (-0.004293, 7.886117e-19, 0), (-0.004293, 1.2227418e-17, 0.024), (-0.004288917, -0.0001872578, 0), (-0.004288917, -0.0001872578, 0.024), (-0.0042766673, -0.00037415978, 0), (-0.0042766673, -0.00037415978, 0.024), (-0.004256271, -0.000560349, 0), (-0.004256271, -0.000560349, 0.024), (-0.0042277747, -0.0007454718, 0), (-0.0042277747, -0.0007454718, 0.024), (-0.0041912366, -0.000929175, 0), (-0.0041912366, -0.000929175, 0.024), (-0.0041467235, -0.0011111143, 0), (-0.0041467235, -0.0011111143, 0.024), (-0.0040943106, -0.0012909338, 0), (-0.0040943106, -0.0012909338, 0.024), (-0.0040341034, -0.0014682919, 0), (-0.0040341034, -0.0014682919, 0.024), (-0.003966217, -0.0016428644, 0), (-0.003966217, -0.0016428644, 0.024), (-0.0038907742, -0.001814298, 0), (-0.0038907742, -0.001814298, 0.024), (-0.0038079387, -0.001982288, 0), (-0.0038079387, -0.001982288, 0.024), (-0.0037178427, -0.0021465, 0), (-0.0037178427, -0.0021465, 0.024), (-0.003620678, -0.002306629, 0), (-0.003620678, -0.002306629, 0.024), (-0.0035166156, -0.0024623596, 0), (-0.0035166156, -0.0024623596, 0.024), (-0.003405866, -0.0026134162, 0), (-0.003405866, -0.0026134162, 0.024), (-0.0032886285, -0.0027594832, 0), (-0.0032886285, -0.0027594832, 0.024), (-0.0031651338, -0.002900313, 0), (-0.0031651338, -0.002900313, 0.024), (-0.003035609, -0.003035609, 0), (-0.003035609, -0.003035609, 0.024), (-0.002900313, -0.0031651338, 0), (-0.002900313, -0.0031651338, 0.024), (-0.0027594832, -0.0032886285, 0), (-0.0027594832, -0.0032886285, 0.024), (-0.0026134162, -0.003405866, 0), (-0.0026134162, -0.003405866, 0.024), (-0.0024623596, -0.0035166156, 0), (-0.0024623596, -0.0035166156, 0.024), (-0.002306629, -0.003620678, 0), (-0.002306629, -0.003620678, 0.024), (-0.0021465, -0.0037178427, 0), (-0.0021465, -0.0037178427, 0.024), (-0.001982288, -0.0038079387, 0), (-0.001982288, -0.0038079387, 0.024), (-0.001814298, -0.0038907742, 0), (-0.001814298, -0.0038907742, 0.024), (-0.0016428644, -0.003966217, 0), (-0.0016428644, -0.003966217, 0.024), (-0.0014682919, -0.0040341034, 0), (-0.0014682919, -0.0040341034, 0.024), (-0.0012909338, -0.0040943106, 0), (-0.0012909338, -0.0040943106, 0.024), (-0.0011111143, -0.0041467235, 0), (-0.0011111143, -0.0041467235, 0.024), (-0.000929175, -0.0041912366, 0), (-0.000929175, -0.0041912366, 0.024), (-0.0007454718, -0.0042277747, 0), (-0.0007454718, -0.0042277747, 0.024), (-0.000560349, -0.004256271, 0), (-0.000560349, -0.004256271, 0.024), (-0.00037415978, -0.0042766673, 0), (-0.00037415978, -0.0042766673, 0.024), (-0.0001872578, -0.004288917, 0), (-0.0001872578, -0.004288917, 0.024), (-7.886117e-19, -0.004293, 0), (-1.9853407e-17, -0.004293, 0.024), (0.0001872578, -0.004288917, 0), (0.0001872578, -0.004288917, 0.024), (0.00037415978, -0.0042766673, 0), (0.00037415978, -0.0042766673, 0.024), (0.000560349, -0.004256271, 0), (0.000560349, -0.004256271, 0.024), (0.0007454718, -0.0042277747, 0), (0.0007454718, -0.0042277747, 0.024), (0.000929175, -0.0041912366, 0), (0.000929175, -0.0041912366, 0.024), (0.0011111143, -0.0041467235, 0), (0.0011111143, -0.0041467235, 0.024), (0.0012909338, -0.0040943106, 0), (0.0012909338, -0.0040943106, 0.024), (0.0014682919, -0.0040341034, 0), (0.0014682919, -0.0040341034, 0.024), (0.0016428644, -0.003966217, 0), (0.0016428644, -0.003966217, 0.024), (0.001814298, -0.0038907742, 0), (0.001814298, -0.0038907742, 0.024), (0.001982288, -0.0038079387, 0), (0.001982288, -0.0038079387, 0.024), (0.0021465, -0.0037178427, 0), (0.0021465, -0.0037178427, 0.024), (0.002306629, -0.003620678, 0), (0.002306629, -0.003620678, 0.024), (0.0024623596, -0.0035166156, 0), (0.0024623596, -0.0035166156, 0.024), (0.0026134162, -0.003405866, 0), (0.0026134162, -0.003405866, 0.024), (0.0027594832, -0.0032886285, 0), (0.0027594832, -0.0032886285, 0.024), (0.002900313, -0.0031651338, 0), (0.002900313, -0.0031651338, 0.024), (0.003035609, -0.003035609, 0), (0.003035609, -0.003035609, 0.024), (0.0031651338, -0.002900313, 0), (0.0031651338, -0.002900313, 0.024), (0.0032886285, -0.0027594832, 0), (0.0032886285, -0.0027594832, 0.024), (0.003405866, -0.0026134162, 0), (0.003405866, -0.0026134162, 0.024), (0.0035166156, -0.0024623596, 0), (0.0035166156, -0.0024623596, 0.024), (0.003620678, -0.002306629, 0), (0.003620678, -0.002306629, 0.024), (0.0037178427, -0.0021465, 0), (0.0037178427, -0.0021465, 0.024), (0.0038079387, -0.001982288, 0), (0.0038079387, -0.001982288, 0.024), (0.0038907742, -0.001814298, 0), (0.0038907742, -0.001814298, 0.024), (0.003966217, -0.0016428644, 0), (0.003966217, -0.0016428644, 0.024), (0.0040341034, -0.0014682919, 0), (0.0040341034, -0.0014682919, 0.024), (0.0040943106, -0.0012909338, 0), (0.0040943106, -0.0012909338, 0.024), (0.0041467235, -0.0011111143, 0), (0.0041467235, -0.0011111143, 0.024), (0.0041912366, -0.000929175, 0), (0.0041912366, -0.000929175, 0.024), (0.0042277747, -0.0007454718, 0), (0.0042277747, -0.0007454718, 0.024), (0.004256271, -0.000560349, 0), (0.004256271, -0.000560349, 0.024), (0.0042766673, -0.00037415978, 0), (0.0042766673, -0.00037415978, 0.024), (0.004288917, -0.0001872578, 0), (0.004288917, -0.0001872578, 0.024), (0, -0.0125, 0), (-0.0125, -3.46945e-18, 0), (0, 0.0125, 0), (0.02, 0.02, 0), (0.02, -3.46945e-18, 0), (0, 0.02, 0), (-0.0133282, 0.00940904, 0), (-0.0134623, 0.00944811, 0), (-0.0148593, 0.0103381, 0), (-0.0149513, 0.0104431, 0), (-0.0150387, 0.010552, 0), (-0.015507, 0.0114055, 0), (-0.0155519, 0.0115377, 0), (-0.02, -3.46945e-18, 0), (-0.0157, 0.0125, 0), (-0.015697, 0.0126396, 0), (-0.02, 0.02, 0), (-0.0156878, 0.0127789, 0), (-0.0156726, 0.0129177, 0), (-0.0156514, 0.0130557, 0), (-0.0156241, 0.0131926, 0), (-0.015591, 0.0133282, 0), (-0.0127789, 0.0156878, 0), (-0.0126396, 0.015697, 0), (-0.015591, 0.0116718, 0), (-0.0156241, 0.0118074, 0), (-0.0156514, 0.0119443, 0), (-0.0156726, 0.0120823, 0), (-0.0156878, 0.0122211, 0), (-0.015697, 0.0123604, 0), (-0.0106646, 0.0151213, 0), (-0.010552, 0.0150387, 0), (-0.0104431, 0.0149513, 0), (-0.0103381, 0.0148593, 0), (-0.0151213, 0.0106646, 0), (-0.0151989, 0.0107806, 0), (-0.0152713, 0.0109, 0), (-0.0153384, 0.0110224, 0), (-0.0155519, 0.0134623, 0), (-0.015507, 0.0135945, 0), (-0.0154564, 0.0137246, 0), (-0.0145569, 0.0100487, 0), (-0.0146619, 0.0101407, 0), (-0.0147627, 0.0102373, 0), (-0.0154002, 0.0111476, 0), (-0.0154564, 0.0112754, 0), (-0.0135945, 0.015507, 0), (-0.0137246, 0.0154564, 0), (-0.0138524, 0.0154002, 0), (-0.0134623, 0.0155519, 0), (-0.0133282, 0.015591, 0), (-0.0131926, 0.0156241, 0), (-0.0102373, 0.0147627, 0), (-0.0101407, 0.0146619, 0), (-0.0100487, 0.0145569, 0), (-0.00959982, 0.0138524, 0), (-0.00954359, 0.0137246, 0), (-0.00949298, 0.0135945, 0), (-0.0093, 0.0125, 0), (-0.00930305, 0.0126396, 0), (-0.00931218, 0.0127789, 0), (-0.0125, 0.0093, 0), (-0.0126396, 0.00930305, 0), (-0.0127789, 0.00931218, 0), (-0.0129177, 0.00932738, 0), (-0.0130557, 0.00934862, 0), (-0.0131926, 0.00937585, 0), (-0.0135945, 0.00949298, 0), (-0.0137246, 0.00954359, 0), (-0.0138524, 0.00959982, 0), (-0.0154002, 0.0138524, 0), (-0.0153384, 0.0139776, 0), (-0.0152713, 0.0141, 0), (-0.0148593, 0.0146619, 0), (-0.0149513, 0.0145569, 0), (-0.0150387, 0.014448, 0), (-0.0147627, 0.0147627, 0), (-0.0146619, 0.0148593, 0), (-0.0145569, 0.0149513, 0), (-0.0130557, 0.0156514, 0), (-0.0129177, 0.0156726, 0), (-0.0116718, 0.015591, 0), (-0.0115377, 0.0155519, 0), (-0.0114055, 0.015507, 0), (-0.00996127, 0.014448, 0), (-0.00987871, 0.0143354, 0), (-0.00980115, 0.0142194, 0), (-0.00944811, 0.0134623, 0), (-0.00940904, 0.0133282, 0), (-0.00937585, 0.0131926, 0), (-0.00934862, 0.0130557, 0), (-0.00932738, 0.0129177, 0), (-0.0139776, 0.00966157, 0), (-0.0141, 0.00972872, 0), (-0.0142194, 0.00980115, 0), (-0.0143354, 0.00987871, 0), (-0.014448, 0.00996127, 0), (-0.014448, 0.0150387, 0), (-0.0143354, 0.0151213, 0), (-0.0142194, 0.0151989, 0), (-0.0120823, 0.0156726, 0), (-0.0119443, 0.0156514, 0), (-0.0118074, 0.0156241, 0), (-0.0112754, 0.0154564, 0), (-0.0111476, 0.0154002, 0), (-0.0110224, 0.0153384, 0), (-0.0109, 0.0152713, 0), (-0.0107806, 0.0151989, 0), (-0.00972872, 0.0141, 0), (-0.00966157, 0.0139776, 0), (-0.0151989, 0.0142194, 0), (-0.0151213, 0.0143354, 0), (-0.0141, 0.0152713, 0), (-0.0139776, 0.0153384, 0), (-0.0125, 0.0157, 0), (-0.0123604, 0.015697, 0), (-0.0122211, 0.0156878, 0), (-0.0123604, 0.00930305, 0), (-0.0122211, 0.00931218, 0), (-0.0120823, 0.00932738, 0), (-0.0119443, 0.00934862, 0), (-0.0118074, 0.00937585, 0), (-0.0116718, 0.00940904, 0), (-0.0115377, 0.00944811, 0), (-0.0114055, 0.00949298, 0), (-0.0112754, 0.00954359, 0), (-0.0111476, 0.00959982, 0), (-0.0110224, 0.00966157, 0), (-0.0109, 0.00972872, 0), (-0.0107806, 0.00980115, 0), (-0.0106646, 0.00987871, 0), (-0.010552, 0.00996127, 0), (-0.0104431, 0.0100487, 0), (-0.0103381, 0.0101407, 0), (-0.0102373, 0.0102373, 0), (-0.0101407, 0.0103381, 0), (-0.0100487, 0.0104431, 0), (-0.00996127, 0.010552, 0), (-0.00987871, 0.0106646, 0), (-0.00980115, 0.0107806, 0), (-0.00972872, 0.0109, 0), (-0.00966157, 0.0110224, 0), (-0.00959982, 0.0111476, 0), (-0.00954359, 0.0112754, 0), (-0.00949298, 0.0114055, 0), (-0.00944811, 0.0115377, 0), (-0.00940904, 0.0116718, 0), (-0.00937585, 0.0118074, 0), (-0.00934862, 0.0119443, 0), (-0.00932738, 0.0120823, 0), (-0.00931218, 0.0122211, 0), (-0.00930305, 0.0123604, 0), (0, -0.02, 0), (-0.02, -0.02, 0), (0.0156241, -0.0118074, 0), (0.0156514, -0.0119443, 0), (0.0151213, -0.0106646, 0), (0.0151989, -0.0107806, 0), (0.0152713, -0.0109, 0), (0.0153384, -0.0110224, 0), (0.0156726, -0.0120823, 0), (0.0156878, -0.0122211, 0), (0.02, -0.02, 0), (0.015697, -0.0123604, 0), (0.0157, -0.0125, 0), (0.0152713, -0.0141, 0), (0.0151989, -0.0142194, 0), (0.0116718, -0.015591, 0), (0.0115377, -0.0155519, 0), (0.0114055, -0.015507, 0), (0.0125, -3.46945e-18, 0), (0.0154002, -0.0111476, 0), (0.0154564, -0.0112754, 0), (0.015507, -0.0114055, 0), (0.0143354, -0.00987871, 0), (0.014448, -0.00996127, 0), (0.0145569, -0.0100487, 0), (0.0127789, -0.0156878, 0), (0.0126396, -0.015697, 0), (0.0112754, -0.0154564, 0), (0.0111476, -0.0154002, 0), (0.0110224, -0.0153384, 0), (0.0155519, -0.0115377, 0), (0.015591, -0.0116718, 0), (0.0146619, -0.0101407, 0), (0.0147627, -0.0102373, 0), (0.0148593, -0.0103381, 0), (0.0145569, -0.0149513, 0), (0.014448, -0.0150387, 0), (0.0109, -0.0152713, 0), (0.0107806, -0.0151989, 0), (0.0106646, -0.0151213, 0), (0.0104431, -0.0149513, 0), (0.0103381, -0.0148593, 0), (0.0102373, -0.0147627, 0), (0.0101407, -0.0146619, 0), (0.0100487, -0.0145569, 0), (0.00996127, -0.014448, 0), (0.00987871, -0.0143354, 0), (0.0149513, -0.0104431, 0), (0.0150387, -0.010552, 0), (0.0156726, -0.0129177, 0), (0.0156514, -0.0130557, 0), (0.0156241, -0.0131926, 0), (0.015591, -0.0133282, 0), (0.0149513, -0.0145569, 0), (0.0148593, -0.0146619, 0), (0.0143354, -0.0151213, 0), (0.0142194, -0.0151989, 0), (0.0141, -0.0152713, 0), (0.0120823, -0.0156726, 0), (0.0119443, -0.0156514, 0), (0.0118074, -0.0156241, 0), (0.010552, -0.0150387, 0), (0.00949298, -0.0135945, 0), (0.00944811, -0.0134623, 0), (0.00940904, -0.0133282, 0), (0.00937585, -0.0131926, 0), (0.00934862, -0.0130557, 0), (0.00932738, -0.0129177, 0), (0.00931218, -0.0127789, 0), (0.015697, -0.0126396, 0), (0.0156878, -0.0127789, 0), (0.0151213, -0.0143354, 0), (0.0150387, -0.014448, 0), (0.0125, -0.0157, 0), (0.0123604, -0.015697, 0), (0.0122211, -0.0156878, 0), (0.0155519, -0.0134623, 0), (0.015507, -0.0135945, 0), (0.0154564, -0.0137246, 0), (0.0154002, -0.0138524, 0), (0.0153384, -0.0139776, 0), (0.0147627, -0.0147627, 0), (0.0146619, -0.0148593, 0), (0.0137246, -0.0154564, 0), (0.0135945, -0.015507, 0), (0.00980115, -0.0142194, 0), (0.00972872, -0.0141, 0), (0.00966157, -0.0139776, 0), (0.0133282, -0.00940904, 0), (0.0134623, -0.00944811, 0), (0.0135945, -0.00949298, 0), (0.0139776, -0.0153384, 0), (0.0138524, -0.0154002, 0), (0.00959982, -0.0138524, 0), (0.00954359, -0.0137246, 0), (0.0126396, -0.00930305, 0), (0.0127789, -0.00931218, 0), (0.0129177, -0.00932738, 0), (0.0137246, -0.00954359, 0), (0.0138524, -0.00959982, 0), (0.0139776, -0.00966157, 0), (0.0141, -0.00972872, 0), (0.0142194, -0.00980115, 0), (0.0134623, -0.0155519, 0), (0.0133282, -0.015591, 0), (0.0131926, -0.0156241, 0), (0.0130557, -0.00934862, 0), (0.0131926, -0.00937585, 0), (0.0130557, -0.0156514, 0), (0.0129177, -0.0156726, 0), (0.00930305, -0.0126396, 0), (0.0093, -0.0125, 0), (0.00930305, -0.0123604, 0), (0.00931218, -0.0122211, 0), (0.00932738, -0.0120823, 0), (0.00934862, -0.0119443, 0), (0.00937585, -0.0118074, 0), (0.00940904, -0.0116718, 0), (0.00944811, -0.0115377, 0), (0.00949298, -0.0114055, 0), (0.00954359, -0.0112754, 0), (0.00959982, -0.0111476, 0), (0.00966157, -0.0110224, 0), (0.00972872, -0.0109, 0), (0.00980115, -0.0107806, 0), (0.00987871, -0.0106646, 0), (0.00996127, -0.010552, 0), (0.0100487, -0.0104431, 0), (0.0101407, -0.0103381, 0), (0.0102373, -0.0102373, 0), (0.0103381, -0.0101407, 0), (0.0104431, -0.0100487, 0), (0.010552, -0.00996127, 0), (0.0106646, -0.00987871, 0), (0.0107806, -0.00980115, 0), (0.0109, -0.00972872, 0), (0.0110224, -0.00966157, 0), (0.0111476, -0.00959982, 0), (0.0112754, -0.00954359, 0), (0.0114055, -0.00949298, 0), (0.0115377, -0.00944811, 0), (0.0116718, -0.00940904, 0), (0.0118074, -0.00937585, 0), (0.0119443, -0.00934862, 0), (0.0120823, -0.00932738, 0), (0.0122211, -0.00931218, 0), (0.0123604, -0.00930305, 0), (0.0125, -0.0093, 0), (-0.0156241, 0.0131926, -0.003), (-0.0156514, 0.0130557, -0.003), (-0.02, 0.02, -0.003), (-0.0156726, 0.0129177, -0.003), (-0.0156878, 0.0127789, -0.003), (-0.015697, 0.0126396, -0.003), (-0.0157, 0.0125, -0.003), (-0.02, -0.02, -0.003), (-0.0122211, 0.00931218, -0.003), (-0.0120823, 0.00932738, -0.003), (0.02, 0.02, -0.003), (-0.00932738, 0.0120823, -0.003), (-0.00931218, 0.0122211, -0.003), (-0.010552, 0.0150387, -0.003), (-0.0106646, 0.0151213, -0.003), (0.015697, -0.0123604, -0.003), (0.0156878, -0.0122211, -0.003), (0.02, -0.02, -0.003), (0.00972872, -0.0109, -0.003), (0.00966157, -0.0110224, -0.003), (0.00940904, -0.0116718, -0.003), (0.0126396, -0.00930305, -0.003), (-0.0123604, 0.015697, -0.003), (-0.0125, 0.0157, -0.003), (-0.015507, 0.0135945, -0.003), (-0.0155519, 0.0134623, -0.003), (-0.015591, 0.0133282, -0.003), (0.0142194, -0.0151989, -0.003), (0.0143354, -0.0151213, -0.003), (0.00954359, -0.0112754, -0.003), (0.00949298, -0.0114055, -0.003), (0.0127789, -0.00931218, -0.003), (-0.015697, 0.0123604, -0.003), (-0.0156878, 0.0122211, -0.003), (-0.0156726, 0.0120823, -0.003), (-0.0111476, 0.00959982, -0.003), (-0.0110224, 0.00966157, -0.003), (-0.0109, 0.00972872, -0.003), (-0.0107806, 0.00980115, -0.003), (-0.0106646, 0.00987871, -0.003), (-0.010552, 0.00996127, -0.003), (-0.0104431, 0.0100487, -0.003), (-0.00966157, 0.0139776, -0.003), (-0.00959982, 0.0138524, -0.003), (-0.00954359, 0.0137246, -0.003), (-0.0137246, 0.0154564, -0.003), (-0.0138524, 0.0154002, -0.003), (-0.0139776, 0.0153384, -0.003), (-0.0153384, 0.0139776, -0.003), (-0.0154002, 0.0138524, -0.003), (-0.0154564, 0.0137246, -0.003), (0.00931218, -0.0127789, -0.003), (0.00996127, -0.014448, -0.003), (0.0100487, -0.0145569, -0.003), (0.0101407, -0.0146619, -0.003), (0.0153384, -0.0110224, -0.003), (0.0154002, -0.0111476, -0.003), (0.0154564, -0.0112754, -0.003), (0.0151213, -0.0106646, -0.003), (0.0150387, -0.010552, -0.003), (-0.0101407, 0.0103381, -0.003), (-0.0100487, 0.0104431, -0.003), (-0.00996127, 0.010552, -0.003), (-0.00940904, 0.0116718, -0.003), (-0.00937585, 0.0118074, -0.003), (-0.00934862, 0.0119443, -0.003), (-0.00987871, 0.0143354, -0.003), (-0.00996127, 0.014448, -0.003), (-0.0100487, 0.0145569, -0.003), (-0.0101407, 0.0146619, -0.003), (-0.0102373, 0.0147627, -0.003), (-0.0103381, 0.0148593, -0.003), (-0.0104431, 0.0149513, -0.003), (-0.0107806, 0.0151989, -0.003), (-0.0109, 0.0152713, -0.003), (-0.0110224, 0.0153384, -0.003), (-0.0111476, 0.0154002, -0.003), (-0.0112754, 0.0154564, -0.003), (-0.0114055, 0.015507, -0.003), (-0.0119443, 0.0156514, -0.003), (-0.0120823, 0.0156726, -0.003), (-0.0122211, 0.0156878, -0.003), (-0.0126396, 0.015697, -0.003), (-0.0127789, 0.0156878, -0.003), (-0.0129177, 0.0156726, -0.003), (-0.0148593, 0.0146619, -0.003), (-0.0147627, 0.0147627, -0.003), (-0.0146619, 0.0148593, -0.003), (0.00937585, -0.0131926, -0.003), (0.00940904, -0.0133282, -0.003), (0.015591, -0.0133282, -0.003), (0.0156241, -0.0131926, -0.003), (0.0149513, -0.0104431, -0.003), (0.0148593, -0.0103381, -0.003), (0.0147627, -0.0102373, -0.003), (0.0146619, -0.0101407, -0.003), (0.0145569, -0.0100487, -0.003), (0.014448, -0.00996127, -0.003), (0.00937585, -0.0118074, -0.003), (0.00934862, -0.0119443, -0.003), (-0.0149513, 0.0104431, -0.003), (-0.0150387, 0.010552, -0.003), (-0.0119443, 0.00934862, -0.003), (-0.0118074, 0.00937585, -0.003), (-0.0116718, 0.00940904, -0.003), (-0.0115377, 0.00944811, -0.003), (-0.0114055, 0.00949298, -0.003), (-0.0112754, 0.00954359, -0.003), (-0.00987871, 0.0106646, -0.003), (-0.00980115, 0.0107806, -0.003), (-0.00972872, 0.0109, -0.003), (-0.00931218, 0.0127789, -0.003), (-0.0115377, 0.0155519, -0.003), (-0.0116718, 0.015591, -0.003), (-0.0118074, 0.0156241, -0.003), (-0.0130557, 0.0156514, -0.003), (-0.0131926, 0.0156241, -0.003), (-0.0133282, 0.015591, -0.003), (-0.0134623, 0.0155519, -0.003), (-0.0135945, 0.015507, -0.003), (-0.0143354, 0.0151213, -0.003), (-0.014448, 0.0150387, -0.003), (-0.0145569, 0.0149513, -0.003), (-0.0149513, 0.0145569, -0.003), (-0.0150387, 0.014448, -0.003), (-0.0151213, 0.0143354, -0.003), (0.00944811, -0.0134623, -0.003), (0.00949298, -0.0135945, -0.003), (0.00954359, -0.0137246, -0.003), (0.0102373, -0.0147627, -0.003), (0.0103381, -0.0148593, -0.003), (0.0104431, -0.0149513, -0.003), (0.0111476, -0.0154002, -0.003), (0.0112754, -0.0154564, -0.003), (0.0114055, -0.015507, -0.003), (0.0119443, -0.0156514, -0.003), (0.0120823, -0.0156726, -0.003), (0.0156726, -0.0120823, -0.003), (0.0156514, -0.0119443, -0.003), (0.0156241, -0.0118074, -0.003), (0.015591, -0.0116718, -0.003), (0.0155519, -0.0115377, -0.003), (0.015507, -0.0114055, -0.003), (0.0114055, -0.00949298, -0.003), (0.0112754, -0.00954359, -0.003), (0.0111476, -0.00959982, -0.003), (0.0103381, -0.0101407, -0.003), (0.0102373, -0.0102373, -0.003), (0.00959982, -0.0111476, -0.003), (0.00931218, -0.0122211, -0.003), (0.00944811, -0.0115377, -0.003), (0.0141, -0.00972872, -0.003), (0.0139776, -0.00966157, -0.003), (0.0135945, -0.00949298, -0.003), (0.0134623, -0.00944811, -0.003), (0.0133282, -0.00940904, -0.003), (0.0131926, -0.00937585, -0.003), (0.0142194, -0.00980115, -0.003), (-0.0156514, 0.0119443, -0.003), (-0.0156241, 0.0118074, -0.003), (-0.015591, 0.0116718, -0.003), (-0.0148593, 0.0103381, -0.003), (-0.0103381, 0.0101407, -0.003), (-0.0102373, 0.0102373, -0.003), (-0.00966157, 0.0110224, -0.003), (-0.00959982, 0.0111476, -0.003), (-0.00954359, 0.0112754, -0.003), (-0.00949298, 0.0114055, -0.003), (-0.00944811, 0.0115377, -0.003), (-0.00934862, 0.0130557, -0.003), (-0.00937585, 0.0131926, -0.003), (-0.00940904, 0.0133282, -0.003), (-0.00972872, 0.0141, -0.003), (-0.00980115, 0.0142194, -0.003), (-0.0141, 0.0152713, -0.003), (-0.0142194, 0.0151989, -0.003), (-0.0151989, 0.0142194, -0.003), (-0.0152713, 0.0141, -0.003), (0.00932738, -0.0129177, -0.003), (0.00934862, -0.0130557, -0.003), (0.00972872, -0.0141, -0.003), (0.00980115, -0.0142194, -0.003), (0.00987871, -0.0143354, -0.003), (0.0115377, -0.0155519, -0.003), (0.0116718, -0.015591, -0.003), (0.0118074, -0.0156241, -0.003), (0.0122211, -0.0156878, -0.003), (0.0123604, -0.015697, -0.003), (0.0125, -0.0157, -0.003), (0.0133282, -0.015591, -0.003), (0.0134623, -0.0155519, -0.003), (0.0149513, -0.0145569, -0.003), (0.0150387, -0.014448, -0.003), (0.0156514, -0.0130557, -0.003), (0.0156726, -0.0129177, -0.003), (0.0156878, -0.0127789, -0.003), (0.0152713, -0.0109, -0.003), (0.0151989, -0.0107806, -0.003), (0.0125, -0.0093, -0.003), (0.0123604, -0.00930305, -0.003), (0.0122211, -0.00931218, -0.003), (0.0120823, -0.00932738, -0.003), (0.0101407, -0.0103381, -0.003), (0.0100487, -0.0104431, -0.003), (0.00996127, -0.010552, -0.003), (0.00932738, -0.0120823, -0.003), (0.0138524, -0.00959982, -0.003), (0.0137246, -0.00954359, -0.003), (-0.0155519, 0.0115377, -0.003), (-0.015507, 0.0114055, -0.003), (-0.0154564, 0.0112754, -0.003), (-0.0154002, 0.0111476, -0.003), (-0.0153384, 0.0110224, -0.003), (-0.0152713, 0.0109, -0.003), (-0.0151989, 0.0107806, -0.003), (-0.0151213, 0.0106646, -0.003), (-0.0138524, 0.00959982, -0.003), (-0.0137246, 0.00954359, -0.003), (-0.0123604, 0.00930305, -0.003), (-0.0125, 0.0093, -0.003), (-0.0126396, 0.00930305, -0.003), (-0.00930305, 0.0123604, -0.003), (-0.0093, 0.0125, -0.003), (-0.00932738, 0.0129177, -0.003), (0.00930305, -0.0123604, -0.003), (0.0093, -0.0125, -0.003), (0.00930305, -0.0126396, -0.003), (0.00959982, -0.0138524, -0.003), (0.00966157, -0.0139776, -0.003), (0.010552, -0.0150387, -0.003), (0.0106646, -0.0151213, -0.003), (0.0107806, -0.0151989, -0.003), (0.0109, -0.0152713, -0.003), (0.0110224, -0.0153384, -0.003), (0.014448, -0.0150387, -0.003), (0.0145569, -0.0149513, -0.003), (0.0146619, -0.0148593, -0.003), (0.0151213, -0.0143354, -0.003), (0.0151989, -0.0142194, -0.003), (0.0152713, -0.0141, -0.003), (0.015697, -0.0126396, -0.003), (0.0157, -0.0125, -0.003), (0.0119443, -0.00934862, -0.003), (0.0118074, -0.00937585, -0.003), (0.0116718, -0.00940904, -0.003), (0.0115377, -0.00944811, -0.003), (0.0106646, -0.00987871, -0.003), (0.010552, -0.00996127, -0.003), (0.0104431, -0.0100487, -0.003), (0.0130557, -0.00934862, -0.003), (0.0129177, -0.00932738, -0.003), (0.0143354, -0.00987871, -0.003), (-0.0147627, 0.0102373, -0.003), (-0.0146619, 0.0101407, -0.003), (-0.0145569, 0.0100487, -0.003), (-0.0134623, 0.00944811, -0.003), (-0.0135945, 0.00949298, -0.003), (-0.0133282, 0.00940904, -0.003), (-0.00944811, 0.0134623, -0.003), (-0.00949298, 0.0135945, -0.003), (0.0135945, -0.015507, -0.003), (0.0137246, -0.0154564, -0.003), (0.0138524, -0.0154002, -0.003), (0.0147627, -0.0147627, -0.003), (0.0148593, -0.0146619, -0.003), (0.0153384, -0.0139776, -0.003), (0.0154002, -0.0138524, -0.003), (0.0154564, -0.0137246, -0.003), (0.015507, -0.0135945, -0.003), (0.0155519, -0.0134623, -0.003), (0.00987871, -0.0106646, -0.003), (0.00980115, -0.0107806, -0.003), (-0.0131926, 0.00937585, -0.003), (-0.0130557, 0.00934862, -0.003), (-0.0129177, 0.00932738, -0.003), (-0.0127789, 0.00931218, -0.003), (0.0126396, -0.015697, -0.003), (0.0127789, -0.0156878, -0.003), (0.0129177, -0.0156726, -0.003), (0.0139776, -0.0153384, -0.003), (0.0141, -0.0152713, -0.003), (-0.014448, 0.00996127, -0.003), (-0.0143354, 0.00987871, -0.003), (-0.0142194, 0.00980115, -0.003), (-0.0141, 0.00972872, -0.003), (-0.0139776, 0.00966157, -0.003), (-0.00930305, 0.0126396, -0.003), (0.0110224, -0.00966157, -0.003), (0.0109, -0.00972872, -0.003), (0.0107806, -0.00980115, -0.003), (0.0130557, -0.0156514, -0.003), (0.0131926, -0.0156241, -0.003), (0, 2.75546e-19, 0)]
            }
        }
    }
}

